<?xml version="1.0" encoding="UTF-8"?>
<svg xmlns="http://www.w3.org/2000/svg" xmlns:xlink="http://www.w3.org/1999/xlink" viewBox="0 0 1024 1024">
  <defs>
    <style>
      .cls-1, .cls-2, .cls-3, .cls-4 {
        fill: none;
      }

      .cls-2 {
        stroke-width: 3px;
      }

      .cls-2, .cls-3, .cls-4 {
        stroke: #020617;
        stroke-linecap: round;
        stroke-linejoin: round;
      }

      .cls-3 {
        stroke-width: 2px;
      }

      .cls-5 {
        fill: #f1f5f9;
      }

      .cls-6 {
        opacity: .5;
      }

      .cls-7 {
        fill: #94a3b8;
      }

      .cls-8 {
        clip-path: url(#clippath);
      }
    </style>
    <symbol id="Cross" viewBox="0 0 6 6">
      <polygon class="cls-7" points="6 2 6 4 4 4 4 6 2 6 2 4 0 4 0 2 2 2 2 0 4 0 4 2 6 2"/>
    </symbol>
    <symbol id="square" viewBox="0 0 6 6">
      <polygon class="cls-7" points="0 3 3 0 6 3 3 6 0 3"/>
    </symbol>
    <clipPath id="clippath">
      <path class="cls-1" d="M86.29,557.18l34.56-120.24c.54-1.8,1.8-2.88,3.6-2.88h51.66c26.28,0,32.58,15.84,26.28,37.98l-5.58,19.44c-6.66,23.04-21.78,37.8-48.06,37.8h-27.54l-7.92,27.9c-.54,1.8-1.98,2.88-3.78,2.88h-21.24c-1.8,0-2.52-1.08-1.98-2.88ZM153.43,505.16c7.2,0,13.68-3.24,16.74-14.4l5.04-18c3.06-10.98-1.08-14.58-8.28-14.58h-25.38l-13.5,46.98h25.38ZM198.79,557l23.94-84.06c.72-1.98,2.16-2.88,3.96-2.88h20.7c1.08,0,2.34.9,1.8,2.88l-1.62,5.94h2.88c5.4-5.94,13.5-9.54,22.86-9.54h1.08c18.18,0,21.24,9.54,16.2,27.36l-1.98,7.02c-.54,2.16-1.98,2.88-3.78,2.88h-18.54c-1.98,0-2.52-1.26-1.98-3.24,2.34-6.84-.18-10.62-6.48-10.62h-3.6c-5.58,0-11.7,3.06-13.5,9.72l-15.48,54.54c-.72,1.98-2.7,3.06-3.78,3.06h-20.7c-1.8,0-2.52-1.08-1.98-3.06ZM294.73,529.1l7.92-27.9c5.58-19.26,17.46-31.86,41.58-31.86h12.78c23.94,0,29.88,12.6,24.3,31.86l-7.92,27.9c-5.58,19.08-17.46,31.86-41.58,31.86h-12.78c-23.94,0-29.88-12.78-24.3-31.86ZM346.93,528.56l7.74-27c1.98-6.3-1.26-8.82-5.76-8.82h-9c-4.86,0-9,2.52-10.98,9l-7.74,26.82c-1.8,6.48,1.44,8.82,5.94,8.82h9c4.86,0,9.18-2.34,10.8-8.82ZM398.95,527.66l9.9-34.38h-11.16c-2.34,0-3.06-1.08-2.52-3.42l4.86-16.38c.54-2.34,1.98-3.42,4.32-3.42h11.16l5.22-18.36c.72-1.98,1.8-3.06,3.78-3.06h20.34c1.98,0,2.88,1.08,2.34,3.06l-5.4,18.36h13.86c2.16,0,2.7,1.08,2.16,3.42l-4.86,16.38c-.54,2.34-1.8,3.42-3.96,3.42h-13.86l-10.26,35.46c-1.98,6.66.72,9.18,7.2,9.18,3.96,0,5.22,1.62,4.14,5.22l-3.24,10.26c-1.62,5.22-4.86,7.56-14.94,7.56-26.64,0-24.48-14.58-19.08-33.3Z"/>
    </clipPath>
  </defs>
  <rect width="1024" height="1024"/>
  <g id="wordmark-black">
    <g id="outlined-7" data-name="outlined">
      <g>
        <g class="cls-8">
          <rect class="cls-5" x="46.18" y="417.33" width="424.03" height="182.6"/>
          <g class="cls-6">
            <g>
              <g id="topo">
                <path class="cls-4" d="M502.63,487.22c-4.75.82-8.96,2.59-12.26,6.34-3.09,3.5-4.1,7.38-2.61,11.75.69,2.02,1.63,3.97,2.59,5.91,3.29,6.65,4.06,8.77-.98,13.87-5.69,5.75-9.45,13.12-15.64,18.36-3.9,3.3-7.72,6.68-10.89,10.63-1.89,2.35-4.03,4.12-6.7,5.3-2.32,1.02-4.85,1.32-7.32.96-4.64-.67-9.27-1.22-13.95-1.47-2.94-.16-5.89-.32-8.82-.88-2.09-.4-3.04-1.52-3.71-3.45-1.3-3.71-2.25-7.53-3.29-11.3-1.78-6.44-4.96-11.98-9.1-17.13-1.86-2.31-3.97-4.37-5.94-6.54-4.7-5.18-6.1-11.64-7.57-18.13-1.73-7.62.54-14.7,3.31-21.49,3.3-8.07,7.95-15.52,12.41-23.02,2.08-3.49,4.73-6.53,7.98-9.14,5.08-4.07,8.8-9.33,11.8-15.1,3-5.76,7.32-9.9,13.92-11.31,1.58-.34,3.2-.88,4.65-1.68,6.27-3.45,8.31-10.56,6.35-17.59-1.63-5.85-5.09-8.8-11.72-8.57-4.55.15-9-.44-13.48-1.37-3.66-.75-7.17.09-9.54,3.56-1.45,2.13-2.8,4.34-4.39,6.37-4.5,5.69-9.6,7.15-16.36,4.36-4.37-1.81-8.62-2.16-12.98-.42-3.88,1.54-7.64,3.28-11.05,5.81-5.28,3.92-6.65,9.12-5.56,15.21.86,4.85,2,9.6-.96,14.23-1.18,1.84-2.44,3.56-3.96,5.11-3.9,3.97-8.06,7.7-10.81,12.7-1.52,2.76-2.56,5.67-3.61,8.59-1.65,4.59-3.31,9.16-6.13,13.21-5.24,7.5-12.57,10.95-22.04,8.13-2.79-.83-5.69-1.37-8.53-2.06-4.87-1.19-8.77-3.62-10.07-8.99-1.37-5.66-4.56-10.38-8.04-14.94-2.07-2.72-3.54-5.82-5.08-8.83-2.17-4.25-5-8.04-7.67-11.95-3.75-5.5-4.44-11.46-3.21-17.88.61-3.17,1.95-6.2,1.77-9.54-.16-3.02-1.67-4.09-4.68-3.47-1.42.3-2.71.89-3.88,1.56-8.87,5.12-19.33.41-22.27-8.86-.61-1.93-1.39-3.82-2.29-5.59-1.82-3.6-5.21-5.13-8.99-5.9-8.07-1.65-16.04-3.59-23.74-6.6-6.12-2.39-10.92-6.06-12.7-12.74-.47-1.76-.77-3.58-.96-5.38-.76-7.08-5.31-10.64-11.53-12.72-3.61-1.2-7.14-2.43-10.07-5.1-3.46-3.16-4.85-7.34-5.75-11.56-1.97-9.23-8.37-14.43-16.02-18.52-3.75-2.01-8-2.58-12.2-3.3-10.14-1.74-17.92,2.94-25.17,8.92-3.65,3.01-7.7,5.22-12.06,6.71-4.41,1.51-8.1,3.81-11.23,7.18-.86.93-1.72,1.88-2.7,2.68-1.55,1.25-3.54,2.01-5.34,1.41-5.32-1.75-10.58-1.62-15.93-.42-5.04,1.13-9.99.4-14.93-.72-5.69-1.3-11.19-1.03-16.4,1.94-6.42,3.66-13.2,6.48-20.29,8.6-3.2.96-5.35,2.7-5.18,7.31.22,6.2.77,12.29,3.18,18.12,1.37,3.31,3.93,4.22,7.13,4.41,2.61.15,5.2-.01,7.85.36,4.97.7,7.83,3.61,10.03,7.69,2.49,4.62,4.93,9.25,8.76,13.01,3.52,3.45,7.44,6.36,11.81,8.46,6.27,3.01,10.93,7.37,13.67,13.77,4.5,10.49,12.78,16.64,23.24,20.31,3.88,1.36,7.92,1.9,11.99,1.91,4.58.02,9.15.07,13.7.57,6.55.72,10.32,4.94,12.43,10.75,1.26,3.49,2.64,6.96,3.66,10.52,1.64,5.73,5.37,9.15,10.83,10.99,5.07,1.71,9.52,4.37,13.24,8.3,2.22,2.34,4.4,4.75,7.06,6.64,3.18,2.26,6.69,2.37,10,.88,3.03-1.37,5.91-1.55,8.83-.37,4.53,1.83,9.35,3.08,13.24,6.31,3.15,2.61,3.42,4.91.72,7.85-.74.81-1.5,1.61-2.24,2.41-3.88,4.23-2.27,10.57.1,13.93,4.14,5.88,11.4,6.34,16.78,2.44,3.85-2.79,4.46-6.96,3.73-11.45-.26-1.61-.65-3.2-1.3-4.62-2.01-4.38-.66-8.08,2.03-11.51,3.96-5.04,9.25-7.23,15.63-7.71,3.99-.3,8.06-.09,12.02-1.29,2.59-.79,4.73-2.3,7.07-3.49,2.94-1.5,4.47-1.27,6.6,1.24,2.68,3.15,4.37,6.98,6.81,10.31.82,1.12.41,2.43-1.17,2.89-6.42,1.87-7.53,7.12-8.36,12.72-.62,4.17-.25,8.33-.46,12.48-.21,4.13-2.62,7.29-5.15,10.25-2.77,3.24-4.81,6.7-5.41,11.03-.45,3.24-.34,6.47.38,9.53,1.59,6.7.89,13.17-1.08,19.59-1.55,5.04-2.02,10.04-.49,15.18,1.05,3.52.59,7.17.48,10.76-.12,4.22,1.45,7.93,4.5,10.44,8.02,6.61,16.6,12.45,26.62,15.69,2.88.93,5.83,1.6,8.55,2.98,2.81,1.42,5.16,3.38,7.1,5.87,5.49,7.06,12.99,11,21.55,12.35,7.51,1.18,14.84-.28,21.01-5.26,5.09-4.1,10.83-6.1,17.38-6.43,4.67-.23,9.25-1.18,13.49-3.55,4.39-2.45,9.12-4.22,13.93-5.64,7.65-2.25,10.42-8.89,7.83-15.94-.8-2.17-1.67-4.29-2.7-6.36-5.2-10.46-.96-17.11,8.59-21.97,3.99-2.03,8.32-3.04,12.94-2.8,5.19.27,9.3,2.44,12.71,6.18.58.64,1.18,1.28,1.7,1.97,2.27,2.99,5.47,3.81,8.81,3.1,7.58-1.62,15.32-2.81,22.26-6.57,1.89-1.02,3.77-2.1,5.63-3.17,4.58-2.65,9.08-2.81,13.46.29,4.42,3.13,9.04,3.18,13.97,1.49,2.26-.78,4.63-1.34,7.08-1.26"/>
                <path class="cls-2" d="M103.33,752.44c-.23-11.46,4.49-21.11,11.01-30.09,5.3-7.3,11.83-12.84,20.5-16.04,4.46-1.65,8.8-4.38,10.76-9.19,1.55-3.8,1.75-7.8,1.37-11.97-.63-7.01.23-13.82,4.53-19.83,3.66-5.12,4.26-10.7,2.02-16.63-.56-1.48-.87-3.09-1.22-4.64-.97-4.25,2.21-7.67,7.06-7.83,8.37-.26,16.69-1.11,24.95-2.46,6.38-1.04,11.16-4.65,14.93-9.76,3.34-4.53,6.97-8.85,10.53-13.2,3.15-3.85,7.35-6.38,11.74-8.56,6.4-3.18,10.82-8,12.69-14.95,1.2-4.45,3.69-8.19,6.44-11.69,3.93-5.01,4.84-10.38,3.41-16.45-.67-2.83-1.28-5.59-2.94-8.09-2.01-3.01-5.21-3.56-8.1-3.27-6.06.61-12.02,1.14-18.13.42-5.97-.7-11.92-1.51-17.85-2.51-6.18-1.04-7.09-2.16-7.62-8.32-.51-6.01-2.48-11.39-7.8-14.92-5.65-3.74-10.12-8.78-14.93-13.45-3.83-3.71-7.94-7.11-13.21-8.54-3.19-.86-6.54-1.04-9.77-1.77-6.03-1.36-11.71-3.38-15.16-9.05-1.38-2.27-1.98-4.89-2.89-7.35-2.17-5.88-6.33-10.12-10.82-14.18-7.4-6.67-16.38-10.92-24.74-16.11-7.25-4.49-13.7-9.54-17.43-17.61-2.68-5.8-7.64-9.57-13.38-12.27-3.57-1.68-7.04-3.54-10.5-5.42-3.66-1.99-6.42-5.11-9.32-8.04-.82-.82-1.54-1.81-2.69-2.2-1.53-.52-3.25-.62-4.34.54-1.09,1.17-1.87,2.77-1.29,4.59.58,1.86,1.28,3.66,2.2,5.39,1.37,2.59,2.14,5.34,1.97,8.31-.16,2.69.21,5.38-.23,8.08-.93,5.72-4.83,8.62-9.81,10.51-2.93,1.11-6.04,1.6-9.05,2.47-4.4,1.26-8.08,3.6-10.51,7.58-1.54,2.53-.9,5,1.71,6.58,2.08,1.26,4.33,2.02,6.84,2,5.46-.06,10.93-.08,16.39,0,8.13.11,15.71,2.35,22.74,6.38,3.58,2.05,6.24,5.06,8.1,8.78.94,1.89,1.88,3.79,2.9,5.65,3.15,5.75,11.47,11.04,17.4,11.03,1.04,0,2.05-.15,2.92-.55,5.15-2.34,10.57-2.22,15.9-1.34,4.33.71,8.72,1.3,12.79,3.48,3.61,1.93,5.52,4.76,6.52,8.43.77,2.8,1.29,5.67,1.75,8.55.89,5.54,3.89,10.17,6.59,14.93,2.41,4.26,4.34,8.7,4.39,13.7.06,5.25-2.85,6.68-7.08,7.05-6.54.57-12.94-.73-19.32-1.92-10.4-1.93-13.71,1.32-18.28,8.61-1.64,2.61-3.06,5.33-4.93,7.81-1.31,1.73-2.5,3.49-2.78,5.85-.45,3.79,2.74,7.23,7.62,4.86.69-.33,1.36-.88,1.99-1.41,4.86-4.06,10.31-3.34,15.62-1.41,4.77,1.73,8.88,4.79,13.01,7.74,3.91,2.8,7.84,5.52,12.69,6.7,3.96.96,7.09-.26,10.03-2.54,1.98-1.54,3.33-3.69,4.9-5.62,2.67-3.28,5.9-5.26,10.29-5.15,4.3.12,7.99,4.57,7.08,8.83-.74,3.47-2.15,6.58-4.85,9.09-2.63,2.43-5.19,4.94-7.15,8.03-2.9,4.57-7.33,7.29-12.47,8.25-8.36,1.56-14.73,5.73-19.32,12.81-2.93,4.52-6.6,8.57-8.57,13.7-1.1,2.86-1.32,5.88-.9,8.8.94,6.62-2.19,10.3-6.46,11.91-2.49.94-5.23,1.05-8.05.96-4.99-.15-9.6-1.89-14.41-2.73-5.41-.94-9.93.53-13.65,3.89-6.4,5.77-9.74,13.21-9.85,21.94-.04,2.77.05,5.55-.02,8.32-.24,9.19,1.85,17.93,5.15,26.42,2.39,6.14,4.02,12.42,3.67,19.08-.22,4.15-2.83,6.81-5.9,9.02-4.23,3.04-7.39,6.8-9.03,11.78"/>
                <path class="cls-4" d="M279.49,251.85c-.15,4.83.54,9.72-1.2,14.45-.77,2.08-1.77,4.02-2.98,5.85-2.27,3.43-4.43,6.94-6.78,10.32-2.81,4.04-6.81,5.3-11.31,5.84-4.72.56-9.52.55-14.18,1.5-6.03,1.23-7.13,3.35-8.52,9.27-1.66,7.05-2.97,14.22-5.5,21-2.44,6.55-7.63,10.4-14.1,12.79-6.25,2.3-12.79,3.52-19.09,5.6-.76.25-1.53.4-2.23.94-1.92,1.48-2.22,3.11-.71,4.92,1.27,1.52,2.97,2.49,4.66,3.4,5.3,2.84,10.02,6.19,12.5,12,1.11,2.61,1.57,5.39,1.84,8.1,1.1,10.8,9.98,13.11,18.42,10.71,3.19-.91,6.27-2.44,9.56-2.83,7.74-.9,15.07.05,21.04,5.81,2.65,2.55,3.35,5.9,3.88,9.31.1.64.12,1.32.28,1.95,1.24,4.87,3.23,6.22,8.06,5.12,8.88-2.02,16.76,1.94,20.04,9.82,1.77,4.26,1.99,8.71.77,13.2-.51,1.87-.79,3.82-1.5,5.61-1.38,3.48-.92,6.89,1.08,9.75,3.23,4.61,5.48,9.65,7.79,14.72,1.14,2.51,2.61,4.91,4.87,6.61,4.82,3.62,8.07,8.59,11.75,13.21,6.77,8.49,17.37,8.75,24.4.46,2.02-2.38,3.71-5.05,5.01-8,2.89-6.58,6.87-12.52,11.68-17.89,4.22-4.72,4.3-10.43,3.37-16.14-1.36-8.33,2.8-22.57,11.75-25.37,5.43-1.7,10.24-5.22,15.45-7.7,3.66-1.74,7.57-1.57,11.25-1.07,6.99.96,9.89-.31,11.97-6.99,1.68-5.42,3.65-10.68,6.4-15.65,2.31-4.18,1.96-8.77,1.62-13.2-.31-4.04-1.75-7.88-4.56-11.01-4.02-4.48-4.98-9.71-3.64-15.41,1.24-5.28,2.46-10.58,6.06-14.96,2.29-2.78,5.4-4.32,8.37-6.06,4.06-2.39,8-5.24,12.72-6.08,7.65-1.36,15.5.4,18.83,9.72,1.84,5.14,4.21,9.94,9.06,12.96,5.53,3.45,11.49,5.48,18.1,5.4,5.71-.07,11.42-.01,17.13-.01"/>
                <path class="cls-4" d="M212.94,752.44c-1.33-3.5-4.22-5.54-7.1-7.58-6.87-4.86-14.43-8.72-21-14-5-4.02-10.44-7.35-15.69-10.97-4.94-3.41-9.09-7.58-11.5-13.2-1.63-3.82-2.06-7.96-2.96-11.98-.87-3.88-1.43-7.82-1.88-11.75-.62-5.39,1.25-10.25,4.61-14.4,3.67-4.52,6.25-9.48,7.3-15.2,1.21-6.58,5.46-10.1,11.49-12.29,5.08-1.85,10.46-2.68,15.44-4.83,3.36-1.45,6.21-3.54,8.57-6.36,4.94-5.89,9.81-11.84,15.89-16.66,3.09-2.45,6.73-3.82,10.28-5.39,3.44-1.52,6.9-2.95,10.06-5.09,3.98-2.69,5.93-6.38,6.34-11.05.45-5.22,2.84-9.63,5.59-13.97,3.08-4.86,3.9-10.16,2.8-15.89-.63-3.28-.87-6.69-.95-10.02-.13-4.9-.89-9.76-.62-14.68.1-1.92.46-3.61,1.99-4.89,4-3.37,4.51-7.62,3.52-12.5-.35-1.75-.66-3.49-1.36-5.1-.45-1.04-1.26-1.94-2.65-1.73-1.29.19-1.88,1.03-2.21,2.2-.28.97-.75,1.93-.7,2.94.18,3.45-.81,6.82-.54,10.28.17,2.13-.77,3.83-2.67,4.89-6.03,3.36-12.26,6.41-19.1,7.5-6.42,1.02-12.82.4-18.84-2.58-4.15-2.05-7.02-5.23-9.06-9.31-1.12-2.25-2.48-4.38-3.67-6.61-2.83-5.28-7.62-8.35-12.72-11-3.47-1.8-6.45-4.25-9.27-6.89-3.03-2.84-5.81-5.94-8.85-8.76-2.65-2.45-5.71-3.96-9.5-4.31-2.6-.24-5.27-.08-7.85-.83-4.06-1.18-6.92-3.62-8.29-7.62-1.09-3.2-1.66-6.55-2.69-9.79-2.04-6.41-6.03-10.74-12.48-13.02-5.54-1.96-11.27-3.44-16.65-5.84-8.7-3.88-16.92-8.53-23.51-15.62-2.09-2.25-3.74-4.86-4.8-7.62-2.45-6.37-6.95-10.75-12.84-13.6-8.03-3.9-14-10-19.54-16.7-1.71-2.07-3.48-4.05-5.86-5.39-3.72-2.1-7.46-1.33-10.72.58-5.26,3.1-7.91,8.11-9.18,14.09-.9,4.25.11,8.34.14,12.49.05,5.64-3.24,9.62-7.88,11.06-3.14.98-6.4,1.32-9.56,2.16"/>
                <path class="cls-2" d="M286.34,251.85c0,2.04-.18,4.1.03,6.11.61,5.89-1.21,10.92-5.19,15.15-4.31,4.58-7.01,10.03-8.73,15.94-1.57,5.39-3.92,6.04-9.6,5.4-6.26-.7-12.52-.9-17.85,3.4-3.87,3.13-5.94,7.39-7.64,11.96-1.38,3.7-2.45,7.48-3.31,11.29-1.29,5.71-3.79,10.79-6.91,15.65-2.4,3.72-5.54,7.11-6.54,11.51-1.11,4.9.62,9.4,3.4,13.41.99,1.43,4.29,1.52,6.27.22,1.23-.81,2.51-1.54,3.73-2.35,3.87-2.57,8.09-2.49,11.68.5,2.98,2.48,6.07,4.77,9.61,6.25,2.84,1.18,5.9,1.87,8.77,3.02,5.9,2.36,11.04,5.63,14.23,11.47,3.01,5.49,7.54,9.71,12.46,13.45,3.8,2.89,6.58,6.66,9.51,10.32,1.27,1.58,2.63,3.09,3.98,4.59,2.39,2.65,3.71,5.74,4.02,9.11.33,3.6,1.02,7.09,2.06,10.51,1.68,5.51,2.83,11.22,6.55,15.94,2.41,3.06,5.2,5.83,7.15,9.26,1.07,1.87,2.09,3.77,3.12,5.66,2.5,4.58,7.36,5.27,11.07,1.71,2-1.92,3.71-3.98,5.16-6.36,2.44-4,5.42-7.63,8.05-11.52,2.36-3.49,3.48-7.25,3.46-11.51-.04-8.8,1.4-17.42,3.59-25.94,1.17-4.56,4.13-7.23,8.37-8.51,6.58-1.99,12.6-4.96,18.11-9.07,2.86-2.12,6.25-3.12,9.77-3.43,6.74-.58,9.84-5.05,11.71-10.8.8-2.46,1.46-5.01,1.69-7.58.31-3.43-1.12-6.51-2.94-9.26-2.93-4.44-4.27-9.17-3.9-14.47.25-3.59,1.7-6.77,2.96-10.03,1.83-4.72,3.27-9.52,2.95-14.68-.16-2.55-.5-5.2-1.8-7.29-2.73-4.36-7.35-4.95-12.39-2.97-2.01.79-3.98,1.8-5.61,3.2-5.48,4.7-11.85,4.84-18.37,3.57-4.47-.87-8.91-1.61-13.47-1.41-4.1.18-7.81-.98-11.26-3.17-3.07-1.95-6.4-3.41-9.79-4.62-5.5-1.96-7.85-6.14-8.52-11.54-.31-2.5-.83-4.99-.32-7.59.68-3.52,2.52-6.38,4.72-9.02,4.25-5.11,4.36-11.03,3.64-17.14-.33-2.78-1.23-5.48-1.21-8.32"/>
                <path class="cls-4" d="M35.06,752.2c3.22-3.33,6.82-6.32,9.07-10.51,2.3-4.3,3.6-8.86,3.89-13.71.33-5.44,1.22-10.79,2.14-16.16.72-4.18,1.02-8.38.42-12.73-1.05-7.68-.92-15.5-.51-23.22.4-7.52,1.99-14.9,5.29-21.78,2.06-4.29,4.54-8.33,7.6-11.97,2.26-2.68,5.59-3.39,8.8-3.88,6.25-.95,11.47-3.75,15.88-8.14,4.49-4.47,9.61-8.06,15.19-10.98,8.49-4.44,12.47-12.08,14.58-20.84,1.06-4.42-.62-8.56-3.61-11.94-2-2.26-4.18-4.26-7.28-5.26-2.7-.87-4.94-.51-7.39.55-2.15.93-4.18,2.09-6.34,3-4.81,2.03-9.7,1.97-14.69.97-2.54-.51-5.1-.86-7.61-1.64-2.33-.73-3.12-1.94-2.93-4.24.53-6.19.72-12.44,2.98-18.34.66-1.72,1.59-3.34,2.92-4.65,4.69-4.61,9.16-9.43,13.73-14.16,3.4-3.52,7.62-5.21,12.69-5.26,4.55-.05,8.93,1.18,13.46,1.09,5.27-.11,7.24-3.5,4.66-8.1-1.1-1.97-2.46-3.75-3.73-5.59-2.32-3.36-3.17-7.12-3.63-11.04-.32-2.74-.88-5.41-2.71-7.57-2.97-3.52-7.74-4.59-13.44-1.96-2.95,1.36-5.68,3.16-8.59,4.6-6.69,3.3-11.74,2.99-16.58-3.17-2.28-2.91-4.94-5.28-8.12-7.05-4.57-2.54-6.84-6.54-7.84-11.51-.64-3.18-1.42-6.41-3.43-9.03-2.79-3.64-6.94-4.96-11.23-5.61-7.26-1.1-14.53-.59-21.77.42-1.44.2-2.94.1-4.4.01-3.45-.2-6.85.31-10.28.5"/>
                <path class="cls-4" d="M502.88,359.75c-5.39-.45-10.54-1.74-15.16-4.67-1.12-.71-2.21-1.4-3.42-1.98-4.07-1.96-5.95-1.52-8.85,1.97-1.76,2.12-3.18,4.47-4.82,6.67-3.11,4.19-7.46,5.79-12.28,6.85-5.27,1.16-10.79.92-15.92,2.88-1.91.73-3.63,1.57-4.64,3.45-1.54,2.86-.62,5.26,2.69,7.11,2.52,1.41,5.35,1.73,8.09,2.14,9.11,1.38,14.03,7.08,16.37,15.47,3.19,11.45-3.18,25.27-13.22,29.8-7.39,3.33-12.91,8.54-17.41,15.18-2.82,4.16-6.19,7.9-10.15,11.13-2.2,1.8-3.93,4.27-5.45,6.77-2.6,4.27-5.52,8.33-8.34,12.46-2.5,3.65-3.54,7.61-3.69,12.01-.3,8.53,1.16,16.86,2.54,25.2.59,3.56,2.4,6.75,4.64,9.52,5.17,6.39,9.72,13.21,14.12,20.12,3.46,5.43,7.95,9.15,14.47,10,6.11.79,11.79.46,16.44-4.6,6.44-7,12.18-14.51,17.56-22.32,2.63-3.81,2.66-8.14,1.94-12.46-.87-5.23-1.98-10.38-.25-15.68,1.16-3.58,3.21-6.74,4.45-10.26.71-2.02,1.47-4.02,1.96-6.12.91-3.83,2.72-5.32,6.59-5.64,3.91-.32,7.82-.66,11.74-.48"/>
                <path class="cls-4" d="M275.33,752.2c2.85-9.84,5.56-19.72,9.73-29.14,1.45-3.27,2.06-6.86,2.29-10.49.32-5.17,2.26-9.71,5.87-13.44,3.16-3.27,5.39-6.97,6.11-11.51.79-4.97-1.52-10.19-7.09-10.87-3.92-.48-7.95-.03-11.78-1.79-9.29-4.26-18.58-8.46-25.4-16.47-4.08-4.79-6.26-10.48-7.36-16.62-.92-5.15-1.36-10.38-2.89-15.43-.53-1.74-1.09-3.49-1.83-5.09-1.57-3.37-4.59-4.87-8.24-5.18-9.37-.79-17.14,2.4-23.51,9.28-2.35,2.54-4.87,4.92-7.08,7.6-3.94,4.77-9.25,7.42-14.91,9.58-2.35.89-4.69,1.82-6.87,3.14-3.9,2.34-6.54,5.84-8.22,9.84-2.44,5.79-5.27,11.34-8.68,16.58-4.47,6.88-3.58,11.17.54,17.39,1.52,2.29,3.14,4.47,4.23,7.07.97,2.34,1.34,4.74,1.57,7.14.46,4.69,1.77,8.87,5.95,11.46,4.89,3.03,9.12,6.96,13.96,10.01,2.99,1.88,6.28,3.12,10.01,2.03,2.11-.62,3.56-2.1,5.13-3.45,1.4-1.21,2.46-2.77,4.15-3.68,5.32-2.87,9.62-.49,11.68,5.18,1.03,2.85.78,5.99.32,9.03-.45,3.01-.33,6.03-.02,9.05.31,3.03,1.24,5.98,1.24,9.05"/>
                <path class="cls-2" d="M340.41,752.2c1.1-5.15,3.85-9.76,4.88-14.93.63-3.16.84-6.38,1.49-9.54,1.33-6.41,5.98-9.74,11.49-12.24,5.53-2.51,11.51-3.27,17.38-4.34,4.7-.86,8.91-2.84,12.39-5.78,6.35-5.37,11.46-11.92,15.48-19.24,3.28-5.96,2.8-12.17.72-18.33-1.83-5.42-2.76-10.92-2.44-16.65.1-1.71.86-3.32.31-5.15-1.03-3.42-3.06-5.19-6.65-5.37-3.94-.2-7.59.82-11.01,2.7-3.87,2.13-7.36,4.9-11.48,6.65-3.18,1.35-6.47,2.13-9.8,2.92-6.07,1.43-11.66,4.17-17.39,6.54-5.48,2.27-10.69,5.31-16.63,6.36-2.09.37-4.2.81-6.36.77-1.97-.03-3.94-.08-5.88.47-2.09.59-3.46,1.64-4.22,3.91-2.23,6.72-3.64,13.62-4.8,20.58-.65,3.88-2.07,7.52-4.76,10.19-3.99,3.97-5.87,8.66-6.51,14.03-.38,3.18-1.64,5.99-3.45,8.55-3.94,5.56-7.5,11.33-9.48,17.88-1.02,3.38-1.99,6.8-2.74,10.26"/>
                <path class="cls-4" d="M217.83,251.85c2.14,5.12,5.12,9.76,8.03,14.46,2.02,3.25,3.59,6.76,3.72,10.74.17,5.12-1.98,9.16-6.41,11.42-5.84,2.99-11.53,6.27-17.55,8.96-6.25,2.8-12.29,2.29-18.37-.09-3.62-1.41-6.98-3.26-9.57-6.32-1.76-2.08-2.75-4.61-4.05-6.92-3.28-5.83-8.36-8.92-14.54-10.42-5.51-1.34-10.81,4.7-9.56,10.48.59,2.72,1.75,4.85,4.16,6.4,1.63,1.05,3.11,2.39,4.44,3.86,2.46,2.72,1.97,6.16-1.24,8.07-2.55,1.52-5.51,1.96-8.31,1.87-6.72-.2-12.35,2.72-18.12,5.46-8.29,3.93-15.46,9.78-23.73,13.7-6.71,3.18-13.7,5.58-21.04,6.85-3.59.62-6.78,2.21-10.02,3.7-4.52,2.08-9.3,2.39-13.93,1.14-10.05-2.73-19.69-1.58-28.85,2.86-5.58,2.7-11.02,2.36-16.68,1.13-4.68-1.02-9.19-2.73-13.95-3.42"/>
                <path class="cls-4" d="M269.7,752.44c1.61-6,3.42-11.96,4.36-18.11.43-2.81-.04-5.69.43-8.57.38-2.3.88-4.61,1.91-6.54,2.52-4.68,3.78-9.73,5.3-14.73.84-2.77,1.87-5.49,3.19-8.07,3.17-6.22.98-7.62-3.48-9.46-5.5-2.28-10.06-5.74-14.4-9.63-4.56-4.09-9.07-8.23-13.66-12.28-4.45-3.91-7.51-8.99-10.29-14.16-3.36-6.26-7.16-12.27-11.87-17.51-4.38-4.88-8.17-5.98-14.33-2.28-3.71,2.22-6.77,5.3-9.98,8.13-3.4,3-7.22,5.27-11.08,7.49-3.8,2.18-6.64,5.15-8.56,9.07-1.14,2.33-2.41,4.59-3.69,6.84-2.8,4.94-2.97,10.06-1.7,15.44,1.36,5.8,2.51,11.66,4.23,17.35,2.33,7.68,7.36,12.95,15.12,15.43,2.81.9,5.67.14,8.29-.38,8.02-1.59,14.58,1.71,18.44,8.17,2.13,3.56,3.27,7.2,3.11,11.29-.13,3.59-.2,7.2-.29,10.77-.06,2.86-.13,5.92.58,8.79.25,1.01.09,1.97.2,2.95"/>
                <path class="cls-4" d="M332.34,752.44c.29-4.59,1.39-9.01,3.22-13.2,1.82-4.17,2.63-8.58,3.05-12.99.64-6.65,3.51-11.3,9.87-13.71,4.83-1.83,9.45-4.22,14.45-5.59,2.79-.76,5.7-1.16,8.56-1.18,4.43-.04,8.57-1.14,11.93-3.81,6.2-4.93,10.74-11.31,13.97-18.54,1.67-3.73,1.36-7.64.26-11.48-1.18-4.11-3.22-7.85-5.4-11.48-3.17-5.28-6.17-4.69-10.49-3.21-4.77,1.64-9.09,4.25-13.38,6.74-5.75,3.33-11.83,5.42-18.18,6.95-2.42.58-4.79,1.32-7.08,2.26-5.57,2.27-11.63,3.2-16.91,6.3-3.64,2.13-5.99,4.89-5.59,9.33.2,2.19,1.33,4.03,2.42,5.88,1.39,2.36,3.03,4.59,3.69,7.33.65,2.73-.19,5.06-2.45,6.87-1.57,1.25-3.36,2.11-5.16,2.9-5.26,2.31-9.87,5.52-13.69,9.81-3.84,4.31-8.32,8.06-11.71,12.75-3.86,5.35-5.71,11.54-6.41,18.07"/>
                <path class="cls-4" d="M92.81,752.2c.82-3.61,1.99-7.12,3.46-10.51,2.29-5.3,3.4-10.94,5.14-16.4.85-2.65,2.01-5.21,3.88-7.35,3.49-4,6.93-8.06,11-11.51,4.32-3.66,9.57-5.49,14.69-7.58,4.31-1.76,7.85-4.39,9.26-9.06.69-2.29.3-4.72.25-7.08-.1-4.52-.81-8.98-1.36-13.47-.51-4.16-4.05-5.4-7.4-5.02-2.3.26-4.58.47-6.86.35-4.91-.28-9.52.89-13.93,2.78-3.97,1.7-8.05,2.91-12.26,3.56-2.84.44-5.58-.53-8.05-1.93-1.59-.9-3.14-1.89-4.68-2.89-4.03-2.62-8.22-3.05-12.46-.5-4.49,2.71-7.09,6.72-6.78,11.98.36,6.13,3.57,10.65,9.24,13.19,3.01,1.35,5.3,3.44,6.55,6.4,1.89,4.46,2.19,6.44-1.5,10.43-3.71,4.01-4.92,8.65-5.03,13.77-.09,4.43-.1,8.84-.98,13.22-.8,4.01-2.77,7.26-5.67,10.02-2.64,2.51-6.02,4.29-7.58,7.83"/>
                <path class="cls-4" d="M264.32,752.44c.72-3.82,1.49-7.64,1.93-11.5.5-4.35-1.17-8.36-2.15-12.48-1.14-4.76-.5-9.25,2.65-13.21,1.9-2.39,3.86-4.75,5.16-7.57,2.9-6.26,2.55-12.05-2.71-16.88-2.32-2.13-4.31-4.58-6.05-7.14-3.49-5.13-7.46-9.75-12.27-13.68-5.51-4.5-9.11-10.64-13.47-16.13-3.4-4.28-7.62-7.29-12.98-8.54-2.43-.56-4.91-.41-7.34.22-5.9,1.55-11.54,3.68-16.13,7.85-4.97,4.51-7.07,10.63-8.52,16.88-1.94,8.38.53,15.63,6.51,21.79,1.89,1.94,3.56,4.1,5.42,6.08,3.24,3.45,7.63,4.27,11.98,5.15,4.75.96,9.09,2.68,12.5,6.34,2.29,2.46,4.82,4.7,6.59,7.6,1.56,2.56,2.45,5.25,2.49,8.32.08,5.82-1.28,11.59-.9,17.36.21,3.17-.12,6.44.86,9.55"/>
                <path class="cls-4" d="M339.68,251.85c.9,1.78.53,3.76.9,5.64,1.18,6.02,1.01,12.24-.55,18.05-2.31,8.56.58,15.31,5.8,21.54,3.97,4.74,9.15,7.07,15.37,7.97,7.3,1.07,13.7-.56,19.84-4.26,5.19-3.13,10.59-5.78,16.63-6.86,8.77-1.57,14.01-7.03,16.9-15.17.62-1.75,1.36-3.48,2.2-5.13,2.81-5.48,7.47-8.67,13.19-10.54,3.56-1.16,6.98-2.98,10.77-3.12,6.22-.23,11.25,2.84,15.89,6.57,3.8,3.05,5.15,7.25,5.42,11.97.15,2.6.52,5.3,1.75,7.55,2.63,4.82,6.28,6.71,12.65,4.91,2.83-.8,5.49-2.1,8.31-2.95,3.78-1.13,7.56-1.65,11.51-1.23,2.18.23,4.4.04,6.6.04"/>
                <path class="cls-4" d="M502.88,674.39c-2.2-.19-4.39-.09-6.62-.38-5.68-.74-8.45-4.33-10.25-9.16-.87-2.34-1.38-4.83-2.48-7.08-4.64-9.52-12.87-14.2-22.73-16.66-3.01-.75-6.07-.7-9.05-.38-3.69.39-6.44,2.85-8.79,5.56-2.53,2.91-5.64,4.96-9.34,5.51-3.44.51-6.93,1.02-10.53.22-2.22-.49-4.73-.44-7.07.13-4.41,1.08-6.47,4.78-5.69,9.3.63,3.68,2.13,7.09,2.79,10.75,1.28,7.09.26,13.75-4.01,19.54-4.42,6-8.99,11.95-14.88,16.67-6.84,5.48-14.76,8.62-23.23,10.54-2.77.63-5.44,1.59-8.1,2.62-5.06,1.96-7.07,5.99-8.03,10.83-1.34,6.72-2.74,13.42-4.42,20.06"/>
                <path class="cls-2" d="M102.59,252.09c-2.11,3.4-3.83,7.04-5.04,10.8-1.05,3.27,1.49,4.76,4.06,4.15,4.94-1.18,9.8-1.05,14.7.66,4.85,1.69,9.76,3.23,14.9,4.03,3.96.61,5.44,2.77,4.84,7.03-.62,4.42-1.29,8.84-2.15,13.22-1.07,5.39-4.39,9.27-9.08,11.68-7.69,3.96-15.16,8.32-22.97,12.05-5.74,2.74-11.64,4.93-18.1,5.46-3.39.28-6.83,1.15-9.76,2.93-4.78,2.91-9.77,3.04-14.95,1.88-4.34-.97-8.7-.67-12.96.1-4.25.77-8.52,1.39-12.75,2.31-3.14.69-6.18,1.71-9.27,2.55-7.45,2.03-14.4.38-21.3-2.27-.27-.1-.33-.32-.25-.48"/>
                <path class="cls-4" d="M59.29,251.85c.6,3.16.69,6.39,1.43,9.55,1.08,4.61-1.03,8.4-5.83,11-4.76,2.57-9.73,4.69-14.68,6.84-5.36,2.33-9.08,6.19-11.53,11.49-2.95,6.38-6.63,12.34-10.97,17.88-1.23,1.57-2.19,3.31-2.92,5.14-1.54,3.87.31,7.25,4.38,8.32,3.97,1.04,7.9,1.01,12,.59,4.91-.5,9.64-1.34,14.19-3.28,2.25-.96,4.37-2.19,6.6-3.19,2.82-1.26,5.84-1.93,8.81-2.66,8-1.97,14.39-6.74,20.77-11.56.68-.52,1.3-1.15,1.97-1.7,2.39-1.94,2.87-3.9,1.46-6.6-2.09-3.98-4.19-7.95-5.63-12.24-1.02-3.05-1.87-6.15-2.4-9.31-.36-2.13.21-4.29,1.24-6.08,2.9-5.01,6.54-9.52,10.22-13.98"/>
                <path class="cls-4" d="M2.28,585.33c8.21-.25,13.95-4.21,17.65-11.48,1.78-3.51,3.6-7.01,5.33-10.55,1.62-3.32,3.84-5.16,7.85-4.97,4.72.23,9.43.72,14.19.62,6.13-.12,11.52-1.26,15.24-6.86,1.67-2.51,4.37-4.16,7.02-5.67,5.47-3.12,9.2-7.65,11-13.71,1.38-4.64.16-6.95-4.39-8.82-2.95-1.21-6.06-1.88-9.07-2.9-3.26-1.1-5.82-3.07-8.1-5.62-2.15-2.41-4.42-4.75-7.08-6.61-5.08-3.56-8.34-8.55-10.97-13.98-2.88-5.94-7.16-10.43-13.26-12.9-4.13-1.67-8.54-1.49-12.95-1.07-4.35.41-8.2,2.6-12.47,3.22"/>
                <path class="cls-4" d="M502.88,681.25c-6.03.51-12.09.75-18.11,1.47-2.55.3-4.21,1.7-4.86,4.17-.12.46-.25.95-.31,1.46-.86,7.27-5.45,11.35-11.96,13.7-6.92,2.49-13.62,5.37-19.58,9.78-3.76,2.78-8.23,2.6-12.46,2.1-4.41-.52-8.85-.98-13.23-1.83-1.61-.31-3.22-.58-4.89-.53-3.51.1-5.23,1.55-5.32,5.17-.04,1.51-.39,2.94-.59,4.4-.33,2.31-1.75,2.95-4.12,2.5-1.43-.27-2.68-.93-3.88-1.56-5.19-2.71-10.46-2.59-15.67-.4-5.73,2.4-11.37,5.05-17.17,7.22-7.88,2.95-8.54,14.53-3.17,18.7,1.57,1.22,2.65,2.93,3.69,4.63"/>
                <path class="cls-4" d="M502.88,712.07c-4.52.1-8.98-.57-13.46-.88-4.12-.28-8.1,1.05-11.72,3.1-1.98,1.12-3.91,2.38-5.14,4.39-1.48,2.43-.96,4.68,1.46,6.35,1.21.83,2.6,1.32,3.9,1.99,4.14,2.13,6.23,5.61,6.11,10.25-.12,4.6-2.63,7.82-6.61,9.73-2.79,1.34-5.93,1.52-9.02,1.27-1.81-.15-3.09-1.32-3.35-2.94-.4-2.4-.81-4.78-.2-7.36.59-2.47.38-5.22.05-7.79-.28-2.14-1.52-3.85-3.82-4.69-6.15-2.25-12.32-3.9-18.85-1.67-2.7.92-4.88,2.79-7.35,4.15-3.14,1.72-6.24,3.54-9.78,4.43-4.16,1.04-6.35,3.78-6.61,8.06-.33,5.51-2.77,7.13-7.09,8.12-3.25.75-6.48,1.72-9.31,3.62"/>
                <path class="cls-4" d="M2.52,666.32c1.27-1.31,3.14-1.18,4.66-1.94,5.58-2.76,10.28-6.77,15.18-10.52,3.41-2.61,6.65-5.43,9.98-8.14,2.61-2.12,4.57-4.9,6.64-7.54,3.21-4.12,6.41-8.24,9.78-12.24,1.81-2.15,2.27-4.73,1.44-7.32-2.18-6.85-.82-13.38,1.53-19.82,1.15-3.15,3.71-5.19,6.33-7.11,2.14-1.57,4.2-3.14,5.23-5.83.49-1.27.32-2.27-.37-2.93-2.95-2.77-4.83-6.3-7.06-9.58-3.66-5.37-8.99-6.25-14.91-5.38-5.92.87-9.84,4.72-13.46,9.04-3.12,3.72-5.8,7.78-9.99,10.58-4.66,3.12-9.75,4.34-15.21,4.59"/>
                <path class="cls-4" d="M2.52,519.52c2.52,4.19,3.9,8.84,5.43,13.44,1.83,5.49,5.3,7.94,11.45,7.78,6.25-.17,11.7,1.66,16.92,4.9,2.34,1.45,4.8,2.86,7.79,3.04,6.23.37,10.64-2.8,14.4-7.17,1.45-1.68,3.21-3.25,3.25-5.84.04-2.12-.54-3.89-2-5.38-7.74-7.93-14.63-16.65-22.71-24.27-3.6-3.39-6.02-7.83-9.06-11.73-2.45-3.15-5.52-5.27-9.35-5.74-3.44-.42-6.78,1.01-10,2.17-2.12.76-4.19,1.62-6.39,2.13"/>
                <path class="cls-4" d="M502.63,594.88c-4.09,1.28-7.29,4.05-10.76,6.37-2.04,1.37-4.08,2.81-6.39,3.61-3.15,1.09-6.16.93-8.82-1.63-2.13-2.04-4.32-4.11-7.55-4.48-1.52-.18-3.06.05-4.38.39-4.87,1.22-9.88,2.24-13.98,5.51-4.37,3.49-7.62,7.58-7.83,13.47-.06,1.61.48,3.05,1.24,4.4,3.94,6.97,10.56,9.85,17.85,11.76,7.91,2.07,15.44,4.92,22.07,9.96,3.79,2.88,5.95,6.67,7.79,10.82.9,2.04,1.59,4.18,2.71,6.11,1.84,3.17,4.72,4.85,8.3,5.39"/>
                <path class="cls-4" d="M18.67,752.44c1.02-3.81,4.31-5.24,7.35-6.83,3.85-2.01,7.59-4.14,9.76-8.11,1.83-3.35,2.91-6.76,2.04-10.77-1.27-5.87-.57-11.62,2.1-17.13,1.93-3.97,1.91-8.18,1.03-12.47-.87-4.22-1.01-8.44-.07-12.73,1.02-4.67,1.12-9.4.38-14.19-.31-1.99-.43-4.06-.57-6.1-.28-4.15-2.69-5.83-6.62-4.66-7.96,2.38-15.6,5.51-23.02,9.26-2.77,1.4-5.81,2.29-8.79,3.22"/>
                <path class="cls-4" d="M349.47,251.85c.67,4.39.41,8.8.51,13.21.08,3.28-.43,6.53-.45,9.79-.04,6.6,1.98,12.7,6.13,17.81,3.32,4.09,7.96,4.58,12.91,3.25,8.33-2.25,16.15-5.71,23.75-9.76,4.76-2.54,9.48-5.02,13.22-9.06,2.45-2.65,4.06-5.81,5.8-8.86,2.8-4.92,6.73-8.28,12.01-10.32,2.33-.9,4.52-2.31,6.39-4.09.67-.64,1.18-1.52,2.2-1.72"/>
                <path class="cls-4" d="M294.17,251.85c.91,4.03,1.95,8.11,1.39,12.22-.48,3.51-2.74,6.17-5.54,8.34-2.61,2.02-4.95,4.38-7.05,6.89-3.34,3.98-4.36,9.73-1.04,13.91,1.41,1.77,3.23,2.89,5.39,3.41,5.29,1.28,10.33.49,15.17-1.94,1.6-.8,3.27-1.48,4.87-2.26,4.67-2.28,7.03-6.43,8.62-11.2,1.01-3.02,2.86-5.57,5.1-7.85.93-.94,1.92-1.82,2.73-2.9,1.83-2.42,2.91-4.95,2.71-8.1-.22-3.5.11-7.03-.54-10.52"/>
                <path class="cls-4" d="M149.33,251.85c-.23,1.83.15,3.62.53,5.37.56,2.62,2.36,4.29,4.86,5.14,6.22,2.1,12.3,4.51,18.11,7.58,4.61,2.44,8.42,5.54,10.55,10.52,2.19,5.11,5.63,9,11.46,10.04,3.27.58,6.43.29,9.55-.95,4.41-1.76,7.96-4.62,10.72-8.37,3.14-4.26,2.93-9,.99-13.66-2.13-5.13-6-9.06-9.53-13.21-.64-.75-1.21-1.49-1.45-2.46"/>
                <path class="cls-4" d="M2.28,641.61c11.58-3.71,17.71-12.42,20.69-23.52,1.73-6.41,4.6-11.56,10.09-15.45,5.36-3.79,7.06-9.47,6.63-15.84-.13-1.95-1.47-2.75-3.41-2.2-2.84.81-4.99,2.73-7.08,4.66-3.01,2.77-5.69,5.89-8.81,8.56-4.1,3.5-9.08,4.77-14.21,5.57-1.29.2-2.54.85-3.91.54"/>
                <path class="cls-4" d="M502.88,295.64c-4.57.21-9.21-.65-13.69.53-6.94,1.83-13.93,3.64-20.3,7.09-2.9,1.58-3.79,4.5-3.4,7.54,1.07,8.33,5.58,13.03,14.88,13.17,3.58.05,7.19-.09,10.77-.23,3.17-.12,6.59.07,9.76,1.06.69.22,1.32.07,1.97.2"/>
                <path class="cls-2" d="M502.63,549.37c-5.57,1.25-11.16,2.26-16.87,2.78-3.94.36-8.01.69-11.52,3.06-4.99,3.37-6.77,8.47-7.78,13.98-.33,1.77.43,2.84,2.39,3.49,3.85,1.28,7.88,1.5,11.79,2.24,4.27.81,8.42,2.07,12.69,2.87,3.17.6,6.38.68,9.55,1.18"/>
                <path class="cls-4" d="M143.45,752.44c.34-5.55,1.41-11.06.95-16.64-.36-4.47-.9-8.95-3.16-12.97-2.37-4.2-7.05-6-11.98-3.91-6.43,2.73-10.29,8.12-13.95,13.7-2.82,4.3-4.18,9.06-4.14,14.19.01,1.81.5,3.58.72,5.38"/>
                <path class="cls-4" d="M226.15,251.85c1.08,4.3,3.25,8.12,5.69,11.7,3.01,4.41,5.03,9.35,8,13.75,2.3,3.41,5.56,4.96,9.54,5.68,4.52.81,8.77.29,12.45-2.31,6.45-4.56,9.72-11.15,11.36-18.77.72-3.35-.22-6.78.91-10.05"/>
                <path class="cls-4" d="M2.28,709.63c4.05-1.21,7.74-3.32,11.73-4.69,1.95-.67,3.94-1.35,5.91-1.82,4.86-1.17,7.22-4.25,8.34-8.89,1.07-4.42,2.69-8.7,3.38-13.22.75-4.94-2.87-9.68-7.58-9.65-5.11.03-9.69,1.57-14.16,3.6-2.48,1.12-5.24,1.74-7.37,3.61"/>
                <path class="cls-4" d="M371.98,251.85c-.94,4.86-3.16,9.35-4.14,14.19-.76,3.75-1.06,7.52.22,11.25,1.71,5.01,5.74,6.95,11.01,5.84,3.76-.79,7.04-2.59,9.8-5.34,4.71-4.69,4.78-10.03,2.74-15.94-1.1-3.2-1.71-6.6-.55-10.01"/>
                <path class="cls-4" d="M199.73,752.44c-1.3-3.28-3.75-5.78-6.42-7.76-7.98-5.91-15.86-12.01-24.67-16.68-2.12-1.12-4.49-1.73-6.84-2.2-3.26-.65-6.57,1.66-8.07,5.35-2.78,6.83-3.6,13.98-3.42,21.29"/>
                <path class="cls-4" d="M325.98,752.44c0-5.87-.08-11.75.02-17.62.12-6.87-3.15-7.86-7.83-6.98-7.63,1.43-14.73,4.47-19.27,11.19-2.65,3.93-4.13,8.52-4.24,13.4"/>
                <path class="cls-4" d="M49.5,251.85c-.79,1.97-.62,4.13-1.43,6.13-2.19,5.41-5.94,9.55-10.33,13.18-3.88,3.21-8.08,6.09-10.96,10.32-2.02,2.95-3.58,6.2-5.4,9.29-1.02,1.73-2.11,3.42-3.47,4.85-3.27,3.44-7.54,3.99-11.94,3.37-1.19-.17-2.55-.21-3.68-.89"/>
                <path class="cls-4" d="M232.76,252.09c1.59,2.02,1.68,4.66,2.89,6.88,2.83,5.21,5.36,10.56,9.56,14.92,5.35,5.55,13.53,4.47,17.92-1.47,3.26-4.41,4.95-9.25,5.14-14.7.07-1.96.66-3.89.46-5.87"/>
                <path class="cls-4" d="M502.88,383.24c-5.31,1.59-10.35,3.63-14.45,7.57-4.42,4.24-5.51,9.75-1.66,15.4,2.82,4.13,5.46,8.36,7.24,13.02,1.05,2.74,2.03,5.49,3.49,8.05,1.35,2.37,2.95,4.5,5.38,5.87"/>
                <path class="cls-4" d="M451.5,252.09c4.3,4.11,9.64,6.89,13.96,10.99,2.83,2.69,4.46,6.02,5.88,9.55,1.2,2.97,2.86,5.7,6.34,6.32,1.58.28,3.28.24,4.88.02,6.76-.95,13.55-.21,20.31-.46"/>
                <path class="cls-4" d="M136.6,752.44c.98-3.94,1.68-7.9,1.48-11.99-.15-3.04-1.06-5.9-2.77-8.27-2.6-3.6-6.01-4.34-10.44-.76-5.75,4.65-7.47,10.77-5.8,17.82.23.97.06,2.06.64,2.96"/>
                <path class="cls-4" d="M2.28,741.92c4.33-.49,7.64-2.27,8.81-6.85.92-3.58,2.76-6.45,6.09-8.36,1.75-1,3.49-2.22,4.62-3.91.77-1.16,1.66-2.5.58-4.14-1.11-1.69-2.63-2.01-4.44-1.95-2.36.08-4.35,1.37-5.53,3.01-2.68,3.7-5.78,6.74-9.88,8.74"/>
                <path class="cls-4" d="M29.93,251.85c1.45,5.91,2,11.69-2.19,16.89-3.96,4.91-6.64,10.69-10.54,15.64-3.13,3.97-7.07,5.87-12.23,4.45-.83-.23-1.79-.03-2.68-.03"/>
                <path class="cls-4" d="M502.63,606.13c-8.45,3.03-13.01,9.49-15.97,17.59-1.29,3.52-.76,6.58,1.6,9.02,4.11,4.25,8.51,8.26,14.37,10.09"/>
                <path class="cls-4" d="M239.37,251.85c1.36,6.65,3.75,12.93,9.12,17.28,4,3.24,6.79,2.81,10.17-.44,3.39-3.26,4.32-7.64,4.73-12.19.13-1.47-.91-3.17.69-4.41"/>
                <path class="cls-4" d="M258.45,752.44c-.15-3.43.47-6.91-.51-10.27-.82-2.81-1.95-5.49-4.13-7.6-2.91-2.81-4.97-2.62-7.35.74-1.97,2.79-2.23,6.12-2.61,9.31-.31,2.57-.37,5.25.41,7.82"/>
                <path class="cls-4" d="M190.43,752.44c-2.27-4.28-6.3-6.56-10.3-8.77-3.15-1.75-6.35-3.47-9.77-4.67-4.35-1.53-8.15.33-10.05,4.63-1.26,2.85-1.26,5.82-1.2,8.82"/>
                <path class="cls-4" d="M2.28,696.9c3.19-.59,6.32-1.35,9.3-2.68,3.47-1.55,6.31-3.7,7.85-7.34.68-1.62,1.23-3.25-.07-4.62-1.3-1.37-3.1-1.21-4.86-.79-2.14.52-3.98,1.66-5.87,2.7-2.05,1.12-3.99,2.5-6.36,2.94"/>
                <path class="cls-4" d="M2.52,416.27c3.02-1.92,4.46-5,5.86-8.08,1.48-3.26,3.56-6.24,4.44-9.78.14-.57.44-1.09.48-1.72.31-4.94-.95-5.25-5.9-6.03-1.52-.24-3.44-.88-4.88.64"/>
                <path class="cls-4" d="M447.34,752.44c.53-3.24.83-6.52.46-9.78-.39-3.56-3.08-5.21-6.33-3.9-4.02,1.63-6.67,4.07-6.85,9.77-.04,1.3,0,2.61,0,3.91"/>
                <path class="cls-4" d="M17.2,251.85c.02,5.59-.18,11.18-1.51,16.63-1.09,4.48-3.5,8.04-8.29,9.28-1.67.43-3.42.52-5.13.76"/>
                <path class="cls-4" d="M2.52,548.88c3.38,3.13,5.98,6.78,7.85,11,2.58,5.83,1.66,12.34-2.21,15.68-1.38,1.19-2.92,1.99-4.66,2.41-.51.12-.89.19-.97.76"/>
                <path class="cls-4" d="M161.32,252.09c3.3,3.78,7.4,6.14,12.21,7.65,6.7,2.11,16.01-.57,18.16-6.91.1-.3.43-.75.95-.74"/>
                <path class="cls-4" d="M114.09,251.85c1.35,5.97,6.35,10.45,11.74,10.52,8.01.1,12.83-3.35,14.68-10.52"/>
                <path class="cls-4" d="M318.64,752.44c-.18-2.34-.68-4.6-1.97-6.6-1.76-2.72-5.07-3.91-8.33-1.26-2.48,2.01-3.25,4.81-4.13,7.61"/>
                <path class="cls-4" d="M2.52,361.95c.69,1.33,2.19,1.69,3.23,2.64,4.83,4.41,3.94,13.59-3.47,15.22"/>
                <path class="cls-4" d="M245.48,252.09c1.16.31.89,1.44,1.2,2.21.86,2.13,1.87,4.13,3.69,5.62,1.83,1.5,3.41,1.24,4.9-.73,1.66-2.18,1.6-4.86,2.19-7.35"/>
                <path class="cls-4" d="M2.52,341.89c.52,1.34,1.9,1.45,2.96,1.91,1.91.83,3.31,2.24,4.6,3.74,1.49,1.73,1.01,3.42-1.21,4.36-2.09.88-4.33,1.12-6.6,1"/>
                <path class="cls-4" d="M304.94,251.85c.67,1.96,1.65,3.79,2.96,5.36,2.68,3.21,6.14,2.97,8.53-.47,1.02-1.46,1.75-3.05,1.72-4.89"/>
                <path class="cls-4" d="M502.63,394.74c-1.79,1.14-3.27,2.43-3.96,4.63-1.18,3.79,1.08,6.52,2.47,9.57.47,1.02,1.89,1.51,1.61,2.93"/>
                <path class="cls-4" d="M502.63,496.52c-4.62,2.23-4.09,6.93-1.7,10.02.57.73.92,1.64,1.7,2.22"/>
                <path class="cls-4" d="M502.88,343.11c-2.67,2.16-2.67,4.08,0,6.85"/>
                <path class="cls-4" d="M130.98,252.09c-2.12,1.25-4.24.89-6.36,0"/>
                <path class="cls-4" d="M502.63,691.77c-1.79,1.86-1.78,2.03.24,3.67"/>
                <path class="cls-4" d="M310.56,529.06c-3.56,1.53-4.65,3.27-3.61,7.08,1.06,3.86,2.8,7.48,5.82,10.28,2.23,2.07,4.57,1.55,6.11-1.21,3.65-6.55-.92-15.58-8.08-16.15"/>
                <path class="cls-3" d="M282.18,545.21c-2.83,1.07-5.32,2.43-6.44,5.6-.32.92-.65,1.76-.65,2.72,0,1.63-.03,3.26,0,4.89.12,5.31-.08,10.61-.5,15.9-.28,3.63.89,6.75,3.17,9.55,2.56,3.15,4.96,6.43,5.88,10.51.44,1.94.26,3.9.04,5.87-.35,3.2-1.1,6.46,1.41,9.32,1.83,2.08,4.23,3.45,6.66,4.02,7.05,1.66,13.7,4.25,20.33,7.11,2.16.93,4.71,1.26,7.32.41,4.66-1.52,9.24-3.1,13.45-5.67,4.06-2.49,5.32-6.45,5.85-10.78.99-8.19-2.33-15.06-6.84-21.53-2.54-3.65-5.3-7.13-9.31-9.27-2.92-1.56-6.15-2.39-9.28-3.45-4.5-1.52-8.62-3.62-11.5-7.58-1.54-2.11-2.65-4.48-3.63-6.87-2.89-7.07-8.12-10.75-15.7-10.75"/>
                <path class="cls-3" d="M379.56,525.63c-2.29.56-4.64.87-6.85,1.72-4.78,1.83-8.64,5.08-12.46,8.33-4.11,3.5-8.67,6.29-13.74,8-9.14,3.1-12.43,8.76-12.68,18.65-.04,1.7-.25,3.43.2,5.14,1.49,5.62,6.46,9.34,12.25,9.58,6.92.29,12.6-1.96,16.59-7.66,1.85-2.64,2.37-5.94,3.21-9.02.76-2.79,1.81-5.41,3.42-7.84,2.28-3.44,6.52-4.99,11.03-4.17,2.68.48,5.3,1.28,8.07,1.28,2.55,0,4.7-.75,6.36-2.72,3.25-3.86,5.12-8.63,3.15-12.46-1.87-3.63-5.08-5.81-8.78-7.36-3.07-1.29-6.26-1.64-9.55-1.46"/>
                <path class="cls-3" d="M141.25,507.53c-.95.36-2.01.39-2.92.76-3.11,1.26-5.09,5.05-4.13,8.53,2.76,10.05,7.12,19.35,14.18,27.15,4.36,4.82,8.09,5.67,14.16,2.21,3.54-2.02,7.24-3.82,10.27-6.61,3.71-3.41,4.02-6.51.97-10.48-3.09-4.03-5.82-8.35-9.1-12.19-5.09-5.99-11.48-9.8-19.75-9.36-1.14.06-2.28,0-3.42,0"/>
                <path class="cls-4" d="M351.18,555.97c-1.33.55-2.71.94-3.45,2.43-1.07,2.15-.99,3.61.51,4.91,1.54,1.32,3.01,1.27,4.89-.25,1.39-1.12,2.04-2.63,1.95-4.4-.11-2.08-.96-2.66-3.66-2.69"/>
                <path class="cls-4" d="M112.87,558.42c-3.27,1.16-3.54,2.16-1.22,4.65,3.8,4.08,8.07,7.55,13.47,9.26,2.51.8,5.04.42,7.07-1.44,3.11-2.85,2.55-6.23-1.2-8.31-5.57-3.1-11.54-4.38-17.87-4.15"/>
                <path class="cls-3" d="M221.01,558.42c-1.44.93-3.11.38-4.66.69-4.25.83-7.63,3.37-11.23,5.45-7.06,4.06-13.8,8.67-21.52,11.54-3.74,1.39-4.81,5.07-5.88,8.51-1.09,3.5-1.66,7.17-1.86,10.77-.34,6.15-3.34,10.4-8.18,13.69-1.4.95-2.83,1.88-3.9,3.19-2.83,3.48-2.75,6.88.51,10.73,2.21,2.61,5.03,4.22,8.52,5,4.56,1.01,8.97,1.26,13.48-.06,3.31-.97,5.83-2.93,7.82-5.65,4.41-6.06,8.67-12.2,11.77-19.07,1.43-3.17,3.91-5.38,7.07-6.87,3.76-1.77,7.46-3.61,10.06-7.07,1.21-1.61,2.15-3.4,2.83-5.19,1.84-4.86,4.77-9.05,7.4-13.44,2.5-4.19,1.96-11.17-5.1-11.85-2.3-.22-4.58-.15-6.86-.37"/>
                <path class="cls-4" d="M15,502.15c-3.02,1.4-3.47,2.89-1.45,5.37,1.49,1.83,3.37,3.31,4.9,5.13,2.32,2.74,3.65,6.01,5.34,9.08,2.72,4.93,6.98,7.21,12.49,7.32,1.75.03,2.57-1.15,2.2-2.92-.95-4.55-3.85-7.75-7.35-10.51-3.65-2.88-7.08-5.97-9.79-9.79-1.49-2.1-3.29-3.75-6.11-3.67"/>
                <path class="cls-4" d="M302,498.97c-3.56.15-3.61,3.12-3.8,5.39-.17,2.08.14,4.29,1.04,6.38.74,1.73,1.87,2.22,3.49,2.17,5.96-.21,11.86-1.4,17.86-1,1.73.12,1.34-1.04.72-1.92-3.1-4.37-7.37-7.24-12.23-9.28-2.17-.91-4.44-1.62-6.84-1.74"/>
                <path class="cls-4" d="M454.92,576.77c-.58.32-1.48.56-.71,1.45.34.39,1.05.4,1.42,0,.59-.63.39-1.19-.47-1.45"/>
                <path class="cls-4" d="M436.33,495.78c-4.66,1.81-6.18,5.14-5.57,11,.48,4.62,2.46,8.73,6.34,11.46,4.69,3.31,8.71,1.39,10.98-3.14,3.16-6.3-1.1-15.64-5.88-18.58-1.73-1.06-3.71-.73-5.62-.75"/>
                <path class="cls-4" d="M313.99,586.8c-1.8.57-2.24,2.02-2.45,3.67-.68,5.31,1.16,10.69,5.89,12.21,2.04.66,4.23.55,6.08-.51,2.23-1.29,2.84-4.68,1.21-7.76-1.55-2.93-3.97-5.15-6.82-6.87-1.12-.68-2.38-.83-3.67-.74"/>
                <path class="cls-4" d="M435.35,488.44c-4.89,1.1-8.84,3.45-10.22,8.58-.81,3.01-.69,6.27-.2,9.27,1.28,7.69,4.65,14.33,11.14,19.12,4.09,3.02,9.93,2.88,13.77-.94,4.04-4.02,5.94-8.82,5.7-14.24-.19-4.24-1.75-8.33-3.55-12.24-1.78-3.89-4.52-6.89-8.34-8.77-2.53-1.25-5.35-.7-8.06-.77"/>
                <path class="cls-4" d="M84.49,602.46c-1.45.58-.63,1.45-.2,2.17.07.12.88.26,1.17-.22.55-.92.2-1.56-.73-1.95"/>
                <path class="cls-2" d="M329.65,515.85c-.92.15-1.22.5-.76,1.48.85,1.78,1.96,3.45,3.26,4.83,3.39,3.59,3.43,7.67,1.32,11.5-3.32,6.01-5.12,12.55-7.48,18.9-1,2.68-2.06,5.26-4.66,6.85-2.46,1.52-5.06,1.35-7.58.44-3.08-1.12-5.49-3.19-7.11-6.08-3.01-5.39-6.71-10.28-10.75-14.94-2.7-3.11-4.18-6.75-3.7-10.99.05-.4.07-.83,0-1.22-.38-2.01.24-4.65-2.22-5.55-2.52-.93-5.3-.62-7.51.97-1.8,1.29-3.28,3.01-3.99,5.31-1.8,5.82-5.4,10.59-9.27,15.18-2.97,3.53-5.06,7.42-4.92,12.23.04,1.41.27,2.85.6,4.14,1.49,5.76.85,11.41-.02,17.16-.58,3.88,0,7.79,2.15,11.23.94,1.49,1.99,2.91,2.92,4.41,2.49,4,1.84,8.23.97,12.48-.97,4.74.6,8.77,4.2,11.69,5.03,4.07,10.93,6.79,17.11,8.53,6.33,1.78,11.83,4.74,16.6,9.16,3.64,3.37,7.69,6,12.49,7.31,4.45,1.22,8.74.8,12.72-1.7,4.04-2.54,8.46-3.54,13.21-4,6.49-.63,13.05-1.01,19.34-3.07,3.62-1.19,6.51-3.63,9.74-5.47,1.9-1.08,3.85-2.11,5.7-3.3,4.46-2.87,4.58-7.22,4.01-11.55-.37-2.78-1.36-5.55-1.76-8.35-.54-3.81.6-7.47,2.62-10.74,2.15-3.47,4.87-6.51,7.57-9.55,4.99-5.62,3.13-9.6-3.67-11.51-3.28-.92-6.74-.61-10.03-1.46-1.29-.33-2.6-.6-3.67-1.47-1.91-1.57-2.63-3.67-1.96-5.63.81-2.37,2.72-3.51,5.38-3.71,3.49-.26,6.58,1.18,9.77,2.06,3.47.96,6.33-.08,8.26-2.58,3.92-5.08,6.82-10.84,9.08-16.84,1.66-4.41.14-8.64-2.72-11.9-5.35-6.1-11.75-10.86-19.98-12.56-6.95-1.44-13.81-.82-20.54,1.05-3.57,1-7.11,2.15-10.79,2.57-3.08.35-6.14-.46-9.03-1.46-3.96-1.38-7.97-2.52-12-3.63-.9-.25-1.79-.21-2.69-.23"/>
                <path class="cls-4" d="M422.62,614.21c-6.8,2.05-9.47,7.43-11.01,13.7-.82,3.33-.81,6.59,1.23,9.53,3.04,4.39,11.28,6.3,16.15,3.94,3.45-1.67,4.81-4.82,5.53-8.12.71-3.26.95-6.64,1.11-10.01.23-4.74-4.59-8.77-8.85-9.04-1.3-.08-2.61-.01-3.91-.01"/>
                <path class="cls-4" d="M445.87,470.09c-6.76,1.42-13.59,2.71-20.03,5.22-4.69,1.82-8.82,4.62-10.84,9.69-.83,2.08-1.25,4.23-1.38,6.38-.41,6.69.45,13.28,1.89,19.82.91,4.14,2.79,7.86,5.21,11.21,4.3,5.96,8.7,11.89,14.13,16.92,2.98,2.76,6.37,4.74,10.52,4.86,3.43.1,6.52-1.04,9.04-3.4,5.6-5.24,9.65-11.64,13.16-18.37,1.39-2.66,1.6-5.81,1.47-8.78-.23-5.14-.89-10.26-.67-15.42.08-1.96.46-3.89.54-5.87.18-4.41-1.69-7.43-5.43-9.56-3.87-2.21-7.68-4.51-10.79-7.79-.81-.85-1.42-1.83-2.19-2.71-1.16-1.33-2.56-2.22-4.4-2.2"/>
                <path class="cls-4" d="M132.44,624.97c-6.05,2.14-9.24,6.32-9.04,11.99.12,3.42,1.82,6.11,4.67,7.76,2.36,1.37,5.12.41,6.34-2.37.76-1.73,1.31-3.53,1.42-5.39.16-2.69,1.11-5.24.41-8.1-.55-2.23-1.65-3.25-3.56-3.88"/>
                <path class="cls-4" d="M394,441.71c-1.64.25-2.97,1.06-4.16,2.2-3.48,3.31-6.49,7.05-9.79,10.52-3.07,3.22-6.82,5.73-9.75,9.08-2.55,2.92-3.69,6.16-2.82,10.28.9,4.27,5.41,7.65,10.07,5,7.45-4.24,14.66-8.99,18.2-17.49,1.84-4.42,3.31-8.86,3.15-13.72-.11-3.52-1.56-5.37-4.65-5.87"/>
                <path class="cls-4" d="M266.52,640.14c-4.69,2.18-5.6,10.54-1.47,13.46,1.99,1.4,5.13.97,7.32-1.24,2.36-2.39,4.76-4.7,7.87-6.05.69-.3,1.35-.73,2.17-.86.36-.06,1.36-.25,1.22-1.14-.1-.64-.72-.86-1.21-.96-5.23-1.01-10.2-3.32-15.65-3.2"/>
                <path class="cls-4" d="M253.31,435.11c-5.09,1.8-6.63,3.92-6.61,9.05.02,4.42,2.22,6.49,6.61,6.11,5.49-.47,9.38-6.69,8.09-10.76-.93-2.93-3.44-4.4-7.84-4.4"/>
                <path class="cls-4" d="M55.13,433.15c-2.08.3-3.33,1.66-4.15,3.43-1.73,3.75-3.98,7.18-6.38,10.51-2.68,3.71-1.53,6.98,1.92,9.37,4.58,3.18,9.97,4.55,14.73,7.28,4.66,2.67,9.68,4.27,14.92,5.42,6.98,1.55,13.33,4.69,19.33,8.53,2.7,1.73,5.37,3.47,8.57,4.16,1.55.33,2.98,0,3.87-1.26.78-1.1.22-2.35-.47-3.38-.22-.33-.42-.7-.71-1-5.7-5.84-10.85-12.29-18.11-16.38-6.05-3.41-11.64-7.39-16.39-12.49-2.25-2.42-4.27-5.04-6.35-7.59-2.77-3.41-6.02-6-10.53-6.6"/>
                <path class="cls-4" d="M388.37,420.43c-4.18,1.3-4.37,4.99-4.59,8.32-.57,8.7-4.07,15.7-10.78,21.34-3.79,3.18-7.97,5.99-10.84,10.2-2.34,3.43-3.45,7.3-3.77,11.28-.21,2.56-.52,5.15-.25,7.83.45,4.42,2.78,7.05,6.52,8.49,4.69,1.81,9.58,2.79,14.66,1.54,2.14-.52,4.01-1.46,5.62-2.95,9.03-8.34,15.24-18.54,19.83-29.85,2.65-6.54,6.18-12.6,10.24-18.37,2.42-3.44,2.01-6.43-.96-9.28-1.49-1.43-3.2-2.47-5.14-3.19-3.69-1.36-7.46-2.41-11.25-3.44-2.99-.81-5.8-2.38-9.06-1.94"/>
                <path class="cls-4" d="M458.35,652.37c-1.27.32-2.41.98-3.4,1.74-2.51,1.92-2.99,5.47-1.24,8.53,1.61,2.82,3.13,5.7,4.71,8.53,2.76,4.9,7.15,7.38,12.89,7.68,4.44.23,5.3-3.09,4.85-5.92-.81-5.05-3.02-9.51-6.58-13.2-2.08-2.16-4.03-4.5-6.6-6.11-1.31-.82-2.78-1.35-4.39-1.24"/>
                <path class="cls-4" d="M476.94,415.53c-4.25.97-6.16,4.46-7.76,7.86-3.46,7.37-8.84,12.62-15.95,16.41-3.17,1.69-6.14,3.72-8.39,6.76-5.52,7.48-1.98,14.19,3.53,19.04,1.1.97,3.08.52,4.57.04,4.03-1.29,7.84-3.13,11.98-4.2,4.93-1.27,9.87-1.77,14.94-2,3.74-.17,7.6.09,11.27-1.32,4.27-1.64,6.45-4.32,4.42-9.83-1.23-3.34-3.15-6.27-4.95-9.27-2.82-4.71-3.71-10.01-5.16-15.17-1.18-4.2-3.29-7.77-8.27-8.33"/>
                <path class="cls-3" d="M221.5,656.78c-2.74.57-5.41,1.6-7.53,3.26-4.87,3.82-6.1,7.33-4.13,14.09,1.15,3.95,2.6,7.84,3.76,11.79,1.39,4.72,4.33,7.73,8.89,8.98,5.19,1.43,9.49,4.05,12.96,8.12.45.53.9,1.09,1.47,1.46,4.62,2.95,6.97,4.11,12.26.07,1.59-1.21,3.03-2.55,4.34-3.99,3-3.31,2.75-7.16,1.8-11.24-1.02-4.38-2.61-8.34-6.18-11.23-4.98-4.02-8.7-9.13-12.47-14.2-1.25-1.68-2.82-3.04-4.38-4.43-3.08-2.72-6.75-2.87-10.54-2.67"/>
                <path class="cls-4" d="M130,398.89c-.73.24-1.63.3-2.17.77-1.13.98-2.48,1.95-1.76,3.88.73,1.97,2.6,3.38,4.67,3.15,1.21-.13,2.41-.54,3.41-1.23,1.07-.73,1.49-1.96,1.19-3.15-.36-1.46-1.34-2.63-2.9-2.9-.76-.13-1.42-.57-2.19-.54"/>
                <path class="cls-3" d="M127.06,377.85c-4.41,2.03-8.67,4.42-13.23,6.06-3.34,1.2-4.11,3.97-4.02,6.66.19,5.85-.93,11.57-1.14,17.37-.11,3.03.89,5.48,3.26,7.05,5.98,3.94,12.35,6.13,19.8,5.07,4.1-.58,8.04-2.02,12.21-2.11,2.8-.06,5.33.75,7.57,2.25,3.98,2.68,7.9,5.35,12.74,6.37,5.19,1.09,10.41,1.32,15.67,1.17,2.35-.07,4.07-1.56,4.08-4.14.02-4.32-.13-8.67-2.09-12.74-1.53-3.18-4.2-4.39-7.38-4.59-3.33-.21-6.69-.1-10.03-.03-1.99.04-3.99-.28-5.85-.64-3.05-.6-5.67-2.3-7.65-4.98-3.11-4.19-5.94-8.66-9.79-12.22-3.56-3.29-6.7-7.04-10.7-9.86-1.05-.74-2.1-.66-3.21-.7"/>
                <path class="cls-4" d="M164.74,360.24c-2.58.85-5.28.88-7.88,2.09-6.74,3.15-8.36,11.72-4.61,17.73,2.52,4.05,5.62,7.28,10.53,8.33,5.02,1.07,11.39-1.02,13.26-6.85,1.91-5.93,1.53-11.66-.55-17.38-.77-2.11-2.68-3.18-4.64-3.32-1.96-.14-3.88-.75-5.86-.6"/>
                <path class="cls-3" d="M380.05,672.93c-6.29,1.78-12.36,4.02-17.62,8.07-3.25,2.5-5.28,5.63-5.64,9.79-.25,2.92.84,4.74,4.18,5.87,3.57,1.21,7.29,1.8,11.01,2.16,3.47.33,6.76-.9,9.23-3.2,3.71-3.45,6.35-7.64,8.01-12.62,1.66-4.98-2.9-10.94-7.94-10.08-.32.05-.65,0-.98,0"/>
                <path class="cls-4" d="M314.48,348c-6.98,3.41-11.52,8.97-14.18,16.15-1.1,2.97.71,6.9,5.12,6.87,4.41-.03,8.52-1.48,12.72-2.5,1.24-.3,2.5-.48,3.7-1.15,3.72-2.07,5.09-4.79,3.61-8.6-1.86-4.79-4.58-8.93-9.76-10.77-.29-.1-.65-.01-.97-.01"/>
                <path class="cls-4" d="M144.68,336.26c-1.39.49-2.92.95-3.87,1.99-4.38,4.78-9.34,8.57-15.42,11.06-4.16,1.7-7.32,5.06-9.76,8.77-2.89,4.41-7.16,5.4-11.81,5.55-8.55.26-15.13,3.66-19.34,11.28-1.03,1.86-2.13,3.68-3.39,5.4-2,2.72-4.51,3.69-7.86,2.98-1.56-.33-3.28-.25-4.87,0-1.79.28-3.36,1.08-3.94,3.12-.76,2.68-.45,5.15,1.26,7.33,2.98,3.82,7.2,5.5,11.73,6.63,1.87.46,3.75.94,5.64,1.16,3.36.4,4.91,2.38,5.63,5.43,1.13,4.78,2.89,9.29,5.04,13.74,3.31,6.85,8.91,9.64,15.99,9.94,6.19.26,12.39.1,18.59.03,2.88-.03,5.77-.53,8.54-1.08,5.13-1.01,9.86-.08,14.44,1.88,4.42,1.9,8.96,3.49,13.5,5.03,7.84,2.66,13.67,7.36,17.15,14.96.79,1.73,2.15,3.18,3.33,4.71,4.16,5.37,11.91,3.02,14.29-3.2,1.83-4.78,1.09-9.3-.26-13.98-2.29-7.92-2.3-15.86.44-23.73.37-1.06.97-1.89,1.71-2.7,1.13-1.24,2.31-1.17,3.69-.49,2.24,1.11,4.02,2.82,5.85,4.44,6.28,5.56,13.09,10.49,19.12,16.35,5.33,5.18,5.98,11.55,5.09,18.37-.28,2.18-.88,4.29-1.65,6.38-.86,2.34-2.19,3.91-4.67,4.7-1.65.53-3.34,1.05-4.95,1.82-2.13,1.02-3.19,2.64-3.6,4.73-.46,2.35.42,4.41,2.18,5.09,2.14.83,4.27.34,6.08-.97,1.31-.95,2.4-2.23,3.18-3.65,1.72-3.13,4.63-4.26,7.85-4.87,7.65-1.45,14.93-4.15,22.24-6.69,3.97-1.38,6.4-4.4,7.45-8.72.99-4.07,1.05-7.99.16-12.01-1.54-6.96-6.96-9-12.97-10.26-3.1-.65-6.21-1.27-9.31-1.87-5.25-1.02-8.95-3.98-12.23-7.91-5.53-6.62-11.91-12.18-20.3-14.91-3.1-1.01-6.35-1.54-9.54-2.18-4.68-.94-8.02-3.74-10.98-7.16-.8-.92-1.62-1.8-2.46-2.68-3.47-3.61-3.75-2.84-7.06-.2-3.3,2.63-6.71,4.93-10.8,6.06-10.06,2.78-18.05-.26-24.24-8.54-2.08-2.78-3.92-5.64-5.41-8.8-3.55-7.56.97-20.16,8.82-23.58,2.2-.96,4.51-1.92,6.41-3.58,3.46-3.01,3.64-5.84.41-9.75-3.05-3.7-7.44-5.13-12.17-5.43-.89-.06-1.79,0-2.69,0"/>
                <path class="cls-3" d="M442.2,683.69c-3.56,1.26-5.98,4.5-6.1,8.32-.05,1.55-.37,3.19.26,4.63,1,2.3,4.13,3.41,6.56,2.45,3.06-1.21,5.41-3.33,7.08-6.12,1.43-2.39.94-5.43-1.23-7.05-1.83-1.37-3.81-2.69-6.34-2.24"/>
                <path class="cls-3" d="M314.48,333.32c-3.93.88-6.34,3.58-8.33,6.85-3.16,5.19-6.95,9.89-11.5,13.95-8.26,7.37-6.27,17.79-.22,24.69,6.27,7.15,14.89,9.98,23.72,12.21,2.93.74,5.93,1.3,8.84-.64,1.49-.99,2.31-2.41,3.08-3.76,3.44-5.98,6.12-12.31,7.61-19.06,1.29-5.84.23-10.97-4.56-15.22-4.13-3.67-7.33-8.19-9.86-13.14-.58-1.15-1.36-2.18-2.16-3.21-1.66-2.11-3.73-3.04-6.39-2.67"/>
                <path class="cls-2" d="M140.27,325.49c-5.16,1.35-9.01,4.89-12.9,8.15-3.22,2.7-6.73,4.81-10.37,6.72-3.2,1.68-6.02,3.86-7.96,6.72-4.38,6.43-10.86,8.69-17.95,9.66-5.14.71-10.15,1.6-14.93,3.71-3.68,1.62-7.03.95-9.78-2.16-2.94-3.33-6.56-5.36-10.99-6.19-2.62-.49-5.07.17-7.31.92-4.03,1.33-7.99,3.03-11.55,5.5-4.75,3.29-5.39,9.18.72,12.05,2.23,1.05,4.58,1.79,6.89,2.31,6.48,1.44,9.13,5.89,9.72,11.84.98,10.01,6.18,16.85,14.97,21.3,2.41,1.22,4.75,2.57,7.11,3.9,5.22,2.93,8.01,7.9,10.47,12.99,2.75,5.68,6.47,10.39,12.06,13.4,3.01,1.62,6.29,2.44,9.76,2.78,8.56.85,17.14.11,25.69.48,2.72.12,5.45.58,8.07,1.43,5.57,1.81,7.02,6.39,7.86,11.49.57,3.49,1.46,6.95,2.69,10.27,2.52,6.76,8.05,9.76,14.64,11.56,5.39,1.47,10.59.76,15.93-.21,4.74-.86,9.57-1.4,14.43-.36,2.21.47,3.41,1.7,4.17,3.7.87,2.29,1.56,4.68,3.17,6.61,3.11,3.75,7.37,5,11.98,5.38,6.82.57,12.92-2.09,19.08-4.4,5.16-1.93,9.51-4.86,13.04-9.24,2.83-3.51,6.86-5.53,11.43-5.88,3.5-.27,6.8,1.01,10.01,2.2,5.24,1.93,9.51,5.45,13.73,9,1.38,1.16,2.85,2.74,4.85,1.68,1.94-1.02,2.08-3.11,2.24-5.09.66-8.25-2.73-15.3-7.2-21.71-4.96-7.13-7.86-14.88-9.49-23.3-.95-4.91-3.83-8.35-8.77-9.79-3.64-1.06-7.24-2.26-10.76-3.69-4.74-1.92-7.87-5.8-10.95-9.58-1.79-2.19-3.86-3.97-6.21-5.27-6.1-3.37-12.04-7.06-18.34-10.04-3.89-1.84-7.99-3.27-11.7-5.46-4.45-2.63-7.46-6.49-9.11-11.46-.65-1.96-1.43-3.9-1.87-5.9-1.38-6.28-5.56-9.3-11.55-10.22-1.29-.2-2.6-.44-3.9-.62-3.27-.47-5.78-1.86-6.98-5.51-1-3.04-2.28-6.03-3.29-9.1-1.87-5.69-4.89-10.38-10.26-13.5-4.44-2.58-8.75-5.36-13.74-6.78-2.15-.61-4.4-.17-6.6-.27"/>
                <path class="cls-4" d="M439.75,316.68c-3.55,1.07-7.01,2.31-10.31,4.09-2.64,1.42-4.76,3.26-6.29,5.72-1.9,3.05-2.05,8.19.95,11.23,1.09,1.11,2.11,2.32,3.43,3.17,4.63,3,5.9,7.75,6.57,12.74.67,5,3.25,6.94,7.63,7.47,3.03.37,6.16.26,9.3-.3,6.42-1.16,13.01-8.69,12.97-16.71-.02-4.02-2.27-6.99-4.7-9.75-2.96-3.36-5.56-6.89-7.36-11.02-.48-1.1-1.16-2.19-1.86-3.23-2.53-3.75-6.28-3.56-10.07-3.4"/>
                <path class="cls-4" d="M482.32,309.83c-1.41.51-3.08,1.07-2.61,2.91.33,1.27,1.93,1.46,3.08,1.19,1.24-.3,3.23-.18,3.13-2.14-.1-1.97-1.84-1.98-3.36-1.96"/>
                <path class="cls-4" d="M287.57,309.83c-1.09.37-2.54.69-2.14,2.18.45,1.67,1.78,2.84,3.61,2.91,1.42.05,2.79-.19,3.47-1.9.45-1.12-.23-1.58-.81-1.94-1.17-.72-2.39-1.49-3.89-1.26"/>
                <path class="cls-3" d="M254.29,309.83c-6.47,1.46-8.87,7.85-9.48,13.22-.51,4.55.32,8.89,3.59,12.49,1.69,1.86,3.77,3.18,5.91,4.36,4.92,2.71,9.33,6.15,13.96,9.29,1.9,1.29,4.09,2.31,6.58,1.51,3.06-.97,5.39-4.41,5.64-8.07.28-4.13-1.03-7.51-3.89-10.56-3.92-4.18-7.93-8.32-11.04-13.18-1.68-2.62-3.94-4.71-6.15-6.82-1.33-1.26-2.91-2.22-4.87-2.23"/>
                <path class="cls-4" d="M255.27,300.54c-9.32,1.95-13.01,9.13-15.31,17.16-1.44,5.03-2.05,10.33-2.06,15.63,0,3.73,1.16,7.18,4.21,9.22,6.27,4.19,12.26,8.64,17.6,13.99,3.03,3.04,7.04,4.78,11.01,6.04,6.07,1.94,9.95,5.92,12.69,11.36,4.99,9.9,12.7,17.31,21.52,23.75,2.38,1.73,5.15,2.31,7.85,3.15,3.11.98,6.11,2.13,8.57,4.41,3.23,2.99,3.74,6.74,2.9,10.77-.66,3.16-1.35,6.29-1.2,9.55.25,5.56,1.5,10.81,5.17,15.15,3.48,4.11,8.3,5.52,12.74.79,4.58-4.88,6.54-10.78,7.55-17.16.41-2.6.44-5.21.52-7.83.13-4.5-.84-8.73-2.19-12.98-1.43-4.52-3.23-9-2.78-13.94.11-1.21.33-2.35.8-3.41,1.34-3.01,3.55-3.74,6.58-2.2,3.32,1.69,6.62,3.24,10.53,3.21,5.72-.05,10.58-2.01,14.67-5.92,2.42-2.31,4.58-4.91,7.14-7.04,3.75-3.12,4.33-6.81,3.21-11.32-.86-3.48-.75-7.19.73-10.48,3.1-6.92,4.24-14.38,6.14-21.6,1.35-5.13-.97-6.7-5.7-5.51-6.88,1.73-13.83,1.77-20.81,1.61-2.53-.06-4.57.8-6.36,2.47-2.34,2.17-4.31,4.67-6.36,7.1-4.11,4.87-9.47,6.81-15.65,6.05-4.18-.51-6.48-3.72-8.03-7.3-1.12-2.59-1.9-5.34-2.77-8.04-1.82-5.66-6.74-6.77-10.98-5.89-5.68,1.18-10.42,4.28-15.14,7.4-.98.65-1.99,1.26-2.95,1.93-2.39,1.68-5.01,1.76-7.32.41-5.66-3.3-11.55-6.37-15.92-11.45-2.86-3.34-4.83-7.34-7.62-10.74-3.35-4.09-6.9-7.95-12.71-8.33"/>
                <path class="cls-4" d="M220.04,300.54c-3.78.77-7.21,2.22-10.3,4.62-2.96,2.29-4.61,5.2-4.06,8.83.58,3.77,2.87,6.36,6.77,7.37,3.83,1,8.83-1.06,10.99-4.93,1.89-3.39,2.66-7.13,2.19-10.99-.37-3.02-2.46-4.47-5.35-4.9"/>
                <path class="cls-3" d="M60.51,288.79c-4.57,1.28-9.14,2.36-13.94,2.5-4.59.13-8.38,2.08-11.29,5.8-2.33,2.97-4.82,5.8-6.35,9.31-.38.88-.79,1.78-.93,2.7-.78,5.17,2.61,7.39,7.56,6.86,4.37-.47,7.63-3.06,10.45-5.96,3.25-3.35,7.21-5.46,11.11-7.72,3.29-1.9,5.94-4.24,7.33-7.86,1.35-3.53.16-5.41-3.68-5.63"/>
                <path class="cls-3" d="M113.85,279.01c-3.71.87-6.45,3.37-9.28,5.65-3.47,2.79-6.92,5.62-9.56,9.28-1.51,2.1-1.43,3.74.5,5.37,3.38,2.86,7.35,2.72,11.23,1.66,3.91-1.07,7.7-2.57,11.28-4.57,6.53-3.65,6.12-12.8.46-16.62-1.25-.84-2.85-.91-4.38-.77"/>
                <path class="cls-4" d="M433.88,270.2c-2.9.77-5.81,1.25-8.13,3.62-3.07,3.14-4.31,6.92-4.81,11.06-.28,2.35-.93,4.65-.09,7.11,1.01,2.96,2.65,4.38,5.68,4.66,6.99.64,13.89-.23,20.8-1.02,3.4-.39,5.31-2.67,5.4-6.11.09-3.39-.47-6.73-1.06-10.02-.84-4.73-4.77-7.83-10.21-8.85-2.45-.46-4.89-.45-7.35-.46"/>
                <path class="cls-4" d="M152.26,522.45c-.65.29-1.29.62-1.21,1.47.1,1.17.53,2.25,1.72,2.65.58.19,1.35.22,1.72-.68.5-1.22.24-2.21-.78-2.9-.32-.21-.63-.76-1.2-.53"/>
                <path class="cls-4" d="M435.84,481.59c-3.24.78-6.57,1.18-9.56,2.91-3.86,2.23-6.29,5.46-6.79,9.82-1.4,12.18,1.99,22.87,10.19,32.08,2.55,2.87,5.21,5.66,8.64,7.22,5.85,2.66,10.87,1.87,15.33-2.9,3.74-3.99,6.43-8.75,7.58-14.16.79-3.71.42-7.53-.24-11.24-.56-3.13-1.18-6.29-2.22-9.29-2.93-8.47-12.89-15.36-21.48-14.46-.4.04-.82,0-1.22,0"/>
              </g>
              <g>
                <circle class="cls-7" cx="160.53" cy="535.6" r="6.75"/>
                <circle class="cls-7" cx="143.66" cy="516.4" r="6.75"/>
              </g>
              <circle class="cls-7" cx="216.71" cy="520.01" r="5.06"/>
              <g>
                <circle class="cls-7" cx="196.37" cy="325.45" r="3.38"/>
                <circle class="cls-7" cx="215.23" cy="314.02" r="5.06"/>
                <circle class="cls-7" cx="213.54" cy="329.95" r="1.69"/>
                <circle class="cls-7" cx="191.31" cy="335.43" r="1.69"/>
              </g>
              <circle class="cls-7" cx="465.21" cy="372.47" r="1.69"/>
              <g>
                <circle class="cls-7" cx="389.25" cy="357.42" r="5.06"/>
                <circle class="cls-7" cx="375.2" cy="357.42" r="1.69"/>
                <circle class="cls-7" cx="395.16" cy="370.78" r="1.69"/>
              </g>
              <circle class="cls-7" cx="258.47" cy="592" r="1.69"/>
              <circle class="cls-7" cx="250.8" cy="753.53" r="6.75"/>
              <g>
                <circle class="cls-7" cx="401.91" cy="399.56" r="1.69"/>
                <circle class="cls-7" cx="398.53" cy="411" r="3.38"/>
              </g>
              <g>
                <circle class="cls-7" cx="304.74" cy="280.09" r="5.06"/>
                <circle class="cls-7" cx="319.45" cy="288.53" r="3.38"/>
              </g>
              <circle class="cls-7" cx="485.76" cy="592" r="1.69"/>
              <g>
                <circle class="cls-7" cx="254.27" cy="439.83" r="1.69"/>
                <circle class="cls-7" cx="237.82" cy="434.47" r="1.69"/>
                <circle class="cls-7" cx="248.87" cy="431.09" r="1.69"/>
                <circle class="cls-7" cx="241.2" cy="455.23" r="1.69"/>
              </g>
              <g>
                <circle class="cls-7" cx="127.88" cy="397.5" r="10.13"/>
                <circle class="cls-7" cx="96.41" cy="394.13" r="6.75"/>
                <circle class="cls-7" cx="102.84" cy="414.38" r="1.69"/>
                <circle class="cls-7" cx="136.32" cy="357.42" r="1.69"/>
              </g>
              <circle class="cls-7" cx="321.12" cy="590.32" r="5.06"/>
              <g>
                <circle class="cls-7" cx="393.47" cy="446.98" r="1.69"/>
                <circle class="cls-7" cx="373.52" cy="471.37" r="5.06"/>
              </g>
              <g>
                <circle class="cls-7" cx="219.56" cy="669.72" r="3.38"/>
                <circle class="cls-7" cx="242.88" cy="693.7" r="3.38"/>
                <circle class="cls-7" cx="225.08" cy="689.41" r="3.38"/>
                <circle class="cls-7" cx="229.8" cy="669.72" r="1.69"/>
              </g>
              <g>
                <circle class="cls-7" cx="382.01" cy="682.14" r="5.06"/>
                <circle class="cls-7" cx="357.12" cy="676.47" r="3.38"/>
                <circle class="cls-7" cx="344.5" cy="693.7" r="5.06"/>
                <circle class="cls-7" cx="334.49" cy="677.52" r="1.69"/>
              </g>
              <use width="6" height="6" transform="translate(299.67 499.74) scale(2.12)" xlink:href="#square"/>
              <g>
                <use width="6" height="6" transform="translate(161.7 456.64) scale(1.06)" xlink:href="#square"/>
                <use width="6" height="6" transform="translate(173.11 458.51) scale(1.06)" xlink:href="#square"/>
                <use width="6" height="6" transform="translate(158.51 446.98) scale(1.06)" xlink:href="#square"/>
              </g>
              <use width="6" height="6" transform="translate(285.53 497.31) scale(1.06)" xlink:href="#square"/>
              <g>
                <use width="6" height="6" transform="translate(164.9 367.94) scale(1.59)" xlink:href="#square"/>
                <use width="6" height="6" transform="translate(179.77 368.22) scale(1.59)" xlink:href="#square"/>
                <use width="6" height="6" transform="translate(178.17 379.43) scale(.53)" xlink:href="#square"/>
                <use width="6" height="6" transform="translate(163.31 382.81) scale(.53)" xlink:href="#square"/>
              </g>
              <g>
                <use width="6" height="6" transform="translate(252.9 322.08) scale(3.19)" xlink:href="#square"/>
                <use width="6" height="6" transform="translate(254.55 345.07) scale(1.59)" xlink:href="#square"/>
                <use width="6" height="6" transform="translate(252.95 315.42) scale(.53)" xlink:href="#square"/>
                <use width="6" height="6" transform="translate(268.04 317.02) scale(.53)" xlink:href="#square"/>
                <use width="6" height="6" transform="translate(287.5 310.83) scale(.53)" xlink:href="#square"/>
                <use width="6" height="6" transform="translate(278.37 326.86) scale(1.59)" xlink:href="#square"/>
              </g>
              <g>
                <use width="6" height="6" transform="translate(101.02 675.33) scale(3.19)" xlink:href="#square"/>
                <use width="6" height="6" transform="translate(131.03 676.02) scale(.53)" xlink:href="#square"/>
                <use width="6" height="6" transform="translate(126.73 687.99) scale(.53)" xlink:href="#square"/>
                <use width="6" height="6" transform="translate(115.12 664.98) scale(1.59)" xlink:href="#square"/>
              </g>
              <g>
                <circle class="cls-7" cx="99.47" cy="514.08" r="5.06"/>
                <circle class="cls-7" cx="112.62" cy="533.91" r="1.69"/>
                <circle class="cls-7" cx="76.58" cy="519.15" r="1.69"/>
                <use width="6" height="6" transform="translate(75.08 500.68) scale(1.06)" xlink:href="#square"/>
                <use width="6" height="6" transform="translate(114.4 519.24) scale(.53)" xlink:href="#square"/>
              </g>
              <use width="6" height="6" transform="translate(331.21 510.9) scale(.53)" xlink:href="#square"/>
              <use width="6" height="6" transform="translate(312.89 495.71) scale(.53)" xlink:href="#square"/>
              <use width="6" height="6" transform="translate(300.08 516.82) scale(.53)" xlink:href="#square"/>
              <g>
                <use width="6" height="6" transform="translate(418.72 625.28) scale(2.12)" xlink:href="#square"/>
                <use width="6" height="6" transform="translate(425.28 604.01) scale(1.06)" xlink:href="#square"/>
                <use width="6" height="6" transform="translate(403.69 615.22) scale(.53)" xlink:href="#square"/>
                <use width="6" height="6" transform="translate(421.81 615.22) scale(.53)" xlink:href="#square"/>
                <use width="6" height="6" transform="translate(398.72 632.87) scale(1.06)" xlink:href="#square"/>
              </g>
              <g>
                <use width="6" height="6" transform="translate(451.21 490.28) scale(.56)" xlink:href="#Cross"/>
                <use width="6" height="6" transform="translate(423.41 486.91) scale(.56)" xlink:href="#Cross"/>
                <use width="6" height="6" transform="translate(444.47 473.06) scale(.56)" xlink:href="#Cross"/>
                <use width="6" height="6" transform="translate(438.48 503.26) scale(1.69)" xlink:href="#Cross"/>
                <use width="6" height="6" transform="translate(441.1 528.06) scale(1.13)" xlink:href="#Cross"/>
                <use width="6" height="6" transform="translate(433.41 490.28) scale(1.13)" xlink:href="#Cross"/>
              </g>
              <g>
                <use width="6" height="6" transform="translate(223.75 562.72) scale(.56)" xlink:href="#Cross"/>
                <use width="6" height="6" transform="translate(186.25 564.41) scale(.56)" xlink:href="#Cross"/>
                <use width="6" height="6" transform="translate(182.78 580.19) scale(3.38)" xlink:href="#Cross"/>
                <use width="6" height="6" transform="translate(176.95 611.84) scale(1.13)" xlink:href="#Cross"/>
                <use width="6" height="6" transform="translate(163.91 597.07) scale(1.13)" xlink:href="#Cross"/>
                <use width="6" height="6" transform="translate(204.89 576.82) scale(1.13)" xlink:href="#Cross"/>
              </g>
              <g>
                <use width="6" height="6" transform="translate(308.58 374.41) scale(.56)" xlink:href="#Cross"/>
                <use width="6" height="6" transform="translate(301.92 381.02) scale(.56)" xlink:href="#Cross"/>
                <use width="6" height="6" transform="translate(315.33 382.71) scale(.56)" xlink:href="#Cross"/>
                <use width="6" height="6" transform="translate(310.27 335.62) scale(1.69)" xlink:href="#Cross"/>
                <use width="6" height="6" transform="translate(320.24 369.35) scale(1.13)" xlink:href="#Cross"/>
                <use width="6" height="6" transform="translate(311.95 348.98) scale(1.13)" xlink:href="#Cross"/>
                <use width="6" height="6" transform="translate(301.92 362.34) scale(1.13)" xlink:href="#Cross"/>
              </g>
            </g>
          </g>
        </g>
        <g>
          <path class="cls-5" d="M476.01,528.74c0-1.98,1.08-2.88,2.88-2.88h7.56c1.8,0,3.06.9,3.06,2.88.18,14.22,9.54,19.44,25.02,19.44h9.36c15.3,0,23.94-5.76,23.94-21.96,0-17.1-10.44-20.88-25.74-23.76l-7.92-1.44c-21.06-3.78-36.9-8.28-36.9-36,0-23.22,14.04-32.22,37.08-32.22h8.28c22.68,0,35.82,10.26,35.82,32.58,0,1.98-1.08,2.88-2.88,2.88h-7.56c-1.8,0-3.06-.9-3.06-2.88-.18-14.76-8.28-20.16-23.04-20.16h-7.2c-15.12,0-23.94,4.68-23.94,20.16,0,17.1,9,21.06,23.58,23.76l7.74,1.44c21.96,3.96,39.24,8.46,39.24,35.64,0,23.94-13.14,34.38-36.36,34.38h-11.34c-24.12,0-37.62-9.54-37.62-31.86Z"/>
          <path class="cls-5" d="M582.39,589.22v-117.18c0-1.62.54-2.34,2.34-2.34h8.46c1.62,0,2.34.72,2.34,2.34v7.38h1.44c4.14-6.48,11.52-10.44,22.14-10.44h5.4c19.98,0,30.6,10.44,30.6,30.42v30.78c0,19.98-10.62,30.42-30.6,30.42h-5.4c-10.62,0-18-4.14-22.14-10.62h-1.44v39.24c0,1.62-.72,2.34-2.34,2.34h-8.46c-1.8,0-2.34-.72-2.34-2.34ZM614.6,548.54h8.1c12.78,0,19.44-6.84,19.44-19.44v-28.8c0-12.42-6.66-19.26-19.44-19.26h-8.1c-12.42,0-19.08,7.02-19.08,19.08v29.34c0,12.06,6.66,19.08,19.08,19.08Z"/>
          <path class="cls-5" d="M732.32,557.36v-11.16h-1.8c-6.3,8.1-15.66,14.4-29.16,14.4h-1.08c-19.26,0-27.54-9.72-27.54-26.46v-4.68c0-16.2,10.08-22.68,27.72-22.68h31.86v-7.2c0-12.06-4.68-18.72-23.4-18.72-9.18,0-17.82,1.08-23.76,3.06-1.26.36-2.34-.18-2.52-1.44l-1.26-6.84c-.36-1.26.18-2.16,1.26-2.52,5.58-2.16,15.48-4.14,27.54-4.14h3.6c22.32,0,31.68,10.62,31.68,29.7v58.68c0,1.62-.72,2.34-2.34,2.34h-8.46c-1.8,0-2.34-.72-2.34-2.34ZM702.08,548.72h6.3c13.32,0,23.94-10.26,23.94-20.52v-11.16h-30.42c-10.26,0-16.2,2.88-16.2,13.32v3.06c0,10.98,5.76,15.3,16.38,15.3Z"/>
          <path class="cls-5" d="M766.52,529.82v-30.06c0-19.44,11.34-30.78,31.86-30.78h8.46c19.44,0,30.96,10.26,30.96,27.54v1.08c0,1.44-.72,2.34-2.34,2.34h-8.1c-1.8,0-2.34-.9-2.34-2.34v-1.08c0-9.72-6.66-15.48-18.36-15.48h-8.1c-12.42,0-18.9,6.84-18.9,18.9v29.16c0,12.42,6.84,19.8,22.68,19.8h1.26c13.5,0,18.18-2.7,22.14-9,.9-1.44,1.8-2.16,4.14-1.08l5.04,2.34c1.98.9,2.16,1.98,1.44,3.6-5.04,10.44-14.94,15.84-32.76,15.84h-1.62c-24.3,0-35.46-11.52-35.46-30.78Z"/>
          <path class="cls-5" d="M856.16,529.82v-30.06c0-19.44,11.16-30.78,31.68-30.78h8.64c20.7,0,31.68,11.16,31.68,30.42v15.12c0,3.6-2.16,5.76-5.76,5.76h-53.1v9.36c0,11.52,6.84,19.62,22.68,19.62h1.8c12.78,0,19.44-2.88,24.66-6.3,1.08-.72,2.16-.54,2.7.36l3.24,4.5c.72,1.08.72,1.98,0,2.52-5.22,5.4-16.38,10.26-30.96,10.26h-1.98c-24.48,0-35.28-11.88-35.28-30.78ZM915.02,510.02v-10.44c0-11.88-6.12-18.54-18.9-18.54h-7.92c-12.42,0-18.9,6.84-18.9,18.9v10.08h45.72Z"/>
        </g>
      </g>
    </g>
  </g>
</svg>