<?xml version="1.0" encoding="UTF-8"?>
<svg id="wordmark" xmlns="http://www.w3.org/2000/svg" xmlns:xlink="http://www.w3.org/1999/xlink" viewBox="0 0 870 190">
  <defs>
    <style>
      .cls-1, .cls-2, .cls-3, .cls-4 {
        fill: none;
      }

      .cls-2 {
        stroke-width: 2px;
      }

      .cls-2, .cls-3, .cls-4 {
        stroke: #fff;
        stroke-linecap: round;
        stroke-linejoin: round;
      }

      .cls-5 {
        fill: #020617;
      }

      .cls-3 {
        stroke-width: 3px;
      }

      .cls-6 {
        opacity: .5;
      }

      .cls-7 {
        fill: #94a3b8;
      }

      .cls-8 {
        clip-path: url(#clippath);
      }
    </style>
    <symbol id="Cross" viewBox="0 0 6 6">
      <polygon class="cls-7" points="6 2 6 4 4 4 4 6 2 6 2 4 0 4 0 2 2 2 2 0 4 0 4 2 6 2"/>
    </symbol>
    <symbol id="Space" viewBox="0 0 892.5 905.31">
      <g>
        <g id="topo">
          <path class="cls-4" d="M890.57,419.91c-8.45,1.46-15.92,4.61-21.8,11.26-5.49,6.22-7.28,13.13-4.65,20.89,1.22,3.59,2.9,7.06,4.61,10.51,5.84,11.82,7.22,15.59-1.75,24.65-10.11,10.22-16.8,23.32-27.8,32.64-6.92,5.86-13.72,11.87-19.37,18.89-3.37,4.19-7.16,7.32-11.9,9.41-4.12,1.82-8.63,2.34-13.02,1.7-8.24-1.19-16.47-2.17-24.8-2.62-5.23-.28-10.48-.58-15.68-1.57-3.71-.71-5.4-2.7-6.6-6.14-2.3-6.6-3.99-13.38-5.84-20.08-3.16-11.45-8.82-21.3-16.18-30.46-3.3-4.11-7.05-7.76-10.57-11.63-8.35-9.2-10.84-20.69-13.46-32.23-3.08-13.55.95-26.14,5.88-38.21,5.86-14.35,14.14-27.59,22.07-40.92,3.69-6.2,8.41-11.61,14.19-16.24,9.03-7.24,15.63-16.59,20.98-26.85,5.33-10.23,13.01-17.59,24.75-20.11,2.81-.6,5.7-1.57,8.27-2.98,11.15-6.13,14.77-18.77,11.28-31.28-2.9-10.39-9.05-15.64-20.83-15.24-8.09.27-16-.79-23.96-2.43-6.5-1.34-12.75.16-16.96,6.33-2.58,3.79-4.97,7.72-7.81,11.32-8,10.12-17.06,12.71-29.09,7.74-7.77-3.21-15.32-3.83-23.08-.75-6.9,2.74-13.57,5.82-19.64,10.33-9.39,6.97-11.82,16.22-9.89,27.04,1.54,8.62,3.55,17.06-1.71,25.29-2.09,3.28-4.33,6.33-7.04,9.09-6.94,7.06-14.33,13.69-19.22,22.57-2.69,4.9-4.55,10.08-6.42,15.27-2.94,8.16-5.88,16.29-10.9,23.48-9.31,13.33-22.34,19.46-39.17,14.44-4.96-1.48-10.12-2.44-15.17-3.67-8.65-2.11-15.59-6.43-17.9-15.99-2.43-10.06-8.11-18.45-14.29-26.56-3.68-4.83-6.29-10.35-9.03-15.71-3.86-7.56-8.89-14.29-13.63-21.23-6.67-9.77-7.9-20.38-5.71-31.78,1.08-5.64,3.46-11.03,3.15-16.95-.29-5.37-2.96-7.28-8.31-6.16-2.52.53-4.82,1.58-6.89,2.77-15.77,9.09-34.36.73-39.59-15.76-1.09-3.44-2.47-6.78-4.06-9.94-3.23-6.39-9.26-9.12-15.98-10.49-14.34-2.93-28.52-6.39-42.2-11.73-10.89-4.25-19.42-10.78-22.58-22.64-.83-3.13-1.37-6.36-1.71-9.57-1.35-12.58-9.43-18.92-20.5-22.6-6.42-2.14-12.69-4.31-17.89-9.07-6.15-5.61-8.62-13.04-10.22-20.55-3.5-16.4-14.87-25.65-28.47-32.93-6.67-3.57-14.21-4.58-21.68-5.86-18.02-3.09-31.85,5.22-44.75,15.86-6.49,5.35-13.69,9.28-21.44,11.93-7.83,2.68-14.41,6.78-19.96,12.76-1.53,1.65-3.06,3.35-4.8,4.76-2.75,2.23-6.29,3.57-9.5,2.51-9.45-3.12-18.81-2.87-28.32-.74-8.95,2.01-17.76.72-26.53-1.29-10.11-2.31-19.88-1.83-29.15,3.45-11.42,6.5-23.47,11.53-36.07,15.29-5.68,1.7-9.5,4.8-9.21,13,.39,11.03,1.37,21.85,5.66,32.21,2.43,5.88,6.99,7.5,12.67,7.83,4.64.27,9.24-.02,13.95.64,8.84,1.24,13.91,6.41,17.82,13.67,4.42,8.21,8.76,16.44,15.58,23.12,6.26,6.13,13.22,11.3,21,15.04,11.14,5.35,19.42,13.11,24.3,24.48,7.99,18.64,22.73,29.59,41.32,36.1,6.89,2.41,14.08,3.37,21.31,3.4,8.14.03,16.27.12,24.35,1.01,11.64,1.27,18.35,8.79,22.09,19.12,2.25,6.2,4.7,12.37,6.51,18.7,2.92,10.19,9.54,16.27,19.25,19.54,9.02,3.04,16.93,7.77,23.53,14.75,3.94,4.16,7.82,8.44,12.55,11.81,5.66,4.02,11.89,4.22,17.78,1.56,5.39-2.43,10.5-2.75,15.7-.65,8.06,3.25,16.61,5.48,23.54,11.22,5.6,4.64,6.08,8.73,1.29,13.95-1.32,1.44-2.66,2.86-3.98,4.29-6.9,7.51-4.04,18.79.17,24.76,7.36,10.45,20.26,11.27,29.83,4.34,6.84-4.96,7.92-12.38,6.64-20.36-.46-2.85-1.16-5.69-2.32-8.21-3.58-7.79-1.18-14.37,3.61-20.46,7.04-8.96,16.43-12.86,27.79-13.71,7.09-.54,14.34-.17,21.36-2.3,4.61-1.4,8.42-4.09,12.57-6.21,5.22-2.66,7.95-2.25,11.74,2.2,4.77,5.61,7.76,12.4,12.1,18.32,1.45,1.98.73,4.33-2.09,5.14-11.41,3.32-13.39,12.65-14.87,22.61-1.1,7.41-.44,14.8-.83,22.19-.38,7.34-4.65,12.95-9.15,18.22-4.92,5.77-8.54,11.91-9.61,19.61-.8,5.76-.61,11.5.68,16.94,2.82,11.91,1.58,23.4-1.92,34.82-2.75,8.96-3.59,17.85-.88,26.99,1.86,6.26,1.04,12.74.86,19.12-.22,7.51,2.58,14.09,8,18.56,14.25,11.74,29.51,22.13,47.31,27.9,5.11,1.66,10.36,2.85,15.2,5.3,5,2.53,9.18,6.01,12.62,10.44,9.75,12.56,23.08,19.56,38.3,21.95,13.34,2.09,26.38-.49,37.35-9.35,9.04-7.29,19.26-10.84,30.89-11.43,8.3-.42,16.45-2.1,23.97-6.31,7.8-4.36,16.2-7.51,24.76-10.03,13.6-4,18.52-15.8,13.93-28.34-1.41-3.86-2.98-7.63-4.8-11.3-9.25-18.6-1.72-30.41,15.26-39.05,7.1-3.61,14.79-5.4,23.01-4.97,9.23.48,16.53,4.34,22.6,10.98,1.04,1.14,2.1,2.28,3.02,3.49,4.04,5.32,9.73,6.77,15.67,5.5,13.47-2.87,27.23-5,39.58-11.68,3.36-1.82,6.69-3.73,10.01-5.64,8.14-4.71,16.14-5,23.93.51,7.85,5.56,16.07,5.65,24.83,2.65,4.03-1.38,8.24-2.38,12.59-2.24"/>
          <path class="cls-3" d="M180.75,891.38c-.42-20.37,7.98-37.53,19.58-53.49,9.42-12.97,21.04-22.83,36.44-28.51,7.93-2.93,15.63-7.78,19.13-16.33,2.76-6.75,3.11-13.87,2.44-21.29-1.12-12.45.4-24.56,8.05-35.25,6.51-9.1,7.58-19.02,3.59-29.57-1-2.63-1.55-5.49-2.18-8.25-1.72-7.55,3.93-13.64,12.55-13.91,14.88-.47,29.67-1.98,44.36-4.38,11.34-1.85,19.84-8.26,26.55-17.35,5.94-8.06,12.39-15.73,18.72-23.47,5.61-6.85,13.06-11.35,20.86-15.22,11.37-5.64,19.24-14.23,22.56-26.57,2.13-7.91,6.56-14.56,11.45-20.79,6.98-8.9,8.61-18.46,6.06-29.24-1.19-5.04-2.27-9.94-5.23-14.38-3.57-5.36-9.26-6.32-14.39-5.81-10.77,1.08-21.37,2.03-32.22.75-10.62-1.25-21.2-2.69-31.74-4.46-10.98-1.85-12.61-3.84-13.54-14.79-.91-10.68-4.4-20.25-13.87-26.52-10.04-6.66-17.99-15.61-26.55-23.91-6.8-6.59-14.11-12.64-23.48-15.17-5.67-1.53-11.63-1.85-17.37-3.15-10.71-2.42-20.82-6.01-26.94-16.08-2.44-4.03-3.52-8.69-5.14-13.07-3.87-10.45-11.25-17.99-19.24-25.2-13.16-11.87-29.11-19.42-43.98-28.63-12.89-7.99-24.36-16.95-30.99-31.31-4.76-10.3-13.58-17.01-23.78-21.81-6.34-2.98-12.52-6.29-18.67-9.63-6.5-3.54-11.41-9.09-16.57-14.29-1.45-1.47-2.73-3.21-4.78-3.9-2.71-.92-5.77-1.11-7.71.96-1.94,2.08-3.32,4.92-2.3,8.16,1.04,3.3,2.28,6.51,3.91,9.57,2.44,4.61,3.81,9.5,3.5,14.78-.28,4.78.37,9.57-.41,14.36-1.65,10.17-8.59,15.32-17.44,18.68-5.21,1.98-10.74,2.85-16.08,4.38-7.82,2.25-14.37,6.41-18.68,13.48-2.74,4.5-1.6,8.88,3.04,11.69,3.69,2.24,7.7,3.59,12.16,3.55,9.71-.1,19.43-.13,29.14,0,14.46.19,27.93,4.18,40.42,11.33,6.36,3.64,11.1,8.99,14.4,15.6,1.68,3.36,3.35,6.73,5.16,10.04,5.6,10.22,20.38,19.63,30.92,19.6,1.84,0,3.64-.28,5.19-.98,9.16-4.16,18.8-3.95,28.27-2.39,7.7,1.27,15.5,2.3,22.74,6.18,6.41,3.44,9.81,8.47,11.6,14.98,1.37,4.98,2.29,10.09,3.12,15.21,1.58,9.85,6.92,18.08,11.71,26.54,4.28,7.57,7.71,15.47,7.81,24.35.1,9.33-5.07,11.88-12.59,12.54-11.62,1.02-23-1.3-34.35-3.41-18.49-3.43-24.37,2.34-32.5,15.3-2.91,4.63-5.45,9.48-8.77,13.88-2.33,3.08-4.44,6.21-4.94,10.39-.79,6.73,4.87,12.85,13.55,8.64,1.22-.59,2.41-1.57,3.54-2.51,8.65-7.22,18.33-5.94,27.77-2.51,8.49,3.08,15.79,8.51,23.12,13.76,6.96,4.98,13.93,9.8,22.56,11.91,7.03,1.71,12.61-.46,17.83-4.52,3.52-2.73,5.92-6.56,8.7-9.99,4.75-5.83,10.49-9.36,18.29-9.15,7.65.21,14.2,8.13,12.59,15.69-1.32,6.18-3.82,11.7-8.62,16.15-4.67,4.33-9.23,8.79-12.71,14.27-5.16,8.12-13.02,12.96-22.16,14.66-14.86,2.77-26.19,10.19-34.34,22.77-5.21,8.04-11.73,15.24-15.23,24.35-1.95,5.09-2.34,10.46-1.61,15.65,1.68,11.77-3.9,18.31-11.49,21.18-4.43,1.67-9.3,1.86-14.3,1.71-8.88-.27-17.07-3.36-25.61-4.84-9.61-1.66-17.66.94-24.27,6.91-11.38,10.26-17.31,23.48-17.51,39-.06,4.93.1,9.86-.03,14.79-.42,16.34,3.28,31.87,9.16,46.97,4.24,10.91,7.14,22.08,6.53,33.93-.38,7.39-5.03,12.11-10.48,16.03-7.51,5.4-13.13,12.09-16.05,20.93"/>
          <path class="cls-4" d="M493.91,1.5c-.27,8.59.97,17.28-2.12,25.68-1.36,3.71-3.15,7.15-5.3,10.4-4.04,6.1-7.87,12.33-12.06,18.35-4.99,7.18-12.1,9.42-20.1,10.38-8.4,1-16.92.97-25.21,2.67-10.73,2.19-12.67,5.95-15.15,16.49-2.95,12.54-5.28,25.27-9.78,37.34-4.34,11.63-13.56,18.49-25.07,22.73-11.11,4.09-22.74,6.26-33.94,9.96-1.34.44-2.72.71-3.96,1.67-3.42,2.64-3.94,5.53-1.27,8.75,2.25,2.71,5.28,4.43,8.29,6.05,9.42,5.05,17.82,11,22.21,21.33,1.98,4.65,2.78,9.59,3.27,14.39,1.96,19.2,17.74,23.31,32.74,19.03,5.68-1.62,11.14-4.34,17-5.02,13.76-1.6,26.8.09,37.4,10.32,4.71,4.54,5.96,10.49,6.89,16.55.18,1.14.22,2.34.51,3.47,2.2,8.65,5.74,11.05,14.33,9.1,15.78-3.59,29.79,3.45,35.62,17.46,3.15,7.57,3.54,15.48,1.37,23.47-.9,3.33-1.41,6.79-2.67,9.98-2.45,6.19-1.64,12.25,1.92,17.33,5.75,8.19,9.74,17.16,13.85,26.16,2.03,4.45,4.64,8.73,8.66,11.74,8.57,6.43,14.34,15.27,20.89,23.49,12.03,15.09,30.88,15.55,43.37.82,3.58-4.23,6.6-8.97,8.9-14.23,5.13-11.7,12.21-22.26,20.76-31.81,7.51-8.39,7.65-18.54,5.99-28.68-2.42-14.81,4.97-40.12,20.89-45.1,9.66-3.02,18.2-9.29,27.46-13.69,6.51-3.1,13.46-2.8,20-1.9,12.43,1.7,17.58-.54,21.27-12.42,2.99-9.63,6.5-18.99,11.38-27.81,4.1-7.42,3.48-15.59,2.87-23.47-.55-7.18-3.11-14.01-8.1-19.58-7.14-7.96-8.86-17.26-6.48-27.4,2.21-9.39,4.37-18.8,10.78-26.59,4.07-4.95,9.6-7.67,14.87-10.78,7.21-4.25,14.22-9.32,22.61-10.81,13.59-2.41,27.55.71,33.47,17.29,3.27,9.14,7.48,17.67,16.1,23.04,9.84,6.13,20.43,9.74,32.18,9.61,10.15-.12,20.3-.02,30.45-.02"/>
          <path class="cls-4" d="M375.6,891.38c-2.36-6.22-7.5-9.85-12.62-13.47-12.22-8.64-25.66-15.5-37.32-24.89-8.89-7.15-18.56-13.06-27.89-19.51-8.78-6.07-16.17-13.47-20.43-23.47-2.9-6.79-3.66-14.16-5.25-21.3-1.54-6.9-2.54-13.91-3.35-20.89-1.11-9.58,2.21-18.23,8.2-25.6,6.52-8.03,11.1-16.85,12.97-27.02,2.15-11.69,9.71-17.96,20.42-21.85,9.04-3.28,18.6-4.76,27.45-8.58,5.98-2.58,11.04-6.29,15.24-11.3,8.77-10.47,17.44-21.05,28.24-29.61,5.5-4.36,11.96-6.78,18.27-9.57,6.11-2.7,12.27-5.25,17.89-9.04,7.08-4.78,10.54-11.35,11.26-19.64.81-9.28,5.04-17.13,9.94-24.83,5.48-8.63,6.94-18.06,4.98-28.25-1.12-5.82-1.54-11.89-1.7-17.81-.23-8.71-1.58-17.35-1.1-26.09.19-3.42.83-6.41,3.54-8.7,7.11-5.99,8.02-13.54,6.26-22.21-.63-3.11-1.16-6.2-2.41-9.07-.81-1.85-2.23-3.44-4.72-3.08-2.3.33-3.34,1.84-3.93,3.91-.5,1.73-1.33,3.44-1.24,5.22.31,6.13-1.43,12.13-.96,18.27.29,3.79-1.36,6.8-4.74,8.69-10.72,5.98-21.8,11.39-33.95,13.32-11.42,1.82-22.8.71-33.48-4.58-7.37-3.65-12.48-9.3-16.1-16.55-2-4.01-4.41-7.79-6.52-11.74-5.02-9.38-13.54-14.84-22.61-19.56-6.17-3.21-11.47-7.55-16.48-12.24-5.38-5.05-10.32-10.57-15.74-15.57-4.71-4.35-10.14-7.04-16.9-7.66-4.62-.43-9.37-.14-13.95-1.47-7.22-2.1-12.31-6.43-14.73-13.54-1.94-5.69-2.96-11.65-4.78-17.4-3.62-11.4-10.71-19.09-22.18-23.14-9.86-3.49-20.03-6.12-29.59-10.38-15.47-6.9-30.08-15.16-41.79-27.77-3.72-4-6.64-8.63-8.54-13.55-4.36-11.32-12.36-19.11-22.82-24.18-14.27-6.92-24.89-17.77-34.74-29.69-3.03-3.67-6.19-7.19-10.42-9.59-6.6-3.74-13.27-2.37-19.06,1.04-9.36,5.51-14.06,14.42-16.32,25.04-1.6,7.55.19,14.82.25,22.21.08,10.02-5.76,17.09-14.01,19.65-5.59,1.73-11.38,2.34-16.99,3.84"/>
          <path class="cls-3" d="M506.09,1.5c0,3.62-.31,7.28.06,10.87,1.09,10.46-2.16,19.42-9.23,26.94-7.65,8.14-12.45,17.84-15.52,28.34-2.8,9.58-6.96,10.73-17.07,9.6-11.12-1.24-22.26-1.61-31.73,6.04-6.88,5.56-10.56,13.14-13.58,21.26-2.45,6.57-4.35,13.3-5.88,20.07-2.29,10.15-6.73,19.18-12.29,27.81-4.26,6.61-9.85,12.64-11.62,20.47-1.97,8.71,1.11,16.71,6.04,23.83,1.77,2.55,7.62,2.71,11.15.39,2.18-1.43,4.46-2.73,6.64-4.18,6.88-4.57,14.39-4.42,20.76.88,5.3,4.4,10.79,8.49,17.08,11.11,5.05,2.1,10.49,3.32,15.6,5.37,10.49,4.2,19.62,10.01,25.3,20.38,5.35,9.76,13.4,17.25,22.16,23.9,6.76,5.14,11.69,11.84,16.9,18.34,2.26,2.81,4.68,5.5,7.08,8.15,4.25,4.7,6.59,10.21,7.15,16.2.59,6.4,1.82,12.6,3.66,18.68,2.98,9.8,5.03,19.95,11.65,28.33,4.29,5.43,9.24,10.37,12.7,16.46,1.89,3.33,3.72,6.7,5.55,10.06,4.44,8.13,13.08,9.37,19.67,3.04,3.55-3.41,6.6-7.07,9.17-11.3,4.33-7.11,9.64-13.57,14.3-20.47,4.19-6.21,6.18-12.89,6.15-20.46-.07-15.65,2.5-30.97,6.38-46.12,2.08-8.11,7.34-12.86,14.88-15.13,11.7-3.54,22.4-8.82,32.2-16.11,5.08-3.78,11.11-5.55,17.36-6.09,11.98-1.04,17.49-8.98,20.82-19.2,1.43-4.37,2.6-8.9,3.01-13.47.55-6.1-1.99-11.58-5.22-16.47-5.21-7.89-7.59-16.29-6.93-25.72.45-6.38,3.02-12.03,5.27-17.83,3.26-8.4,5.81-16.92,5.24-26.1-.28-4.54-.89-9.24-3.21-12.96-4.85-7.76-13.07-8.8-22.02-5.28-3.57,1.41-7.08,3.21-9.96,5.68-9.74,8.36-21.06,8.6-32.65,6.35-7.95-1.54-15.83-2.86-23.94-2.51-7.28.32-13.89-1.73-20.02-5.63-5.45-3.46-11.37-6.06-17.41-8.22-9.78-3.49-13.95-10.92-15.14-20.52-.55-4.45-1.47-8.87-.57-13.49,1.22-6.26,4.48-11.34,8.39-16.04,7.56-9.08,7.75-19.61,6.46-30.48-.59-4.95-2.18-9.75-2.15-14.79"/>
          <path class="cls-4" d="M59.41,890.94c5.73-5.92,12.13-11.23,16.12-18.69,4.09-7.64,6.4-15.75,6.92-24.37.59-9.67,2.17-19.18,3.81-28.73,1.27-7.43,1.81-14.89.75-22.62-1.86-13.66-1.63-27.55-.9-41.28.71-13.36,3.54-26.48,9.41-38.71,3.66-7.63,8.07-14.81,13.51-21.29,4.01-4.77,9.94-6.02,15.64-6.89,11.11-1.7,20.39-6.67,28.23-14.47,7.99-7.94,17.08-14.33,27-19.52,15.08-7.89,22.18-21.47,25.92-37.04,1.89-7.85-1.09-15.21-6.42-21.23-3.56-4.02-7.42-7.58-12.94-9.35-4.79-1.54-8.79-.91-13.13.98-3.81,1.66-7.43,3.71-11.26,5.33-8.55,3.61-17.24,3.5-26.12,1.72-4.52-.91-9.06-1.53-13.52-2.92-4.15-1.29-5.56-3.44-5.21-7.54.94-11.01,1.29-22.11,5.29-32.6,1.17-3.05,2.82-5.94,5.19-8.27,8.34-8.2,16.29-16.77,24.41-25.18,6.04-6.26,13.55-9.26,22.55-9.36,8.09-.09,15.88,2.1,23.92,1.93,9.37-.19,12.87-6.22,8.29-14.4-1.95-3.49-4.37-6.67-6.63-9.94-4.13-5.97-5.63-12.65-6.45-19.62-.57-4.86-1.57-9.62-4.81-13.46-5.29-6.26-13.75-8.16-23.89-3.49-5.25,2.42-10.1,5.63-15.27,8.17-11.9,5.87-20.88,5.32-29.47-5.63-4.06-5.18-8.77-9.38-14.44-12.53-8.12-4.51-12.16-11.63-13.94-20.46-1.15-5.66-2.52-11.39-6.1-16.06-4.97-6.47-12.34-8.82-19.96-9.98-12.91-1.96-25.82-1.05-38.71.75-2.56.36-5.22.18-7.82.03-6.13-.36-12.18.56-18.27.89"/>
          <path class="cls-4" d="M891,193.31c-9.59-.81-18.73-3.1-26.95-8.3-1.99-1.26-3.94-2.48-6.08-3.51-7.23-3.48-10.57-2.7-15.74,3.51-3.13,3.77-5.66,7.94-8.56,11.85-5.53,7.45-13.26,10.29-21.82,12.17-9.37,2.06-19.17,1.63-28.3,5.11-3.4,1.3-6.45,2.79-8.25,6.13-2.74,5.08-1.1,9.34,4.78,12.63,4.48,2.5,9.51,3.07,14.37,3.81,16.2,2.45,24.94,12.58,29.1,27.5,5.67,20.36-5.65,44.93-23.49,52.98-13.13,5.93-22.95,15.18-30.94,26.98-5.01,7.4-11,14.04-18.05,19.79-3.92,3.19-6.98,7.59-9.69,12.03-4.63,7.59-9.82,14.82-14.83,22.15-4.44,6.5-6.29,13.52-6.56,21.34-.54,15.17,2.07,29.97,4.52,44.79,1.05,6.33,4.27,12,8.25,16.92,9.18,11.36,17.27,23.48,25.1,35.76,6.15,9.65,14.13,16.27,25.72,17.78,10.86,1.41,20.96.81,29.22-8.17,11.44-12.44,21.65-25.79,31.21-39.67,4.67-6.78,4.72-14.47,3.44-22.16-1.55-9.29-3.51-18.44-.45-27.87,2.07-6.36,5.71-11.97,7.92-18.24,1.27-3.59,2.61-7.15,3.49-10.87,1.61-6.81,4.83-9.46,11.72-10.02,6.95-.57,13.89-1.17,20.88-.86"/>
          <path class="cls-4" d="M486.51,890.94c5.06-17.5,9.88-35.06,17.29-51.81,2.57-5.81,3.66-12.2,4.06-18.65.57-9.19,4.02-17.26,10.43-23.9,5.61-5.81,9.57-12.39,10.86-20.47,1.4-8.83-2.71-18.12-12.6-19.33-6.97-.85-14.13-.05-20.95-3.18-16.51-7.58-33.03-15.04-45.16-29.27-7.25-8.51-11.13-18.63-13.08-29.55-1.64-9.15-2.42-18.45-5.14-27.42-.93-3.09-1.93-6.21-3.25-9.05-2.8-5.99-8.16-8.66-14.65-9.2-16.66-1.4-30.47,4.26-41.79,16.5-4.18,4.52-8.66,8.75-12.59,13.5-7.01,8.49-16.45,13.19-26.5,17.02-4.17,1.59-8.34,3.24-12.22,5.57-6.92,4.16-11.62,10.38-14.62,17.49-4.34,10.29-9.38,20.16-15.43,29.47-7.95,12.22-6.36,19.86.96,30.91,2.7,4.08,5.59,7.94,7.52,12.57,1.73,4.15,2.38,8.42,2.79,12.68.81,8.33,3.15,15.77,10.58,20.38,8.69,5.38,16.2,12.38,24.81,17.8,5.31,3.34,11.17,5.55,17.79,3.61,3.75-1.1,6.32-3.73,9.12-6.14,2.49-2.14,4.38-4.92,7.38-6.54,9.45-5.1,17.1-.88,20.76,9.21,1.84,5.06,1.39,10.65.58,16.05-.8,5.36-.58,10.72-.03,16.09.55,5.39,2.21,10.63,2.2,16.09"/>
          <path class="cls-3" d="M602.21,890.94c1.95-9.15,6.85-17.35,8.67-26.54,1.11-5.61,1.49-11.35,2.66-16.95,2.36-11.39,10.63-17.31,20.42-21.75,9.82-4.45,20.46-5.81,30.9-7.72,8.35-1.53,15.85-5.05,22.02-10.28,11.29-9.55,20.36-21.2,27.52-34.21,5.83-10.6,4.97-21.63,1.28-32.59-3.24-9.64-4.91-19.42-4.34-29.59.17-3.04,1.53-5.9.55-9.16-1.83-6.08-5.43-9.23-11.82-9.55-7-.35-13.49,1.46-19.57,4.8-6.89,3.79-13.08,8.71-20.41,11.81-5.65,2.39-11.5,3.79-17.42,5.19-10.79,2.55-20.73,7.41-30.92,11.63-9.75,4.04-19.01,9.44-29.56,11.31-3.72.66-7.47,1.44-11.3,1.38-3.5-.06-7-.14-10.45.84-3.72,1.06-6.16,2.92-7.5,6.95-3.97,11.95-6.47,24.22-8.54,36.58-1.15,6.89-3.68,13.36-8.46,18.11-7.09,7.06-10.43,15.39-11.58,24.94-.68,5.64-2.91,10.65-6.13,15.2-7,9.88-13.33,20.14-16.86,31.79-1.82,6.01-3.53,12.09-4.87,18.24"/>
          <path class="cls-4" d="M384.3,1.5c3.8,9.11,9.1,17.36,14.28,25.71,3.59,5.79,6.38,12.02,6.62,19.09.31,9.11-3.52,16.28-11.4,20.3-10.39,5.31-20.5,11.14-31.19,15.92-11.11,4.97-21.84,4.07-32.66-.16-6.43-2.51-12.42-5.79-17.01-11.24-3.13-3.7-4.88-8.19-7.19-12.3-5.83-10.37-14.87-15.86-25.84-18.53-9.79-2.38-19.22,8.35-17,18.63,1.05,4.84,3.1,8.62,7.39,11.38,2.9,1.87,5.53,4.25,7.9,6.86,4.37,4.83,3.5,10.96-2.2,14.35-4.54,2.71-9.8,3.48-14.78,3.33-11.95-.36-21.95,4.84-32.2,9.7-14.73,6.98-27.48,17.38-42.19,24.35-11.93,5.65-24.36,9.92-37.39,12.18-6.37,1.1-12.06,3.92-17.82,6.58-8.03,3.7-16.53,4.26-24.76,2.02-17.87-4.85-34.99-2.81-51.28,5.08-9.92,4.81-19.59,4.2-29.65,2-8.31-1.82-16.33-4.85-24.79-6.08"/>
          <path class="cls-4" d="M476.51,891.38c2.87-10.67,6.07-21.27,7.75-32.2.77-5-.08-10.11.76-15.24.67-4.09,1.56-8.2,3.4-11.62,4.48-8.31,6.72-17.3,9.42-26.18,1.49-4.93,3.33-9.76,5.67-14.34,5.64-11.05,1.74-13.54-6.18-16.82-9.77-4.05-17.88-10.2-25.59-17.13-8.1-7.27-16.12-14.63-24.29-21.82-7.9-6.96-13.35-15.98-18.29-25.17-5.97-11.13-12.73-21.81-21.1-31.13-7.79-8.67-14.52-10.63-25.48-4.06-6.6,3.96-12.04,9.42-17.74,14.45-6.04,5.33-12.83,9.37-19.7,13.32-6.76,3.88-11.81,9.15-15.22,16.13-2.02,4.13-4.29,8.16-6.56,12.16-4.97,8.78-5.27,17.89-3.02,27.44,2.42,10.3,4.45,20.72,7.52,30.84,4.14,13.65,13.08,23.02,26.87,27.43,4.99,1.6,10.08.25,14.74-.67,14.26-2.83,25.92,3.03,32.78,14.52,3.78,6.33,5.81,12.81,5.53,20.07-.24,6.38-.36,12.79-.51,19.15-.11,5.08-.23,10.52,1.03,15.63.44,1.79.16,3.5.36,5.24"/>
          <path class="cls-4" d="M587.85,891.38c.52-8.16,2.47-16.02,5.72-23.46,3.24-7.41,4.68-15.26,5.43-23.1,1.13-11.82,6.25-20.09,17.54-24.37,8.59-3.25,16.8-7.5,25.68-9.93,4.95-1.36,10.13-2.05,15.21-2.1,7.88-.07,15.24-2.03,21.21-6.77,11.03-8.77,19.09-20.1,24.84-32.95,2.96-6.62,2.42-13.59.46-20.41-2.1-7.3-5.73-13.96-9.61-20.41-5.64-9.39-10.97-8.34-18.64-5.7-8.48,2.91-16.16,7.56-23.79,11.98-10.22,5.92-21.03,9.63-32.32,12.36-4.3,1.04-8.52,2.35-12.58,4.01-9.91,4.04-20.68,5.68-30.07,11.19-6.46,3.79-10.65,8.69-9.94,16.58.35,3.88,2.37,7.16,4.31,10.45,2.48,4.19,5.39,8.16,6.55,13.04,1.16,4.85-.34,9-4.35,12.21-2.79,2.23-5.97,3.75-9.17,5.16-9.36,4.1-17.54,9.81-24.33,17.44-6.82,7.67-14.79,14.33-20.81,22.67-6.86,9.52-10.16,20.51-11.39,32.13"/>
          <path class="cls-4" d="M162.05,890.94c1.45-6.42,3.54-12.66,6.14-18.68,4.07-9.42,6.04-19.45,9.14-29.15,1.51-4.71,3.58-9.25,6.9-13.07,6.21-7.12,12.31-14.32,19.56-20.46,7.68-6.51,17.01-9.75,26.11-13.47,7.67-3.13,13.96-7.81,16.47-16.11,1.23-4.07.54-8.4.44-12.59-.19-8.03-1.45-15.97-2.42-23.94-.91-7.4-7.2-9.6-13.16-8.93-4.09.46-8.15.84-12.2.62-8.72-.49-16.93,1.58-24.76,4.94-7.05,3.02-14.3,5.17-21.8,6.34-5.05.79-9.91-.94-14.31-3.43-2.82-1.6-5.58-3.36-8.31-5.14-7.17-4.66-14.62-5.43-22.15-.88-7.98,4.82-12.61,11.94-12.06,21.29.64,10.9,6.35,18.93,16.42,23.45,5.36,2.4,9.41,6.11,11.65,11.38,3.36,7.93,3.9,11.44-2.67,18.55-6.6,7.13-8.75,15.39-8.94,24.48-.16,7.87-.18,15.71-1.74,23.5-1.42,7.12-4.92,12.91-10.08,17.81-4.69,4.45-10.7,7.62-13.47,13.93"/>
          <path class="cls-4" d="M466.94,891.38c1.28-6.79,2.65-13.58,3.44-20.45.89-7.73-2.07-14.86-3.82-22.19-2.02-8.47-.89-16.44,4.72-23.49,3.39-4.25,6.85-8.44,9.18-13.46,5.15-11.13,4.54-21.43-4.82-30.01-4.13-3.79-7.66-8.15-10.75-12.7-6.21-9.12-13.26-17.33-21.82-24.33-9.79-8-16.19-18.92-23.94-28.67-6.04-7.61-13.55-12.97-23.07-15.17-4.33-1-8.72-.73-13.04.4-10.49,2.75-20.51,6.55-28.68,13.95-8.83,8.02-12.56,18.89-15.14,30-3.45,14.89.93,27.78,11.58,38.73,3.35,3.45,6.33,7.29,9.63,10.81,5.75,6.14,13.56,7.58,21.3,9.15,8.44,1.71,16.15,4.76,22.22,11.27,4.07,4.37,8.56,8.35,11.71,13.51,2.77,4.55,4.35,9.34,4.42,14.79.14,10.35-2.28,20.6-1.6,30.87.37,5.63-.21,11.44,1.53,16.98"/>
          <path class="cls-4" d="M600.9,1.5c1.6,3.16.95,6.69,1.6,10.03,2.1,10.71,1.8,21.75-.99,32.09-4.1,15.23,1.04,27.22,10.31,38.3,7.05,8.43,16.27,12.56,27.32,14.18,12.98,1.89,24.35-1,35.28-7.58,9.22-5.56,18.83-10.28,29.56-12.2,15.59-2.78,24.91-12.5,30.04-26.96,1.1-3.12,2.41-6.19,3.92-9.13,4.99-9.74,13.27-15.42,23.45-18.73,6.33-2.06,12.41-5.3,19.14-5.55,11.06-.41,19.99,5.04,28.25,11.67,6.76,5.43,9.15,12.9,9.64,21.29.27,4.62.93,9.42,3.11,13.42,4.68,8.56,11.16,11.93,22.49,8.73,5.03-1.42,9.75-3.74,14.78-5.24,6.72-2.01,13.44-2.93,20.47-2.19,3.87.41,7.82.07,11.74.07"/>
          <path class="cls-4" d="M891,752.63c-3.91-.34-7.81-.17-11.77-.68-10.09-1.31-15.02-7.69-18.23-16.29-1.55-4.17-2.46-8.59-4.41-12.59-8.26-16.92-22.87-25.25-40.4-29.62-5.34-1.33-10.8-1.24-16.08-.68-6.55.69-11.45,5.07-15.63,9.88-4.49,5.17-10.02,8.82-16.6,9.79-6.11.9-12.32,1.81-18.72.39-3.95-.88-8.4-.79-12.56.24-7.84,1.92-11.49,8.5-10.11,16.54,1.12,6.54,3.78,12.6,4.96,19.11,2.28,12.61.46,24.43-7.13,34.73-7.86,10.67-15.99,21.25-26.45,29.63-12.16,9.74-26.24,15.32-41.3,18.74-4.93,1.12-9.66,2.82-14.4,4.66-8.99,3.49-12.56,10.66-14.28,19.25-2.39,11.94-4.86,23.86-7.86,35.66"/>
          <path class="cls-3" d="M179.45,1.93c-3.75,6.04-6.81,12.51-8.95,19.2-1.86,5.82,2.66,8.46,7.22,7.37,8.79-2.09,17.42-1.87,26.12,1.16,8.62,3,17.35,5.75,26.48,7.16,7.04,1.09,9.68,4.92,8.61,12.5-1.11,7.85-2.29,15.71-3.83,23.5-1.9,9.59-7.81,16.48-16.14,20.76-13.67,7.03-26.96,14.79-40.83,21.41-10.21,4.88-20.68,8.76-32.17,9.7-6.03.49-12.14,2.04-17.35,5.2-8.49,5.17-17.37,5.4-26.58,3.35-7.72-1.72-15.47-1.2-23.03.18-7.55,1.38-15.15,2.47-22.66,4.11-5.59,1.22-10.99,3.04-16.48,4.54-13.24,3.61-25.61.68-37.86-4.03-.48-.18-.59-.57-.44-.86"/>
          <path class="cls-4" d="M102.46,1.5c1.07,5.62,1.23,11.36,2.54,16.98,1.92,8.19-1.84,14.93-10.37,19.55-8.46,4.58-17.3,8.33-26.1,12.16-9.53,4.15-16.14,11-20.5,20.43-5.24,11.33-11.79,21.93-19.5,31.78-2.18,2.78-3.89,5.89-5.18,9.14-2.74,6.89.55,12.89,7.78,14.78,7.05,1.84,14.05,1.8,21.33,1.05,8.73-.89,17.14-2.39,25.22-5.83,4.01-1.71,7.77-3.89,11.74-5.66,5.01-2.24,10.38-3.43,15.67-4.73,14.21-3.5,25.58-11.99,36.93-20.54,1.22-.92,2.3-2.04,3.5-3.02,4.25-3.46,5.11-6.93,2.59-11.72-3.72-7.08-7.45-14.13-10-21.75-1.81-5.42-3.32-10.92-4.27-16.54-.64-3.79.37-7.63,2.21-10.81,5.15-8.91,11.62-16.92,18.17-24.85"/>
          <path class="cls-4" d="M1.12,594.32c14.59-.45,24.8-7.48,31.37-20.41,3.17-6.24,6.4-12.46,9.48-18.75,2.88-5.89,6.82-9.17,13.96-8.83,8.4.41,16.77,1.28,25.22,1.11,10.89-.22,20.48-2.24,27.09-12.19,2.96-4.46,7.77-7.4,12.49-10.09,9.73-5.55,16.36-13.6,19.56-24.36,2.45-8.25.28-12.36-7.8-15.68-5.24-2.16-10.77-3.35-16.12-5.15-5.8-1.96-10.35-5.46-14.39-9.99-3.82-4.28-7.86-8.44-12.58-11.76-9.03-6.34-14.82-15.19-19.5-24.84-5.12-10.55-12.73-18.54-23.57-22.93-7.33-2.97-15.19-2.64-23.02-1.9-7.73.73-14.58,4.62-22.18,5.72"/>
          <path class="cls-4" d="M891,764.81c-10.73.91-21.49,1.34-32.19,2.61-4.54.54-7.48,3.01-8.64,7.41-.22.82-.44,1.69-.55,2.59-1.53,12.93-9.68,20.18-21.26,24.35-12.29,4.43-24.21,9.55-34.8,17.39-6.69,4.95-14.64,4.62-22.14,3.73-7.84-.92-15.73-1.75-23.52-3.25-2.86-.55-5.72-1.03-8.7-.95-6.24.17-9.29,2.75-9.47,9.19-.07,2.69-.69,5.23-1.06,7.81-.58,4.1-3.1,5.24-7.32,4.44-2.54-.48-4.76-1.65-6.9-2.77-9.23-4.82-18.59-4.6-27.85-.72-10.18,4.26-20.21,8.98-30.53,12.84-14.01,5.24-15.18,25.82-5.63,33.24,2.79,2.17,4.71,5.21,6.56,8.22"/>
          <path class="cls-4" d="M891,819.61c-8.03.18-15.96-1.02-23.93-1.56-7.32-.5-14.4,1.87-20.84,5.52-3.51,1.99-6.96,4.23-9.14,7.8-2.64,4.31-1.7,8.32,2.6,11.29,2.15,1.48,4.62,2.35,6.93,3.54,7.35,3.78,11.07,9.97,10.85,18.22-.21,8.17-4.68,13.9-11.75,17.29-4.95,2.38-10.53,2.7-16.04,2.26-3.22-.26-5.48-2.34-5.96-5.22-.71-4.27-1.45-8.49-.35-13.08,1.05-4.39.68-9.28.09-13.85-.49-3.81-2.7-6.84-6.8-8.34-10.94-4-21.91-6.94-33.51-2.97-4.8,1.64-8.68,4.97-13.06,7.37-5.59,3.06-11.09,6.3-17.38,7.87-7.4,1.85-11.3,6.72-11.75,14.33-.58,9.8-4.92,12.67-12.6,14.44-5.77,1.33-11.52,3.05-16.55,6.44"/>
          <path class="cls-4" d="M1.56,738.28c2.26-2.33,5.58-2.11,8.28-3.44,9.93-4.91,18.28-12.03,26.98-18.7,6.07-4.64,11.82-9.66,17.74-14.46,4.64-3.76,8.13-8.71,11.8-13.41,5.71-7.32,11.4-14.65,17.38-21.76,3.22-3.83,4.03-8.4,2.56-13.02-3.87-12.17-1.46-23.78,2.72-35.23,2.04-5.59,6.59-9.22,11.25-12.64,3.8-2.8,7.46-5.58,9.3-10.37.87-2.25.58-4.04-.66-5.2-5.25-4.93-8.59-11.19-12.56-17.03-6.5-9.55-15.98-11.11-26.51-9.57-10.52,1.54-17.5,8.39-23.93,16.07-5.54,6.61-10.31,13.83-17.76,18.81-8.29,5.54-17.33,7.72-27.03,8.17"/>
          <path class="cls-4" d="M1.56,477.32c4.48,7.46,6.92,15.71,9.66,23.89,3.26,9.76,9.42,14.11,20.35,13.82,11.11-.3,20.79,2.94,30.08,8.71,4.16,2.59,8.54,5.09,13.85,5.4,11.08.66,18.91-4.97,25.6-12.74,2.57-2.98,5.71-5.78,5.78-10.38.07-3.76-.95-6.91-3.55-9.57-13.76-14.09-26-29.59-40.37-43.14-6.39-6.03-10.71-13.91-16.1-20.85-4.35-5.6-9.82-9.38-16.62-10.21-6.12-.75-12.06,1.8-17.77,3.86-3.76,1.36-7.45,2.88-11.35,3.8"/>
          <path class="cls-4" d="M890.57,611.28c-7.26,2.27-12.97,7.19-19.12,11.33-3.63,2.44-7.26,5-11.35,6.41-5.59,1.93-10.95,1.66-15.69-2.89-3.78-3.63-7.68-7.3-13.42-7.96-2.7-.31-5.44.09-7.79.69-8.66,2.18-17.56,3.98-24.85,9.8-7.77,6.2-13.54,13.47-13.92,23.94-.1,2.87.85,5.42,2.2,7.82,7,12.39,18.77,17.51,31.73,20.91,14.06,3.68,27.44,8.75,39.23,17.71,6.73,5.12,10.58,11.85,13.84,19.24,1.6,3.62,2.83,7.43,4.81,10.86,3.27,5.64,8.39,8.62,14.76,9.59"/>
          <path class="cls-4" d="M30.27,891.38c1.82-6.77,7.66-9.31,13.07-12.13,6.85-3.58,13.49-7.35,17.35-14.41,3.25-5.95,5.18-12.02,3.63-19.15-2.26-10.44-1.01-20.66,3.74-30.45,3.42-7.05,3.4-14.55,1.84-22.16-1.54-7.5-1.8-15-.13-22.63,1.81-8.3,1.99-16.71.68-25.23-.54-3.53-.77-7.22-1.01-10.85-.49-7.37-4.78-10.36-11.76-8.28-14.15,4.23-27.74,9.8-40.92,16.46-4.93,2.49-10.32,4.06-15.62,5.73"/>
          <path class="cls-4" d="M618.3,1.5c1.19,7.8.72,15.65.9,23.49.13,5.83-.77,11.61-.8,17.4-.07,11.73,3.51,22.58,10.89,31.66,5.91,7.27,14.15,8.15,22.94,5.77,14.81-4.01,28.71-10.14,42.22-17.35,8.47-4.52,16.85-8.92,23.51-16.11,4.36-4.71,7.21-10.32,10.3-15.76,4.98-8.74,11.96-14.71,21.34-18.34,4.15-1.6,8.04-4.11,11.36-7.26,1.2-1.14,2.09-2.7,3.9-3.06"/>
          <path class="cls-4" d="M520,1.5c1.62,7.16,3.47,14.41,2.47,21.73-.85,6.24-4.86,10.97-9.85,14.82-4.64,3.59-8.8,7.79-12.53,12.24-5.93,7.08-7.76,17.29-1.84,24.72,2.5,3.15,5.75,5.13,9.58,6.06,9.41,2.28,18.37.86,26.97-3.44,2.84-1.42,5.81-2.63,8.65-4.02,8.31-4.05,12.5-11.43,15.32-19.9,1.79-5.37,5.08-9.91,9.06-13.96,1.65-1.68,3.41-3.24,4.86-5.16,3.25-4.31,5.17-8.8,4.82-14.4-.4-6.22.2-12.5-.95-18.7"/>
          <path class="cls-4" d="M262.52,1.5c-.4,3.25.27,6.44.94,9.55,1,4.66,4.19,7.63,8.64,9.13,11.05,3.73,21.86,8.02,32.19,13.48,8.19,4.33,14.96,9.84,18.76,18.7,3.89,9.08,10.01,16.01,20.38,17.85,5.81,1.04,11.43.51,16.98-1.7,7.83-3.12,14.15-8.22,19.06-14.87,5.59-7.58,5.2-15.99,1.76-24.29-3.78-9.11-10.66-16.11-16.94-23.49-1.13-1.33-2.15-2.66-2.59-4.37"/>
          <path class="cls-4" d="M1.12,694.35c20.59-6.6,31.47-22.08,36.79-41.8,3.07-11.39,8.18-20.55,17.94-27.46,9.52-6.74,12.56-16.83,11.79-28.16-.24-3.47-2.62-4.9-6.05-3.91-5.05,1.45-8.86,4.85-12.59,8.28-5.36,4.93-10.12,10.47-15.67,15.21-7.29,6.23-16.14,8.48-25.25,9.9-2.29.36-4.52,1.52-6.94.96"/>
          <path class="cls-4" d="M891,79.35c-8.12.37-16.37-1.16-24.34.94-12.34,3.25-24.77,6.46-36.08,12.61-5.16,2.8-6.73,7.99-6.04,13.41,1.91,14.81,9.92,23.16,26.45,23.41,6.36.09,12.78-.16,19.15-.41,5.63-.22,11.72.13,17.36,1.88,1.23.38,2.36.12,3.5.36"/>
          <path class="cls-3" d="M890.57,530.38c-9.9,2.22-19.84,4.02-30,4.95-7,.64-14.23,1.22-20.49,5.45-8.87,6-12.03,15.05-13.83,24.84-.58,3.15.77,5.05,4.25,6.21,6.84,2.28,14,2.66,20.97,3.98,7.59,1.44,14.97,3.68,22.56,5.11,5.64,1.06,11.34,1.21,16.98,2.09"/>
          <path class="cls-4" d="M252.08,891.38c.6-9.86,2.5-19.66,1.7-29.57-.64-7.95-1.59-15.9-5.62-23.05-4.21-7.46-12.54-10.67-21.3-6.95-11.44,4.86-18.3,14.43-24.79,24.35-5.02,7.65-7.43,16.1-7.37,25.22.02,3.22.9,6.37,1.27,9.57"/>
          <path class="cls-4" d="M399.09,1.5c1.92,7.64,5.77,14.44,10.12,20.8,5.35,7.83,8.94,16.62,14.22,24.44,4.09,6.06,9.89,8.82,16.96,10.09,8.03,1.44,15.6.51,22.13-4.11,11.46-8.11,17.28-19.82,20.19-33.37,1.28-5.96-.39-12.05,1.62-17.86"/>
          <path class="cls-4" d="M1.12,815.27c7.2-2.14,13.75-5.9,20.85-8.34,3.47-1.2,7.01-2.4,10.5-3.24,8.65-2.08,12.84-7.56,14.83-15.8,1.9-7.86,4.79-15.47,6-23.51,1.33-8.78-5.1-17.21-13.47-17.16-9.09.05-17.23,2.8-25.18,6.39-4.41,1.99-9.32,3.1-13.1,6.42"/>
          <path class="cls-4" d="M658.31,1.5c-1.67,8.64-5.62,16.62-7.36,25.23-1.35,6.66-1.88,13.36.39,20.01,3.04,8.91,10.2,12.35,19.57,10.38,6.69-1.4,12.52-4.6,17.43-9.49,8.37-8.34,8.49-17.83,4.87-28.33-1.96-5.68-3.03-11.74-.98-17.8"/>
          <path class="cls-4" d="M352.12,891.38c-2.31-5.82-6.66-10.27-11.41-13.79-14.18-10.51-28.19-21.35-43.86-29.65-3.76-1.99-7.99-3.07-12.16-3.91-5.79-1.16-11.68,2.95-14.35,9.51-4.94,12.15-6.4,24.85-6.08,37.84"/>
          <path class="cls-4" d="M576.54,891.38c0-10.44-.15-20.88.04-31.31.22-12.22-5.61-13.97-13.92-12.41-13.56,2.54-26.19,7.95-34.25,19.9-4.72,6.99-7.34,15.15-7.54,23.82"/>
          <path class="cls-4" d="M85.07,1.5c-1.41,3.5-1.11,7.35-2.54,10.9-3.89,9.61-10.57,16.98-18.36,23.43-6.9,5.71-14.36,10.83-19.49,18.34-3.59,5.25-6.36,11.02-9.59,16.51-1.81,3.07-3.76,6.09-6.17,8.63-5.81,6.11-13.4,7.1-21.23,5.99-2.12-.3-4.54-.36-6.55-1.58"/>
          <path class="cls-4" d="M410.83,1.93c2.83,3.59,2.99,8.28,5.13,12.23,5.03,9.27,9.53,18.77,17,26.53,9.51,9.87,24.05,7.94,31.85-2.62,5.79-7.84,8.8-16.44,9.13-26.13.12-3.48,1.18-6.91.82-10.44"/>
          <path class="cls-4" d="M891,235.06c-9.43,2.82-18.39,6.46-25.69,13.45-7.86,7.53-9.8,17.33-2.95,27.38,5.01,7.35,9.7,14.86,12.87,23.14,1.87,4.88,3.61,9.76,6.2,14.31,2.4,4.21,5.24,8.01,9.57,10.44"/>
          <path class="cls-4" d="M799.67,1.93c7.64,7.31,17.14,12.25,24.82,19.54,5.03,4.77,7.92,10.7,10.46,16.98,2.13,5.27,5.08,10.13,11.28,11.24,2.81.51,5.83.42,8.68.03,12.02-1.68,24.08-.38,36.11-.81"/>
          <path class="cls-4" d="M239.9,891.38c1.75-7,2.99-14.04,2.64-21.31-.26-5.4-1.89-10.49-4.93-14.7-4.62-6.41-10.69-7.71-18.56-1.35-10.21,8.26-13.27,19.14-10.3,31.67.41,1.73.11,3.67,1.14,5.26"/>
          <path class="cls-4" d="M1.12,872.68c7.7-.87,13.58-4.04,15.67-12.18,1.63-6.37,4.91-11.47,10.82-14.86,3.1-1.78,6.2-3.94,8.21-6.95,1.37-2.06,2.95-4.44,1.02-7.37-1.97-3.01-4.67-3.56-7.89-3.46-4.2.14-7.73,2.44-9.84,5.36-4.76,6.57-10.27,11.98-17.56,15.54"/>
          <path class="cls-4" d="M50.27,1.5c2.57,10.51,3.56,20.77-3.9,30.02-7.04,8.73-11.8,19.01-18.74,27.8-5.56,7.05-12.57,10.43-21.74,7.91-1.48-.41-3.17-.06-4.77-.06"/>
          <path class="cls-4" d="M890.57,631.29c-15.02,5.39-23.13,16.87-28.39,31.27-2.29,6.25-1.35,11.7,2.84,16.03,7.31,7.55,15.13,14.68,25.55,17.94"/>
          <path class="cls-4" d="M422.58,1.5c2.43,11.82,6.66,22.98,16.22,30.72,7.12,5.76,12.07,5,18.07-.78,6.03-5.8,7.68-13.59,8.41-21.67.23-2.61-1.61-5.63,1.23-7.84"/>
          <path class="cls-4" d="M456.5,891.38c-.27-6.09.84-12.28-.91-18.26-1.46-5-3.46-9.76-7.34-13.51-5.17-5-8.84-4.66-13.06,1.32-3.51,4.96-3.96,10.87-4.64,16.55-.55,4.57-.65,9.33.73,13.9"/>
          <path class="cls-4" d="M335.59,891.38c-4.04-7.61-11.2-11.66-18.3-15.59-5.61-3.1-11.29-6.17-17.37-8.31-7.73-2.71-14.48.58-17.86,8.22-2.25,5.07-2.23,10.34-2.13,15.68"/>
          <path class="cls-4" d="M1.12,792.65c5.66-1.06,11.24-2.39,16.54-4.76,6.18-2.76,11.21-6.58,13.95-13.05,1.22-2.87,2.19-5.78-.12-8.21-2.31-2.44-5.51-2.15-8.63-1.4-3.81.92-7.07,2.95-10.44,4.79-3.65,1.99-7.09,4.45-11.3,5.23"/>
          <path class="cls-4" d="M1.56,293.78c5.37-3.41,7.93-8.88,10.42-14.36,2.64-5.79,6.32-11.09,7.89-17.38.25-1.01.78-1.94.85-3.05.55-8.78-1.68-9.33-10.48-10.71-2.71-.43-6.11-1.56-8.67,1.14"/>
          <path class="cls-4" d="M792.27,891.38c.94-5.77,1.47-11.58.82-17.39-.7-6.33-5.48-9.26-11.25-6.93-7.14,2.89-11.85,7.23-12.18,17.36-.07,2.32-.01,4.64-.01,6.96"/>
          <path class="cls-4" d="M27.66,1.5c.04,9.94-.32,19.88-2.68,29.56-1.94,7.96-6.22,14.3-14.73,16.49-2.96.76-6.08.92-9.12,1.36"/>
          <path class="cls-4" d="M1.56,529.51c6,5.56,10.63,12.06,13.95,19.56,4.59,10.37,2.95,21.94-3.93,27.87-2.44,2.11-5.2,3.54-8.29,4.29-.9.22-1.59.33-1.73,1.35"/>
          <path class="cls-4" d="M283.83,1.93c5.87,6.72,13.16,10.91,21.71,13.6,11.91,3.75,28.47-1.02,32.28-12.28.18-.53.77-1.34,1.68-1.32"/>
          <path class="cls-4" d="M199.89,1.5c2.41,10.62,11.29,18.58,20.88,18.7,14.24.18,22.81-5.96,26.1-18.7"/>
          <path class="cls-4" d="M563.5,891.38c-.32-4.16-1.21-8.18-3.5-11.73-3.12-4.83-9-6.96-14.81-2.24-4.41,3.58-5.78,8.55-7.35,13.54"/>
          <path class="cls-4" d="M1.56,197.22c1.24,2.36,3.89,3,5.74,4.69,8.59,7.84,7.01,24.16-6.17,27.06"/>
          <path class="cls-4" d="M433.45,1.93c2.07.56,1.58,2.57,2.13,3.93,1.53,3.79,3.32,7.34,6.56,9.99,3.26,2.66,6.06,2.2,8.71-1.3,2.95-3.88,2.85-8.63,3.9-13.06"/>
          <path class="cls-4" d="M1.56,161.56c.92,2.38,3.38,2.59,5.25,3.4,3.4,1.48,5.89,3.98,8.18,6.64,2.65,3.08,1.8,6.09-2.14,7.75-3.72,1.56-7.69,2-11.73,1.78"/>
          <path class="cls-4" d="M539.14,1.5c1.2,3.49,2.93,6.74,5.26,9.53,4.76,5.7,10.92,5.28,15.17-.84,1.81-2.6,3.11-5.42,3.06-8.69"/>
          <path class="cls-4" d="M890.57,255.5c-3.19,2.03-5.82,4.32-7.04,8.24-2.1,6.73,1.92,11.59,4.39,17.01.83,1.82,3.36,2.69,2.87,5.2"/>
          <path class="cls-4" d="M890.57,436.44c-8.21,3.96-7.27,12.31-3.01,17.81,1.01,1.31,1.64,2.91,3.01,3.94"/>
          <path class="cls-4" d="M891,163.73c-4.74,3.85-4.74,7.26,0,12.18"/>
          <path class="cls-4" d="M229.9,1.93c-3.77,2.23-7.54,1.58-11.31,0"/>
          <path class="cls-4" d="M890.57,783.51c-3.18,3.3-3.16,3.61.43,6.52"/>
          <path class="cls-4" d="M549.14,494.28c-6.32,2.73-8.26,5.82-6.41,12.58,1.88,6.85,4.98,13.3,10.34,18.28,3.97,3.68,8.12,2.76,10.86-2.15,6.49-11.64-1.64-27.7-14.36-28.71"/>
          <path class="cls-2" d="M498.69,522.99c-5.04,1.9-9.46,4.31-11.46,9.95-.58,1.63-1.15,3.13-1.16,4.84,0,2.9-.06,5.8,0,8.7.21,9.44-.15,18.86-.88,28.27-.5,6.45,1.57,11.99,5.63,16.98,4.55,5.61,8.82,11.44,10.45,18.68.78,3.46.45,6.93.07,10.44-.62,5.69-1.96,11.49,2.51,16.56,3.25,3.69,7.52,6.13,11.84,7.15,12.53,2.96,24.36,7.56,36.13,12.63,3.83,1.65,8.38,2.24,13,.73,8.28-2.7,16.43-5.5,23.9-10.09,7.22-4.42,9.46-11.47,10.39-19.17,1.76-14.57-4.14-26.78-12.16-38.27-4.52-6.48-9.42-12.68-16.55-16.48-5.19-2.77-10.94-4.26-16.5-6.14-7.99-2.71-15.32-6.43-20.44-13.48-2.73-3.76-4.72-7.97-6.45-12.21-5.14-12.57-14.43-19.11-27.91-19.11"/>
          <path class="cls-2" d="M671.8,488.19c-4.06,1-8.24,1.54-12.18,3.05-8.5,3.26-15.36,9.03-22.16,14.81-7.31,6.22-15.41,11.17-24.42,14.23-16.25,5.5-22.09,15.56-22.54,33.15-.08,3.03-.44,6.09.36,9.14,2.65,9.98,11.47,16.61,21.77,17.03,12.3.51,22.39-3.49,29.5-13.62,3.3-4.7,4.21-10.55,5.71-16.04,1.35-4.96,3.22-9.62,6.08-13.93,4.06-6.12,11.59-8.87,19.61-7.42,4.76.86,9.42,2.28,14.34,2.27,4.54,0,8.35-1.33,11.31-4.84,5.78-6.85,9.11-15.35,5.6-22.15-3.33-6.45-9.03-10.32-15.6-13.09-5.45-2.3-11.13-2.91-16.97-2.6"/>
          <path class="cls-2" d="M248.17,456.01c-1.69.65-3.57.69-5.2,1.35-5.53,2.24-9.04,8.98-7.35,15.15,4.91,17.87,12.65,34.39,25.2,48.26,7.75,8.56,14.38,10.07,25.16,3.92,6.29-3.59,12.87-6.8,18.25-11.75,6.6-6.07,7.15-11.57,1.73-18.63-5.49-7.16-10.35-14.83-16.17-21.68-9.05-10.65-20.4-17.43-35.11-16.65-2.02.11-4.06.01-6.09.01"/>
          <path class="cls-4" d="M621.34,542.13c-2.36.98-4.81,1.67-6.13,4.33-1.9,3.83-1.77,6.41.91,8.72,2.73,2.35,5.35,2.26,8.69-.45,2.46-1.99,3.62-4.68,3.46-7.82-.19-3.69-1.7-4.74-6.5-4.79"/>
          <path class="cls-4" d="M197.72,546.47c-5.81,2.06-6.29,3.84-2.17,8.26,6.76,7.26,14.35,13.42,23.94,16.46,4.46,1.41,8.96.74,12.57-2.56,5.52-5.07,4.54-11.07-2.14-14.78-9.9-5.5-20.51-7.79-31.76-7.38"/>
          <path class="cls-2" d="M389.96,546.47c-2.56,1.66-5.52.68-8.28,1.22-7.56,1.48-13.56,6-19.97,9.69-12.54,7.22-24.53,15.41-38.26,20.51-6.65,2.47-8.56,9.01-10.46,15.13-1.93,6.23-2.96,12.74-3.31,19.14-.61,10.94-5.93,18.49-14.54,24.34-2.49,1.69-5.03,3.33-6.93,5.68-5.04,6.19-4.89,12.24.9,19.08,3.93,4.64,8.95,7.51,15.14,8.88,8.1,1.8,15.95,2.24,23.96-.1,5.88-1.72,10.37-5.2,13.9-10.05,7.84-10.77,15.4-21.69,20.93-33.9,2.55-5.63,6.95-9.57,12.56-12.21,6.68-3.15,13.25-6.41,17.88-12.56,2.15-2.86,3.83-6.05,5.02-9.22,3.26-8.64,8.48-16.08,13.15-23.9,4.45-7.45,3.48-19.85-9.06-21.06-4.09-.39-8.15-.27-12.2-.66"/>
          <path class="cls-4" d="M23.74,446.44c-5.36,2.5-6.16,5.13-2.58,9.54,2.65,3.26,5.98,5.88,8.72,9.12,4.12,4.86,6.48,10.68,9.5,16.15,4.84,8.76,12.42,12.81,22.2,13,3.12.06,4.56-2.05,3.91-5.18-1.68-8.09-6.85-13.78-13.06-18.69-6.49-5.12-12.58-10.61-17.4-17.4-2.65-3.74-5.85-6.67-10.86-6.53"/>
          <path class="cls-4" d="M533.92,440.79c-6.33.27-6.41,5.55-6.75,9.59-.3,3.69.25,7.62,1.84,11.34,1.31,3.08,3.32,3.96,6.21,3.85,10.59-.37,21.08-2.49,31.75-1.79,3.08.2,2.38-1.85,1.28-3.41-5.51-7.77-13.11-12.87-21.74-16.5-3.86-1.62-7.9-2.88-12.16-3.09"/>
          <path class="cls-4" d="M805.76,579.09c-1.04.57-2.63.99-1.26,2.57.61.7,1.87.71,2.53,0,1.04-1.13.69-2.11-.83-2.57"/>
          <path class="cls-4" d="M772.7,435.13c-8.29,3.21-10.98,9.14-9.91,19.56.85,8.21,4.38,15.51,11.26,20.38,8.33,5.88,15.49,2.47,19.52-5.58,5.61-11.2-1.96-27.81-10.46-33.03-3.07-1.89-6.6-1.29-9.99-1.33"/>
          <path class="cls-4" d="M555.23,596.93c-3.2,1.01-3.99,3.59-4.36,6.52-1.21,9.44,2.06,19,10.47,21.7,3.63,1.17,7.52.99,10.81-.91,3.97-2.29,5.05-8.31,2.16-13.8-2.75-5.22-7.05-9.16-12.11-12.21-2-1.2-4.22-1.48-6.52-1.31"/>
          <path class="cls-4" d="M770.96,422.08c-8.68,1.96-15.72,6.14-18.17,15.25-1.44,5.35-1.23,11.15-.35,16.47,2.27,13.67,8.27,25.48,19.8,33.99,7.27,5.36,17.66,5.12,24.48-1.67,7.19-7.15,10.56-15.69,10.13-25.32-.34-7.53-3.11-14.81-6.3-21.76-3.17-6.91-8.04-12.25-14.83-15.59-4.5-2.22-9.51-1.25-14.32-1.36"/>
          <path class="cls-4" d="M147.26,624.76c-2.57,1.03-1.12,2.58-.35,3.86.13.21,1.57.46,2.08-.39.98-1.64.36-2.77-1.29-3.47"/>
          <path class="cls-3" d="M583.07,470.8c-1.64.27-2.18.89-1.35,2.63,1.51,3.17,3.48,6.14,5.79,8.59,6.02,6.39,6.1,13.64,2.35,20.44-5.9,10.69-9.1,22.31-13.3,33.59-1.77,4.77-3.67,9.34-8.28,12.19-4.38,2.7-9,2.4-13.47.78-5.47-1.98-9.76-5.67-12.63-10.81-5.36-9.59-11.92-18.28-19.11-26.56-4.8-5.54-7.43-12-6.57-19.54.08-.72.13-1.47,0-2.17-.68-3.57.43-8.26-3.94-9.87-4.48-1.65-9.42-1.11-13.36,1.72-3.2,2.3-5.82,5.35-7.09,9.44-3.21,10.35-9.6,18.83-16.47,26.99-5.29,6.28-8.99,13.19-8.74,21.74.07,2.51.48,5.07,1.07,7.35,2.64,10.24,1.51,20.28-.03,30.51-1.04,6.9,0,13.84,3.83,19.96,1.66,2.65,3.53,5.18,5.19,7.85,4.43,7.12,3.27,14.62,1.73,22.19-1.72,8.42,1.07,15.59,7.47,20.77,8.94,7.24,19.43,12.07,30.41,15.16,11.25,3.16,21.03,8.43,29.51,16.28,6.46,5.99,13.67,10.66,22.21,13,7.92,2.17,15.54,1.42,22.61-3.02,7.19-4.52,15.03-6.3,23.47-7.12,11.53-1.12,23.21-1.79,34.39-5.45,6.44-2.11,11.58-6.45,17.32-9.72,3.37-1.93,6.84-3.74,10.14-5.86,7.93-5.09,8.14-12.83,7.12-20.52-.65-4.94-2.42-9.87-3.12-14.84-.96-6.78,1.06-13.28,4.67-19.09,3.82-6.16,8.65-11.57,13.45-16.98,8.87-9.99,5.56-17.06-6.53-20.46-5.84-1.64-11.98-1.09-17.84-2.6-2.29-.59-4.63-1.06-6.52-2.62-3.39-2.79-4.68-6.52-3.48-10,1.45-4.21,4.83-6.23,9.56-6.59,6.2-.47,11.7,2.1,17.37,3.67,6.17,1.71,11.26-.14,14.68-4.58,6.97-9.03,12.13-19.27,16.14-29.94,2.95-7.84.24-15.36-4.84-21.15-9.52-10.84-20.88-19.3-35.52-22.33-12.35-2.56-24.55-1.46-36.51,1.87-6.35,1.77-12.65,3.83-19.18,4.57-5.47.62-10.92-.81-16.05-2.6-7.04-2.45-14.17-4.49-21.34-6.46-1.6-.44-3.19-.38-4.79-.41"/>
          <path class="cls-4" d="M748.34,645.64c-12.09,3.65-16.83,13.21-19.57,24.36-1.46,5.92-1.44,11.72,2.19,16.95,5.41,7.8,20.06,11.2,28.71,7.01,6.13-2.97,8.54-8.56,9.82-14.43,1.26-5.79,1.68-11.8,1.97-17.79.4-8.43-8.15-15.6-15.73-16.07-2.31-.15-4.64-.02-6.96-.02"/>
          <path class="cls-4" d="M789.66,389.46c-12.02,2.52-24.16,4.82-35.61,9.27-8.34,3.24-15.67,8.21-19.26,17.23-1.47,3.7-2.21,7.52-2.45,11.34-.73,11.89.8,23.61,3.36,35.23,1.62,7.36,4.97,13.98,9.26,19.93,7.65,10.6,15.46,21.13,25.13,30.08,5.3,4.91,11.32,8.43,18.71,8.64,6.09.18,11.59-1.85,16.08-6.05,9.96-9.32,17.16-20.7,23.4-32.66,2.47-4.73,2.84-10.32,2.6-15.6-.42-9.13-1.58-18.24-1.19-27.41.15-3.49.82-6.92.96-10.43.32-7.84-3-13.2-9.66-17-6.88-3.93-13.65-8.03-19.19-13.86-1.44-1.51-2.53-3.26-3.89-4.81-2.07-2.36-4.55-3.95-7.82-3.92"/>
          <path class="cls-4" d="M232.51,664.78c-10.75,3.81-16.42,11.24-16.07,21.31.21,6.07,3.24,10.86,8.31,13.8,4.2,2.43,9.11.73,11.27-4.22,1.35-3.08,2.34-6.27,2.53-9.58.28-4.77,1.98-9.31.72-14.41-.98-3.97-2.92-5.78-6.32-6.9"/>
          <path class="cls-4" d="M697.46,339.01c-2.92.44-5.29,1.89-7.4,3.9-6.18,5.88-11.53,12.53-17.4,18.7-5.46,5.73-12.13,10.18-17.34,16.15-4.53,5.19-6.55,10.95-5.01,18.27,1.6,7.6,9.62,13.6,17.9,8.89,13.24-7.53,26.06-15.98,32.36-31.08,3.28-7.85,5.88-15.75,5.61-24.38-.2-6.27-2.77-9.55-8.27-10.44"/>
          <path class="cls-4" d="M470.86,691.74c-8.34,3.88-9.96,18.74-2.61,23.92,3.54,2.49,9.12,1.73,13.01-2.21,4.19-4.25,8.46-8.35,13.99-10.76,1.22-.53,2.41-1.29,3.86-1.52.65-.1,2.42-.44,2.17-2.03-.18-1.13-1.28-1.53-2.16-1.7-9.3-1.8-18.12-5.9-27.83-5.69"/>
          <path class="cls-4" d="M447.37,327.27c-9.05,3.21-11.79,6.97-11.74,16.09.04,7.86,3.94,11.53,11.74,10.86,9.76-.84,16.68-11.89,14.38-19.13-1.65-5.21-6.12-7.82-13.94-7.82"/>
          <path class="cls-4" d="M95.07,323.79c-3.69.54-5.92,2.95-7.37,6.1-3.07,6.67-7.07,12.76-11.34,18.69-4.76,6.6-2.71,12.41,3.41,16.65,8.14,5.65,17.73,8.08,26.18,12.93,8.28,4.75,17.21,7.58,26.52,9.64,12.42,2.75,23.7,8.33,34.37,15.16,4.79,3.07,9.54,6.17,15.23,7.39,2.76.59,5.3,0,6.88-2.24,1.39-1.96.4-4.18-.84-6-.4-.59-.74-1.25-1.26-1.77-10.13-10.38-19.29-21.85-32.2-29.12-10.75-6.06-20.69-13.14-29.13-22.2-4-4.3-7.58-8.95-11.29-13.5-4.93-6.05-10.7-10.66-18.72-11.73"/>
          <path class="cls-4" d="M687.45,301.17c-7.44,2.31-7.77,8.87-8.15,14.79-1.01,15.47-7.24,27.92-19.16,37.93-6.73,5.65-14.16,10.64-19.27,18.13-4.16,6.11-6.14,12.98-6.71,20.06-.37,4.55-.93,9.15-.44,13.93.8,7.86,4.94,12.53,11.59,15.09,8.34,3.21,17.02,4.95,26.06,2.75,3.81-.93,7.13-2.6,10-5.25,16.06-14.82,27.1-32.96,35.25-53.05,4.72-11.62,10.98-22.4,18.2-32.66,4.31-6.12,3.57-11.44-1.7-16.5-2.64-2.54-5.69-4.4-9.13-5.67-6.55-2.42-13.27-4.28-20-6.11-5.31-1.44-10.32-4.23-16.1-3.45"/>
          <path class="cls-4" d="M811.85,713.49c-2.26.56-4.28,1.75-6.05,3.1-4.46,3.41-5.31,9.73-2.2,15.16,2.87,5.01,5.56,10.14,8.38,15.16,4.9,8.71,12.71,13.12,22.91,13.65,7.89.41,9.43-5.5,8.62-10.52-1.43-8.97-5.38-16.9-11.7-23.47-3.69-3.84-7.16-7.99-11.73-10.87-2.33-1.47-4.94-2.4-7.81-2.21"/>
          <path class="cls-4" d="M844.9,292.47c-7.55,1.73-10.95,7.94-13.79,13.98-6.15,13.1-15.71,22.43-28.35,29.18-5.63,3-10.92,6.61-14.92,12.03-9.81,13.29-3.52,25.22,6.28,33.85,1.96,1.72,5.48.93,8.13.08,7.16-2.29,13.94-5.57,21.29-7.47,8.77-2.27,17.54-3.15,26.56-3.55,6.66-.29,13.51.16,20.04-2.35,7.6-2.92,11.46-7.69,7.86-17.48-2.18-5.93-5.6-11.15-8.79-16.48-5.01-8.37-6.6-17.8-9.17-26.97-2.1-7.47-5.84-13.81-14.7-14.81"/>
          <path class="cls-2" d="M390.83,721.32c-4.86,1-9.62,2.84-13.38,5.79-8.66,6.79-10.85,13.02-7.35,25.05,2.04,7.02,4.63,13.93,6.69,20.96,2.47,8.39,7.7,13.74,15.8,15.96,9.23,2.53,16.88,7.19,23.04,14.44.79.93,1.61,1.94,2.62,2.59,8.22,5.25,12.4,7.3,21.8.12,2.83-2.16,5.38-4.53,7.71-7.1,5.33-5.89,4.89-12.72,3.2-19.98-1.82-7.79-4.65-14.83-10.99-19.96-8.85-7.15-15.46-16.23-22.17-25.24-2.22-2.99-5.01-5.41-7.79-7.87-5.48-4.84-12-5.1-18.73-4.75"/>
          <path class="cls-4" d="M228.16,262.9c-1.3.43-2.89.54-3.86,1.37-2.02,1.74-4.41,3.46-3.14,6.9,1.3,3.5,4.63,6,8.29,5.6,2.15-.24,4.28-.96,6.06-2.18,1.89-1.29,2.65-3.48,2.12-5.59-.64-2.59-2.39-4.68-5.15-5.15-1.34-.23-2.52-1.01-3.9-.96"/>
          <path class="cls-2" d="M222.94,225.49c-7.83,3.61-15.41,7.86-23.52,10.77-5.93,2.13-7.31,7.07-7.15,11.84.33,10.4-1.65,20.57-2.03,30.88-.2,5.38,1.58,9.75,5.8,12.53,10.62,7,21.96,10.9,35.21,9.02,7.29-1.04,14.28-3.58,21.71-3.75,4.97-.11,9.47,1.32,13.45,4.01,7.07,4.77,14.04,9.51,22.64,11.32,9.22,1.94,18.5,2.34,27.85,2.07,4.18-.12,7.24-2.77,7.26-7.36.04-7.68-.24-15.41-3.72-22.64-2.72-5.65-7.46-7.8-13.11-8.15-5.92-.37-11.89-.18-17.83-.05-3.53.08-7.08-.49-10.39-1.14-5.43-1.06-10.07-4.09-13.6-8.85-5.53-7.45-10.56-15.39-17.4-21.72-6.32-5.86-11.91-12.51-19.02-17.54-1.87-1.32-3.73-1.17-5.7-1.24"/>
          <path class="cls-4" d="M289.92,194.18c-4.58,1.52-9.39,1.56-14.01,3.72-11.97,5.61-14.86,20.83-8.19,31.52,4.49,7.19,9.99,12.94,18.71,14.8,8.92,1.9,20.24-1.81,23.58-12.17,3.39-10.54,2.72-20.73-.98-30.9-1.37-3.76-4.77-5.65-8.25-5.91-3.49-.25-6.9-1.33-10.42-1.06"/>
          <path class="cls-2" d="M672.67,750.02c-11.18,3.17-21.98,7.14-31.33,14.34-5.77,4.44-9.39,10-10.02,17.41-.44,5.2,1.5,8.42,7.43,10.43,6.35,2.16,12.96,3.2,19.58,3.83,6.16.58,12.02-1.6,16.41-5.68,6.59-6.14,11.29-13.58,14.23-22.43,2.95-8.86-5.15-19.45-14.12-17.91-.56.1-1.16.01-1.74.01"/>
          <path class="cls-4" d="M556.1,172.43c-12.4,6.06-20.49,15.94-25.2,28.72-1.95,5.27,1.25,12.27,9.11,12.21,7.84-.06,15.14-2.64,22.6-4.44,2.21-.53,4.44-.85,6.58-2.04,6.62-3.68,9.04-8.52,6.41-15.28-3.3-8.51-8.14-15.87-17.34-19.14-.52-.18-1.15-.02-1.73-.02"/>
          <path class="cls-4" d="M254.26,151.55c-2.46.87-5.18,1.68-6.89,3.54-7.78,8.5-16.6,15.24-27.41,19.66-7.39,3.02-13.01,8.99-17.34,15.59-5.15,7.83-12.73,9.61-21,9.86-15.2.46-26.89,6.51-34.38,20.06-1.83,3.3-3.78,6.54-6.03,9.6-3.55,4.84-8.01,6.55-13.97,5.3-2.78-.59-5.83-.45-8.66,0-3.19.49-5.98,1.92-7.01,5.55-1.35,4.76-.79,9.16,2.23,13.04,5.29,6.79,12.8,9.77,20.85,11.78,3.32.83,6.66,1.66,10.02,2.07,5.97.72,8.73,4.24,10.01,9.66,2,8.5,5.14,16.52,8.97,24.43,5.89,12.18,15.83,17.13,28.42,17.66,11,.47,22.03.18,33.05.06,5.11-.06,10.25-.94,15.18-1.91,9.12-1.8,17.53-.15,25.66,3.35,7.87,3.38,15.93,6.2,24,8.94,13.93,4.72,24.31,13.08,30.48,26.6,1.41,3.08,3.82,5.65,5.93,8.37,7.39,9.54,21.18,5.37,25.41-5.69,3.25-8.5,1.94-16.53-.46-24.84-4.06-14.08-4.1-28.2.78-42.18.66-1.88,1.73-3.36,3.05-4.8,2.01-2.21,4.1-2.08,6.56-.87,3.98,1.97,7.15,5.01,10.4,7.89,11.17,9.88,23.27,18.65,33.99,29.07,9.47,9.2,10.64,20.53,9.05,32.65-.51,3.87-1.57,7.63-2.93,11.34-1.53,4.16-3.89,6.94-8.29,8.36-2.94.94-5.93,1.86-8.8,3.23-3.79,1.81-5.67,4.7-6.4,8.41-.82,4.17.74,7.84,3.87,9.05,3.8,1.47,7.58.6,10.81-1.73,2.33-1.68,4.27-3.96,5.65-6.49,3.05-5.57,8.23-7.58,13.96-8.66,13.6-2.57,26.54-7.38,39.53-11.89,7.06-2.45,11.37-7.82,13.24-15.49,1.76-7.23,1.87-14.2.29-21.35-2.73-12.36-12.37-16-23.06-18.25-5.51-1.16-11.04-2.26-16.56-3.33-9.34-1.81-15.91-7.07-21.75-14.06-9.83-11.78-21.18-21.66-36.08-26.51-5.51-1.79-11.29-2.74-16.96-3.87-8.33-1.66-14.25-6.64-19.52-12.74-1.42-1.64-2.88-3.2-4.38-4.76-6.18-6.43-6.67-5.04-12.55-.35-5.87,4.68-11.93,8.77-19.21,10.78-17.88,4.95-32.08-.46-43.09-15.19-3.69-4.94-6.97-10.02-9.62-15.64-6.32-13.44,1.72-35.84,15.68-41.93,3.92-1.71,8.02-3.42,11.39-6.36,6.16-5.36,6.46-10.39.73-17.33-5.42-6.57-13.23-9.11-21.63-9.65-1.59-.1-3.19-.01-4.78-.01"/>
          <path class="cls-2" d="M783.14,769.16c-6.33,2.24-10.63,7.99-10.84,14.79-.09,2.75-.65,5.67.47,8.23,1.78,4.09,7.35,6.07,11.67,4.36,5.43-2.15,9.61-5.91,12.59-10.87,2.54-4.25,1.67-9.65-2.18-12.53-3.26-2.44-6.77-4.77-11.26-3.97"/>
          <path class="cls-2" d="M556.1,146.33c-6.99,1.56-11.27,6.37-14.8,12.17-5.62,9.23-12.35,17.58-20.43,24.79-14.68,13.1-11.15,31.63-.39,43.9,11.15,12.71,26.47,17.73,42.17,21.71,5.21,1.32,10.54,2.3,15.71-1.13,2.65-1.76,4.1-4.29,5.48-6.69,6.11-10.62,10.88-21.88,13.53-33.88,2.29-10.39.4-19.5-8.11-27.06-7.33-6.52-13.02-14.56-17.52-23.37-1.04-2.04-2.42-3.88-3.85-5.7-2.95-3.75-6.63-5.41-11.35-4.75"/>
          <path class="cls-3" d="M246.43,132.42c-9.17,2.4-16.01,8.69-22.93,14.49-5.72,4.79-11.96,8.55-18.44,11.94-5.69,2.98-10.7,6.86-14.16,11.94-7.79,11.43-19.31,15.44-31.91,17.17-9.14,1.25-18.04,2.84-26.54,6.59-6.54,2.89-12.5,1.7-17.38-3.85-5.22-5.92-11.66-9.53-19.54-11-4.66-.87-9,.31-13,1.63-7.17,2.37-14.2,5.39-20.53,9.77-8.44,5.85-9.57,16.32,1.28,21.43,3.97,1.87,8.14,3.19,12.25,4.1,11.53,2.56,16.24,10.48,17.27,21.05,1.74,17.79,10.99,29.95,26.61,37.86,4.28,2.17,8.44,4.57,12.63,6.93,9.29,5.21,14.23,14.05,18.61,23.1,4.89,10.1,11.5,18.48,21.43,23.82,5.35,2.88,11.18,4.34,17.35,4.95,15.22,1.51,30.46.2,45.67.85,4.83.21,9.69,1.02,14.35,2.53,9.91,3.21,12.49,11.36,13.97,20.43,1.02,6.21,2.59,12.36,4.79,18.25,4.48,12.02,14.31,17.35,26.02,20.54,9.58,2.61,18.82,1.34,28.32-.37,8.42-1.52,17.01-2.49,25.65-.65,3.93.84,6.06,3.02,7.41,6.58,1.54,4.06,2.78,8.32,5.63,11.75,5.53,6.66,13.09,8.88,21.3,9.57,12.13,1.01,22.96-3.72,33.92-7.82,9.17-3.43,16.91-8.63,23.18-16.42,5.03-6.24,12.19-9.84,20.32-10.46,6.21-.48,12.09,1.8,17.8,3.9,9.32,3.43,16.9,9.68,24.41,15.99,2.45,2.06,5.06,4.87,8.63,2.99,3.45-1.82,3.69-5.53,3.98-9.05,1.18-14.67-4.85-27.2-12.79-38.6-8.82-12.67-13.98-26.46-16.86-41.42-1.68-8.74-6.81-14.84-15.6-17.4-6.48-1.89-12.87-4.03-19.13-6.56-8.43-3.41-13.99-10.32-19.47-17.03-3.18-3.9-6.85-7.06-11.04-9.37-10.84-5.99-21.41-12.54-32.61-17.84-6.91-3.27-14.21-5.81-20.8-9.71-7.92-4.68-13.26-11.54-16.2-20.36-1.16-3.48-2.54-6.94-3.32-10.48-2.46-11.17-9.88-16.54-20.54-18.16-2.3-.35-4.63-.78-6.92-1.1-5.82-.83-10.28-3.31-12.41-9.79-1.78-5.41-4.06-10.72-5.85-16.17-3.33-10.12-8.69-18.46-18.24-24-7.89-4.58-15.56-9.52-24.42-12.05-3.82-1.09-7.82-.3-11.73-.47"/>
          <path class="cls-4" d="M778.79,116.76c-6.32,1.91-12.46,4.11-18.33,7.27-4.69,2.53-8.46,5.8-11.18,10.16-3.38,5.42-3.64,14.56,1.69,19.96,1.94,1.97,3.75,4.13,6.09,5.64,8.23,5.33,10.49,13.77,11.68,22.64,1.2,8.89,5.77,12.34,13.56,13.28,5.38.65,10.96.47,16.53-.54,11.4-2.07,23.13-15.44,23.05-29.71-.04-7.15-4.03-12.42-8.36-17.33-5.27-5.98-9.88-12.24-13.07-19.59-.85-1.96-2.05-3.89-3.31-5.75-4.5-6.66-11.17-6.34-17.9-6.04"/>
          <path class="cls-4" d="M854.47,104.58c-2.51.9-5.47,1.91-4.63,5.18.58,2.26,3.43,2.6,5.48,2.11,2.21-.53,5.74-.32,5.56-3.8-.18-3.5-3.26-3.51-5.97-3.49"/>
          <path class="cls-4" d="M508.26,104.58c-1.95.66-4.52,1.23-3.8,3.88.81,2.97,3.17,5.06,6.41,5.18,2.53.09,4.95-.33,6.18-3.37.8-2-.42-2.81-1.44-3.45-2.07-1.28-4.24-2.65-6.92-2.24"/>
          <path class="cls-2" d="M449.11,104.58c-11.5,2.59-15.78,13.96-16.85,23.5-.91,8.09.57,15.81,6.39,22.2,3.01,3.3,6.7,5.65,10.5,7.75,8.75,4.81,16.59,10.93,24.81,16.51,3.38,2.29,7.26,4.1,11.69,2.69,5.43-1.73,9.59-7.85,10.03-14.35.5-7.34-1.84-13.36-6.92-18.77-6.97-7.43-14.09-14.79-19.62-23.43-2.98-4.67-7-8.37-10.94-12.12-2.36-2.25-5.17-3.95-8.66-3.96"/>
          <path class="cls-4" d="M450.85,88.05c-16.57,3.46-23.13,16.22-27.22,30.5-2.56,8.95-3.64,18.36-3.67,27.78-.02,6.63,2.06,12.76,7.49,16.39,11.14,7.44,21.79,15.36,31.28,24.87,5.39,5.41,12.52,8.49,19.57,10.75,10.79,3.45,17.68,10.53,22.55,20.19,8.87,17.6,22.58,30.78,38.26,42.22,4.22,3.08,9.16,4.1,13.95,5.6,5.54,1.74,10.87,3.8,15.23,7.84,5.75,5.32,6.64,11.99,5.15,19.14-1.17,5.62-2.39,11.18-2.13,16.97.45,9.88,2.66,19.21,9.19,26.93,6.18,7.31,14.75,9.81,22.64,1.4,8.15-8.68,11.63-19.16,13.42-30.51.73-4.61.79-9.26.93-13.92.24-7.99-1.5-15.52-3.89-23.08-2.55-8.03-5.74-15.99-4.95-24.77.19-2.15.58-4.18,1.42-6.06,2.39-5.35,6.32-6.65,11.7-3.92,5.91,3,11.77,5.77,18.71,5.71,10.17-.08,18.81-3.58,26.08-10.53,4.3-4.11,8.15-8.72,12.7-12.52,6.66-5.55,7.69-12.1,5.7-20.11-1.54-6.19-1.32-12.78,1.3-18.63,5.51-12.3,7.54-25.56,10.92-38.4,2.4-9.11-1.72-11.92-10.12-9.8-12.24,3.08-24.59,3.15-37,2.86-4.5-.11-8.12,1.43-11.31,4.4-4.15,3.86-7.66,8.3-11.31,12.61-7.31,8.66-16.83,12.11-27.82,10.76-7.43-.91-11.53-6.62-14.28-12.97-2-4.61-3.38-9.49-4.92-14.3-3.23-10.07-11.98-12.04-19.52-10.47-10.1,2.1-18.52,7.62-26.91,13.15-1.74,1.15-3.54,2.24-5.25,3.43-4.25,2.99-8.9,3.12-13.02.72-10.06-5.87-20.54-11.32-28.3-20.36-5.09-5.93-8.59-13.05-13.54-19.09-5.95-7.26-12.27-14.13-22.59-14.81"/>
          <path class="cls-4" d="M388.22,88.05c-6.71,1.38-12.82,3.94-18.31,8.2-5.25,4.08-8.2,9.24-7.21,15.7,1.02,6.71,5.11,11.3,12.03,13.11,6.82,1.78,15.7-1.89,19.53-8.76,3.36-6.03,4.74-12.67,3.9-19.54-.65-5.38-4.37-7.95-9.5-8.71"/>
          <path class="cls-2" d="M104.64,67.18c-8.12,2.27-16.25,4.2-24.79,4.44-8.16.23-14.89,3.7-20.06,10.31-4.13,5.28-8.57,10.31-11.28,16.56-.68,1.57-1.41,3.17-1.66,4.8-1.39,9.2,4.64,13.14,13.43,12.2,7.77-.83,13.56-5.43,18.57-10.59,5.77-5.95,12.81-9.71,19.74-13.72,5.85-3.38,10.56-7.53,13.02-13.98,2.4-6.28.28-9.61-6.54-10.01"/>
          <path class="cls-2" d="M199.46,49.78c-6.59,1.54-11.46,5.98-16.5,10.04-6.17,4.96-12.31,9.98-17,16.49-2.69,3.73-2.53,6.65.89,9.55,6,5.08,13.07,4.84,19.96,2.95,6.95-1.9,13.69-4.57,20.05-8.12,11.61-6.49,10.89-22.75.81-29.54-2.22-1.5-5.06-1.62-7.79-1.37"/>
          <path class="cls-4" d="M768.35,34.12c-5.15,1.37-10.33,2.22-14.45,6.43-5.47,5.58-7.67,12.31-8.56,19.67-.5,4.17-1.65,8.26-.15,12.64,1.8,5.27,4.71,7.79,10.1,8.28,12.43,1.13,24.69-.41,36.97-1.81,6.05-.69,9.44-4.75,9.6-10.85.16-6.03-.84-11.96-1.88-17.81-1.49-8.41-8.47-13.92-18.15-15.73-4.35-.81-8.69-.79-13.06-.81"/>
          <path class="cls-4" d="M267.74,482.54c-1.15.52-2.29,1.1-2.16,2.61.19,2.09.95,4,3.05,4.71,1.03.35,2.39.39,3.06-1.22.9-2.17.43-3.93-1.39-5.16-.56-.38-1.12-1.35-2.13-.94"/>
          <path class="cls-4" d="M771.83,409.9c-5.76,1.39-11.68,2.09-16.99,5.17-6.86,3.97-11.18,9.71-12.07,17.46-2.5,21.65,3.54,40.65,18.12,57.03,4.54,5.1,9.26,10.07,15.36,12.84,10.4,4.72,19.32,3.32,27.25-5.15,6.65-7.1,11.44-15.55,13.48-25.17,1.41-6.6.75-13.38-.42-19.98-.99-5.56-2.1-11.19-3.94-16.51-5.21-15.06-22.92-27.31-38.18-25.7-.72.08-1.45,0-2.17,0"/>
        </g>
        <g>
          <circle class="cls-7" cx="282.44" cy="505.91" r="12"/>
          <circle class="cls-7" cx="252.44" cy="471.77" r="12"/>
        </g>
        <circle class="cls-7" cx="382.3" cy="478.19" r="9"/>
        <g>
          <circle class="cls-7" cx="346.15" cy="132.35" r="6"/>
          <circle class="cls-7" cx="379.67" cy="112.02" r="9"/>
          <circle class="cls-7" cx="376.67" cy="140.35" r="3"/>
          <circle class="cls-7" cx="337.15" cy="150.07" r="3"/>
        </g>
        <circle class="cls-7" cx="824.05" cy="215.92" r="3"/>
        <g>
          <circle class="cls-7" cx="689.02" cy="189.17" r="9"/>
          <circle class="cls-7" cx="664.05" cy="189.17" r="3"/>
          <circle class="cls-7" cx="699.51" cy="212.92" r="3"/>
        </g>
        <circle class="cls-7" cx="456.54" cy="606.18" r="3"/>
        <circle class="cls-7" cx="442.91" cy="893.31" r="12"/>
        <g>
          <circle class="cls-7" cx="711.51" cy="264.08" r="3"/>
          <circle class="cls-7" cx="705.51" cy="284.42" r="6"/>
        </g>
        <g>
          <circle class="cls-7" cx="538.78" cy="51.7" r="9"/>
          <circle class="cls-7" cx="564.95" cy="66.7" r="6"/>
        </g>
        <circle class="cls-7" cx="860.58" cy="606.18" r="3"/>
        <g>
          <circle class="cls-7" cx="449.06" cy="335.66" r="3"/>
          <circle class="cls-7" cx="419.83" cy="326.13" r="3"/>
          <circle class="cls-7" cx="439.48" cy="320.13" r="3"/>
          <circle class="cls-7" cx="425.83" cy="363.05" r="3"/>
        </g>
        <g>
          <circle class="cls-7" cx="224.4" cy="260.42" r="18"/>
          <circle class="cls-7" cx="168.46" cy="254.42" r="12"/>
          <circle class="cls-7" cx="179.89" cy="290.42" r="3"/>
          <circle class="cls-7" cx="239.4" cy="189.17" r="3"/>
        </g>
        <circle class="cls-7" cx="567.9" cy="603.18" r="9"/>
        <g>
          <circle class="cls-7" cx="696.51" cy="348.38" r="3"/>
          <circle class="cls-7" cx="661.05" cy="391.74" r="9"/>
        </g>
        <g>
          <circle class="cls-7" cx="387.37" cy="744.32" r="6"/>
          <circle class="cls-7" cx="428.83" cy="786.95" r="6"/>
          <circle class="cls-7" cx="397.19" cy="779.32" r="6"/>
          <circle class="cls-7" cx="405.58" cy="744.32" r="3"/>
        </g>
        <g>
          <circle class="cls-7" cx="676.15" cy="766.4" r="9"/>
          <circle class="cls-7" cx="631.91" cy="756.32" r="6"/>
          <circle class="cls-7" cx="609.46" cy="786.95" r="9"/>
          <circle class="cls-7" cx="591.67" cy="758.19" r="3"/>
        </g>
        <use width="6" height="6" transform="translate(529.78 442.16) scale(3.78)" xlink:href="#square"/>
        <g>
          <use width="6" height="6" transform="translate(284.52 365.55) scale(1.89)" xlink:href="#square"/>
          <use width="6" height="6" transform="translate(304.8 368.87) scale(1.89)" xlink:href="#square"/>
          <use width="6" height="6" transform="translate(278.85 348.38) scale(1.89)" xlink:href="#square"/>
        </g>
        <use width="6" height="6" transform="translate(504.64 437.84) scale(1.89)" xlink:href="#square"/>
        <g>
          <use width="6" height="6" transform="translate(290.21 207.88) scale(2.83)" xlink:href="#square"/>
          <use width="6" height="6" transform="translate(316.63 208.38) scale(2.83)" xlink:href="#square"/>
          <use width="6" height="6" transform="translate(313.8 228.3) scale(.94)" xlink:href="#square"/>
          <use width="6" height="6" transform="translate(287.37 234.3) scale(.94)" xlink:href="#square"/>
        </g>
        <g>
          <use width="6" height="6" transform="translate(446.63 126.35) scale(5.67)" xlink:href="#square"/>
          <use width="6" height="6" transform="translate(449.57 167.22) scale(2.83)" xlink:href="#square"/>
          <use width="6" height="6" transform="translate(446.73 114.51) scale(.94)" xlink:href="#square"/>
          <use width="6" height="6" transform="translate(473.56 117.35) scale(.94)" xlink:href="#square"/>
          <use width="6" height="6" transform="translate(508.14 106.36) scale(.94)" xlink:href="#square"/>
          <use width="6" height="6" transform="translate(491.91 134.85) scale(2.83)" xlink:href="#square"/>
        </g>
        <g>
          <use width="6" height="6" transform="translate(176.65 754.3) scale(5.67)" xlink:href="#square"/>
          <use width="6" height="6" transform="translate(230 755.53) scale(.94)" xlink:href="#square"/>
          <use width="6" height="6" transform="translate(222.35 776.81) scale(.94)" xlink:href="#square"/>
          <use width="6" height="6" transform="translate(201.72 735.89) scale(2.83)" xlink:href="#square"/>
        </g>
        <g>
          <circle class="cls-7" cx="173.89" cy="467.66" r="9"/>
          <circle class="cls-7" cx="197.27" cy="502.91" r="3"/>
          <circle class="cls-7" cx="133.2" cy="476.66" r="3"/>
          <use width="6" height="6" transform="translate(130.54 443.84) scale(1.89)" xlink:href="#square"/>
          <use width="6" height="6" transform="translate(200.43 476.83) scale(.94)" xlink:href="#square"/>
        </g>
        <use width="6" height="6" transform="translate(585.84 462) scale(.94)" xlink:href="#square"/>
        <use width="6" height="6" transform="translate(553.28 435.01) scale(.94)" xlink:href="#square"/>
        <use width="6" height="6" transform="translate(530.5 472.53) scale(.94)" xlink:href="#square"/>
        <g>
          <use width="6" height="6" transform="translate(741.41 665.33) scale(3.78)" xlink:href="#square"/>
          <use width="6" height="6" transform="translate(753.07 627.51) scale(1.89)" xlink:href="#square"/>
          <use width="6" height="6" transform="translate(714.68 647.44) scale(.94)" xlink:href="#square"/>
          <use width="6" height="6" transform="translate(746.91 647.44) scale(.94)" xlink:href="#square"/>
          <use width="6" height="6" transform="translate(705.85 678.82) scale(1.89)" xlink:href="#square"/>
        </g>
        <g>
          <use width="6" height="6" transform="translate(799.16 425.35)" xlink:href="#Cross"/>
          <use width="6" height="6" transform="translate(749.74 419.35)" xlink:href="#Cross"/>
          <use width="6" height="6" transform="translate(787.19 394.74)" xlink:href="#Cross"/>
          <use width="6" height="6" transform="translate(776.52 448.42) scale(3)" xlink:href="#Cross"/>
          <use width="6" height="6" transform="translate(781.19 492.5) scale(2)" xlink:href="#Cross"/>
          <use width="6" height="6" transform="translate(767.52 425.35) scale(2)" xlink:href="#Cross"/>
        </g>
        <g>
          <use width="6" height="6" transform="translate(394.82 554.12)" xlink:href="#Cross"/>
          <use width="6" height="6" transform="translate(328.15 557.12)" xlink:href="#Cross"/>
          <use width="6" height="6" transform="translate(321.99 585.18) scale(6)" xlink:href="#Cross"/>
          <use width="6" height="6" transform="translate(311.63 641.44) scale(2)" xlink:href="#Cross"/>
          <use width="6" height="6" transform="translate(288.44 615.18) scale(2)" xlink:href="#Cross"/>
          <use width="6" height="6" transform="translate(361.3 579.18) scale(2)" xlink:href="#Cross"/>
        </g>
        <g>
          <use width="6" height="6" transform="translate(545.61 219.37)" xlink:href="#Cross"/>
          <use width="6" height="6" transform="translate(533.78 231.13)" xlink:href="#Cross"/>
          <use width="6" height="6" transform="translate(557.61 234.13)" xlink:href="#Cross"/>
          <use width="6" height="6" transform="translate(548.61 150.42) scale(3)" xlink:href="#Cross"/>
          <use width="6" height="6" transform="translate(566.34 210.37) scale(2)" xlink:href="#Cross"/>
          <use width="6" height="6" transform="translate(551.61 174.17) scale(2)" xlink:href="#Cross"/>
          <use width="6" height="6" transform="translate(533.78 197.92) scale(2)" xlink:href="#Cross"/>
        </g>
      </g>
    </symbol>
    <symbol id="square" viewBox="0 0 6 6">
      <polygon class="cls-7" points="0 3 3 0 6 3 3 6 0 3"/>
    </symbol>
    <clipPath id="clippath">
      <path class="cls-1" d="M9.29,140.18L43.85,19.94c.54-1.8,1.8-2.88,3.6-2.88h51.66c26.28,0,32.58,15.84,26.28,37.98l-5.58,19.44c-6.66,23.04-21.78,37.8-48.06,37.8h-27.54l-7.92,27.9c-.54,1.8-1.98,2.88-3.78,2.88H11.27c-1.8,0-2.52-1.08-1.98-2.88ZM76.43,88.16c7.2,0,13.68-3.24,16.74-14.4l5.04-18c3.06-10.98-1.08-14.58-8.28-14.58h-25.38l-13.5,46.98h25.38ZM121.79,140l23.94-84.06c.72-1.98,2.16-2.88,3.96-2.88h20.7c1.08,0,2.34.9,1.8,2.88l-1.62,5.94h2.88c5.4-5.94,13.5-9.54,22.86-9.54h1.08c18.18,0,21.24,9.54,16.2,27.36l-1.98,7.02c-.54,2.16-1.98,2.88-3.78,2.88h-18.54c-1.98,0-2.52-1.26-1.98-3.24,2.34-6.84-.18-10.62-6.48-10.62h-3.6c-5.58,0-11.7,3.06-13.5,9.72l-15.48,54.54c-.72,1.98-2.7,3.06-3.78,3.06h-20.7c-1.8,0-2.52-1.08-1.98-3.06ZM217.73,112.1l7.92-27.9c5.58-19.26,17.46-31.86,41.58-31.86h12.78c23.94,0,29.88,12.6,24.3,31.86l-7.92,27.9c-5.58,19.08-17.46,31.86-41.58,31.86h-12.78c-23.94,0-29.88-12.78-24.3-31.86ZM269.93,111.56l7.74-27c1.98-6.3-1.26-8.82-5.76-8.82h-9c-4.86,0-9,2.52-10.98,9l-7.74,26.82c-1.8,6.48,1.44,8.82,5.94,8.82h9c4.86,0,9.18-2.34,10.8-8.82ZM321.95,110.66l9.9-34.38h-11.16c-2.34,0-3.06-1.08-2.52-3.42l4.86-16.38c.54-2.34,1.98-3.42,4.32-3.42h11.16l5.22-18.36c.72-1.98,1.8-3.06,3.78-3.06h20.34c1.98,0,2.88,1.08,2.34,3.06l-5.4,18.36h13.86c2.16,0,2.7,1.08,2.16,3.42l-4.86,16.38c-.54,2.34-1.8,3.42-3.96,3.42h-13.86l-10.26,35.46c-1.98,6.66.72,9.18,7.2,9.18,3.96,0,5.22,1.62,4.14,5.22l-3.24,10.26c-1.62,5.22-4.86,7.56-14.94,7.56-26.64,0-24.48-14.58-19.08-33.3Z"/>
    </clipPath>
  </defs>
  <g id="outlined-8" data-name="outlined">
    <g>
      <g class="cls-8">
        <rect class="cls-5" x="4.55" y="-6.65" width="385.08" height="204.51"/>
        <use class="cls-6" width="892.5" height="905.31" transform="translate(-63.39 -232.67) scale(.72)" xlink:href="#Space"/>
      </g>
      <g>
        <path class="cls-5" d="M399.01,111.74c0-1.98,1.08-2.88,2.88-2.88h7.56c1.8,0,3.06.9,3.06,2.88.18,14.22,9.54,19.44,25.02,19.44h9.36c15.3,0,23.94-5.76,23.94-21.96,0-17.1-10.44-20.88-25.74-23.76l-7.92-1.44c-21.06-3.78-36.9-8.28-36.9-36,0-23.22,14.04-32.22,37.08-32.22h8.28c22.68,0,35.82,10.26,35.82,32.58,0,1.98-1.08,2.88-2.88,2.88h-7.56c-1.8,0-3.06-.9-3.06-2.88-.18-14.76-8.28-20.16-23.04-20.16h-7.2c-15.12,0-23.94,4.68-23.94,20.16,0,17.1,9,21.06,23.58,23.76l7.74,1.44c21.96,3.96,39.24,8.46,39.24,35.64,0,23.94-13.14,34.38-36.36,34.38h-11.34c-24.12,0-37.62-9.54-37.62-31.86Z"/>
        <path class="cls-5" d="M505.39,172.22V55.04c0-1.62.54-2.34,2.34-2.34h8.46c1.62,0,2.34.72,2.34,2.34v7.38h1.44c4.14-6.48,11.52-10.44,22.14-10.44h5.4c19.98,0,30.6,10.44,30.6,30.42v30.78c0,19.98-10.62,30.42-30.6,30.42h-5.4c-10.62,0-18-4.14-22.14-10.62h-1.44v39.24c0,1.62-.72,2.34-2.34,2.34h-8.46c-1.8,0-2.34-.72-2.34-2.34ZM537.61,131.54h8.1c12.78,0,19.44-6.84,19.44-19.44v-28.8c0-12.42-6.66-19.26-19.44-19.26h-8.1c-12.42,0-19.08,7.02-19.08,19.08v29.34c0,12.06,6.66,19.08,19.08,19.08Z"/>
        <path class="cls-5" d="M655.32,140.36v-11.16h-1.8c-6.3,8.1-15.66,14.4-29.16,14.4h-1.08c-19.26,0-27.54-9.72-27.54-26.46v-4.68c0-16.2,10.08-22.68,27.72-22.68h31.86v-7.2c0-12.06-4.68-18.72-23.4-18.72-9.18,0-17.82,1.08-23.76,3.06-1.26.36-2.34-.18-2.52-1.44l-1.26-6.84c-.36-1.26.18-2.16,1.26-2.52,5.58-2.16,15.48-4.14,27.54-4.14h3.6c22.32,0,31.68,10.62,31.68,29.7v58.68c0,1.62-.72,2.34-2.34,2.34h-8.46c-1.8,0-2.34-.72-2.34-2.34ZM625.08,131.72h6.3c13.32,0,23.94-10.26,23.94-20.52v-11.16h-30.42c-10.26,0-16.2,2.88-16.2,13.32v3.06c0,10.98,5.76,15.3,16.38,15.3Z"/>
        <path class="cls-5" d="M689.52,112.82v-30.06c0-19.44,11.34-30.78,31.86-30.78h8.46c19.44,0,30.96,10.26,30.96,27.54v1.08c0,1.44-.72,2.34-2.34,2.34h-8.1c-1.8,0-2.34-.9-2.34-2.34v-1.08c0-9.72-6.66-15.48-18.36-15.48h-8.1c-12.42,0-18.9,6.84-18.9,18.9v29.16c0,12.42,6.84,19.8,22.68,19.8h1.26c13.5,0,18.18-2.7,22.14-9,.9-1.44,1.8-2.16,4.14-1.08l5.04,2.34c1.98.9,2.16,1.98,1.44,3.6-5.04,10.44-14.94,15.84-32.76,15.84h-1.62c-24.3,0-35.46-11.52-35.46-30.78Z"/>
        <path class="cls-5" d="M779.16,112.82v-30.06c0-19.44,11.16-30.78,31.68-30.78h8.64c20.7,0,31.68,11.16,31.68,30.42v15.12c0,3.6-2.16,5.76-5.76,5.76h-53.1v9.36c0,11.52,6.84,19.62,22.68,19.62h1.8c12.78,0,19.44-2.88,24.66-6.3,1.08-.72,2.16-.54,2.7.36l3.24,4.5c.72,1.08.72,1.98,0,2.52-5.22,5.4-16.38,10.26-30.96,10.26h-1.98c-24.48,0-35.28-11.88-35.28-30.78ZM838.02,93.02v-10.44c0-11.88-6.12-18.54-18.9-18.54h-7.92c-12.42,0-18.9,6.84-18.9,18.9v10.08h45.72Z"/>
      </g>
    </g>
  </g>
</svg>