<?xml version="1.0" encoding="UTF-8"?>
<svg id="wordmark-plain" xmlns="http://www.w3.org/2000/svg" viewBox="0 0 1024 1024">
  <defs>
    <style>
      .cls-1 {
        fill: #020617;
      }
    </style>
  </defs>
  <g id="live">
    <g>
      <g>
        <path class="cls-1" d="M86.29,557.18l34.56-120.24c.54-1.8,1.8-2.88,3.6-2.88h51.66c26.28,0,32.58,15.84,26.28,37.98l-5.58,19.44c-6.66,23.04-21.78,37.8-48.06,37.8h-27.54l-7.92,27.9c-.54,1.8-1.98,2.88-3.78,2.88h-21.24c-1.8,0-2.52-1.08-1.98-2.88ZM153.43,505.16c7.2,0,13.68-3.24,16.74-14.4l5.04-18c3.06-10.98-1.08-14.58-8.28-14.58h-25.38l-13.5,46.98h25.38Z"/>
        <path class="cls-1" d="M198.79,557l23.94-84.06c.72-1.98,2.16-2.88,3.96-2.88h20.7c1.08,0,2.34.9,1.8,2.88l-1.62,5.94h2.88c5.4-5.94,13.5-9.54,22.86-9.54h1.08c18.18,0,21.24,9.54,16.2,27.36l-1.98,7.02c-.54,2.16-1.98,2.88-3.78,2.88h-18.54c-1.98,0-2.52-1.26-1.98-3.24,2.34-6.84-.18-10.62-6.48-10.62h-3.6c-5.58,0-11.7,3.06-13.5,9.72l-15.48,54.54c-.72,1.98-2.7,3.06-3.78,3.06h-20.7c-1.8,0-2.52-1.08-1.98-3.06Z"/>
        <path class="cls-1" d="M294.73,529.1l7.92-27.9c5.58-19.26,17.46-31.86,41.58-31.86h12.78c23.94,0,29.88,12.6,24.3,31.86l-7.92,27.9c-5.58,19.08-17.46,31.86-41.58,31.86h-12.78c-23.94,0-29.88-12.78-24.3-31.86ZM346.93,528.56l7.74-27c1.98-6.3-1.26-8.82-5.76-8.82h-9c-4.86,0-9,2.52-10.98,9l-7.74,26.82c-1.8,6.48,1.44,8.82,5.94,8.82h9c4.86,0,9.18-2.34,10.8-8.82Z"/>
        <path class="cls-1" d="M398.95,527.66l9.9-34.38h-11.16c-2.34,0-3.06-1.08-2.52-3.42l4.86-16.38c.54-2.34,1.98-3.42,4.32-3.42h11.16l5.22-18.36c.72-1.98,1.8-3.06,3.78-3.06h20.34c1.98,0,2.88,1.08,2.34,3.06l-5.4,18.36h13.86c2.16,0,2.7,1.08,2.16,3.42l-4.86,16.38c-.54,2.34-1.8,3.42-3.96,3.42h-13.86l-10.26,35.46c-1.98,6.66.72,9.18,7.2,9.18,3.96,0,5.22,1.62,4.14,5.22l-3.24,10.26c-1.62,5.22-4.86,7.56-14.94,7.56-26.64,0-24.48-14.58-19.08-33.3Z"/>
      </g>
      <g>
        <path class="cls-1" d="M476.01,528.74c0-1.98,1.08-2.88,2.88-2.88h7.56c1.8,0,3.06.9,3.06,2.88.18,14.22,9.54,19.44,25.02,19.44h9.36c15.3,0,23.94-5.76,23.94-21.96,0-17.1-10.44-20.88-25.74-23.76l-7.92-1.44c-21.06-3.78-36.9-8.28-36.9-36,0-23.22,14.04-32.22,37.08-32.22h8.28c22.68,0,35.82,10.26,35.82,32.58,0,1.98-1.08,2.88-2.88,2.88h-7.56c-1.8,0-3.06-.9-3.06-2.88-.18-14.76-8.28-20.16-23.04-20.16h-7.2c-15.12,0-23.94,4.68-23.94,20.16,0,17.1,9,21.06,23.58,23.76l7.74,1.44c21.96,3.96,39.24,8.46,39.24,35.64,0,23.94-13.14,34.38-36.36,34.38h-11.34c-24.12,0-37.62-9.54-37.62-31.86Z"/>
        <path class="cls-1" d="M582.39,589.22v-117.18c0-1.62.54-2.34,2.34-2.34h8.46c1.62,0,2.34.72,2.34,2.34v7.38h1.44c4.14-6.48,11.52-10.44,22.14-10.44h5.4c19.98,0,30.6,10.44,30.6,30.42v30.78c0,19.98-10.62,30.42-30.6,30.42h-5.4c-10.62,0-18-4.14-22.14-10.62h-1.44v39.24c0,1.62-.72,2.34-2.34,2.34h-8.46c-1.8,0-2.34-.72-2.34-2.34ZM614.6,548.54h8.1c12.78,0,19.44-6.84,19.44-19.44v-28.8c0-12.42-6.66-19.26-19.44-19.26h-8.1c-12.42,0-19.08,7.02-19.08,19.08v29.34c0,12.06,6.66,19.08,19.08,19.08Z"/>
        <path class="cls-1" d="M732.32,557.36v-11.16h-1.8c-6.3,8.1-15.66,14.4-29.16,14.4h-1.08c-19.26,0-27.54-9.72-27.54-26.46v-4.68c0-16.2,10.08-22.68,27.72-22.68h31.86v-7.2c0-12.06-4.68-18.72-23.4-18.72-9.18,0-17.82,1.08-23.76,3.06-1.26.36-2.34-.18-2.52-1.44l-1.26-6.84c-.36-1.26.18-2.16,1.26-2.52,5.58-2.16,15.48-4.14,27.54-4.14h3.6c22.32,0,31.68,10.62,31.68,29.7v58.68c0,1.62-.72,2.34-2.34,2.34h-8.46c-1.8,0-2.34-.72-2.34-2.34ZM702.08,548.72h6.3c13.32,0,23.94-10.26,23.94-20.52v-11.16h-30.42c-10.26,0-16.2,2.88-16.2,13.32v3.06c0,10.98,5.76,15.3,16.38,15.3Z"/>
        <path class="cls-1" d="M766.52,529.82v-30.06c0-19.44,11.34-30.78,31.86-30.78h8.46c19.44,0,30.96,10.26,30.96,27.54v1.08c0,1.44-.72,2.34-2.34,2.34h-8.1c-1.8,0-2.34-.9-2.34-2.34v-1.08c0-9.72-6.66-15.48-18.36-15.48h-8.1c-12.42,0-18.9,6.84-18.9,18.9v29.16c0,12.42,6.84,19.8,22.68,19.8h1.26c13.5,0,18.18-2.7,22.14-9,.9-1.44,1.8-2.16,4.14-1.08l5.04,2.34c1.98.9,2.16,1.98,1.44,3.6-5.04,10.44-14.94,15.84-32.76,15.84h-1.62c-24.3,0-35.46-11.52-35.46-30.78Z"/>
        <path class="cls-1" d="M856.16,529.82v-30.06c0-19.44,11.16-30.78,31.68-30.78h8.64c20.7,0,31.68,11.16,31.68,30.42v15.12c0,3.6-2.16,5.76-5.76,5.76h-53.1v9.36c0,11.52,6.84,19.62,22.68,19.62h1.8c12.78,0,19.44-2.88,24.66-6.3,1.08-.72,2.16-.54,2.7.36l3.24,4.5c.72,1.08.72,1.98,0,2.52-5.22,5.4-16.38,10.26-30.96,10.26h-1.98c-24.48,0-35.28-11.88-35.28-30.78ZM915.02,510.02v-10.44c0-11.88-6.12-18.54-18.9-18.54h-7.92c-12.42,0-18.9,6.84-18.9,18.9v10.08h45.72Z"/>
      </g>
    </g>
  </g>
  <g id="outlined-9" data-name="outlined">
    <g>
      <g>
        <path class="cls-1" d="M86.29,557.18l34.56-120.24c.54-1.8,1.8-2.88,3.6-2.88h51.66c26.28,0,32.58,15.84,26.28,37.98l-5.58,19.44c-6.66,23.04-21.78,37.8-48.06,37.8h-27.54l-7.92,27.9c-.54,1.8-1.98,2.88-3.78,2.88h-21.24c-1.8,0-2.52-1.08-1.98-2.88ZM153.43,505.16c7.2,0,13.68-3.24,16.74-14.4l5.04-18c3.06-10.98-1.08-14.58-8.28-14.58h-25.38l-13.5,46.98h25.38Z"/>
        <path class="cls-1" d="M198.79,557l23.94-84.06c.72-1.98,2.16-2.88,3.96-2.88h20.7c1.08,0,2.34.9,1.8,2.88l-1.62,5.94h2.88c5.4-5.94,13.5-9.54,22.86-9.54h1.08c18.18,0,21.24,9.54,16.2,27.36l-1.98,7.02c-.54,2.16-1.98,2.88-3.78,2.88h-18.54c-1.98,0-2.52-1.26-1.98-3.24,2.34-6.84-.18-10.62-6.48-10.62h-3.6c-5.58,0-11.7,3.06-13.5,9.72l-15.48,54.54c-.72,1.98-2.7,3.06-3.78,3.06h-20.7c-1.8,0-2.52-1.08-1.98-3.06Z"/>
        <path class="cls-1" d="M294.73,529.1l7.92-27.9c5.58-19.26,17.46-31.86,41.58-31.86h12.78c23.94,0,29.88,12.6,24.3,31.86l-7.92,27.9c-5.58,19.08-17.46,31.86-41.58,31.86h-12.78c-23.94,0-29.88-12.78-24.3-31.86ZM346.93,528.56l7.74-27c1.98-6.3-1.26-8.82-5.76-8.82h-9c-4.86,0-9,2.52-10.98,9l-7.74,26.82c-1.8,6.48,1.44,8.82,5.94,8.82h9c4.86,0,9.18-2.34,10.8-8.82Z"/>
        <path class="cls-1" d="M398.95,527.66l9.9-34.38h-11.16c-2.34,0-3.06-1.08-2.52-3.42l4.86-16.38c.54-2.34,1.98-3.42,4.32-3.42h11.16l5.22-18.36c.72-1.98,1.8-3.06,3.78-3.06h20.34c1.98,0,2.88,1.08,2.34,3.06l-5.4,18.36h13.86c2.16,0,2.7,1.08,2.16,3.42l-4.86,16.38c-.54,2.34-1.8,3.42-3.96,3.42h-13.86l-10.26,35.46c-1.98,6.66.72,9.18,7.2,9.18,3.96,0,5.22,1.62,4.14,5.22l-3.24,10.26c-1.62,5.22-4.86,7.56-14.94,7.56-26.64,0-24.48-14.58-19.08-33.3Z"/>
      </g>
      <g>
        <path class="cls-1" d="M476.01,528.74c0-1.98,1.08-2.88,2.88-2.88h7.56c1.8,0,3.06.9,3.06,2.88.18,14.22,9.54,19.44,25.02,19.44h9.36c15.3,0,23.94-5.76,23.94-21.96,0-17.1-10.44-20.88-25.74-23.76l-7.92-1.44c-21.06-3.78-36.9-8.28-36.9-36,0-23.22,14.04-32.22,37.08-32.22h8.28c22.68,0,35.82,10.26,35.82,32.58,0,1.98-1.08,2.88-2.88,2.88h-7.56c-1.8,0-3.06-.9-3.06-2.88-.18-14.76-8.28-20.16-23.04-20.16h-7.2c-15.12,0-23.94,4.68-23.94,20.16,0,17.1,9,21.06,23.58,23.76l7.74,1.44c21.96,3.96,39.24,8.46,39.24,35.64,0,23.94-13.14,34.38-36.36,34.38h-11.34c-24.12,0-37.62-9.54-37.62-31.86Z"/>
        <path class="cls-1" d="M582.39,589.22v-117.18c0-1.62.54-2.34,2.34-2.34h8.46c1.62,0,2.34.72,2.34,2.34v7.38h1.44c4.14-6.48,11.52-10.44,22.14-10.44h5.4c19.98,0,30.6,10.44,30.6,30.42v30.78c0,19.98-10.62,30.42-30.6,30.42h-5.4c-10.62,0-18-4.14-22.14-10.62h-1.44v39.24c0,1.62-.72,2.34-2.34,2.34h-8.46c-1.8,0-2.34-.72-2.34-2.34ZM614.6,548.54h8.1c12.78,0,19.44-6.84,19.44-19.44v-28.8c0-12.42-6.66-19.26-19.44-19.26h-8.1c-12.42,0-19.08,7.02-19.08,19.08v29.34c0,12.06,6.66,19.08,19.08,19.08Z"/>
        <path class="cls-1" d="M732.32,557.36v-11.16h-1.8c-6.3,8.1-15.66,14.4-29.16,14.4h-1.08c-19.26,0-27.54-9.72-27.54-26.46v-4.68c0-16.2,10.08-22.68,27.72-22.68h31.86v-7.2c0-12.06-4.68-18.72-23.4-18.72-9.18,0-17.82,1.08-23.76,3.06-1.26.36-2.34-.18-2.52-1.44l-1.26-6.84c-.36-1.26.18-2.16,1.26-2.52,5.58-2.16,15.48-4.14,27.54-4.14h3.6c22.32,0,31.68,10.62,31.68,29.7v58.68c0,1.62-.72,2.34-2.34,2.34h-8.46c-1.8,0-2.34-.72-2.34-2.34ZM702.08,548.72h6.3c13.32,0,23.94-10.26,23.94-20.52v-11.16h-30.42c-10.26,0-16.2,2.88-16.2,13.32v3.06c0,10.98,5.76,15.3,16.38,15.3Z"/>
        <path class="cls-1" d="M766.52,529.82v-30.06c0-19.44,11.34-30.78,31.86-30.78h8.46c19.44,0,30.96,10.26,30.96,27.54v1.08c0,1.44-.72,2.34-2.34,2.34h-8.1c-1.8,0-2.34-.9-2.34-2.34v-1.08c0-9.72-6.66-15.48-18.36-15.48h-8.1c-12.42,0-18.9,6.84-18.9,18.9v29.16c0,12.42,6.84,19.8,22.68,19.8h1.26c13.5,0,18.18-2.7,22.14-9,.9-1.44,1.8-2.16,4.14-1.08l5.04,2.34c1.98.9,2.16,1.98,1.44,3.6-5.04,10.44-14.94,15.84-32.76,15.84h-1.62c-24.3,0-35.46-11.52-35.46-30.78Z"/>
        <path class="cls-1" d="M856.16,529.82v-30.06c0-19.44,11.16-30.78,31.68-30.78h8.64c20.7,0,31.68,11.16,31.68,30.42v15.12c0,3.6-2.16,5.76-5.76,5.76h-53.1v9.36c0,11.52,6.84,19.62,22.68,19.62h1.8c12.78,0,19.44-2.88,24.66-6.3,1.08-.72,2.16-.54,2.7.36l3.24,4.5c.72,1.08.72,1.98,0,2.52-5.22,5.4-16.38,10.26-30.96,10.26h-1.98c-24.48,0-35.28-11.88-35.28-30.78ZM915.02,510.02v-10.44c0-11.88-6.12-18.54-18.9-18.54h-7.92c-12.42,0-18.9,6.84-18.9,18.9v10.08h45.72Z"/>
      </g>
    </g>
  </g>
</svg>