<svg width="1024" height="1024" viewBox="0 0 1024 1024" fill="none" xmlns="http://www.w3.org/2000/svg">
<g clip-path="url(#clip0_252_45)">
<path d="M985.76 323.038L969.542 327.472C961.436 307.627 952.101 289.874 941.53 271.307C747.532 -69.4089 273.415 -68.4881 80.5156 272.785C77.8927 277.425 75.6576 281.282 73.1439 286.088C66.533 298.725 57.8137 312.902 52.5032 325.994L37.7598 321.56C213.421 -107.573 811.477 -106.031 985.76 323.038Z" fill="#FDD80B"/>
<path d="M527.051 36.5619C526.184 40.7194 519.133 45.8978 515.277 47.6269C520.086 68.9985 508.959 159.51 515.277 173.03C515.784 174.113 532.454 179.465 536.617 182.619C556.003 197.305 557.197 228.535 540.297 245.321L727.942 355.233C741.747 344.915 759.113 340.673 775.037 349.332C778.406 351.164 785.992 360.982 786.811 361.134C793.775 362.428 894.176 296.859 910.436 291.794C915.749 288.429 914.882 279.282 918.53 275.565C924.26 269.729 930.957 272.083 937.663 272.615C948.269 283.477 947.139 294.716 933.247 302.121C932.579 301.674 920.405 299.871 917.794 297.695C904.911 310.413 796.109 363.321 792.698 369.986C790.305 374.662 793.263 384.883 791.962 389.903C785.904 413.272 765.059 412.994 761.056 422.36V620.055C772.245 637.253 784.872 644.788 772.829 666.527C757.276 694.603 710.537 677.479 722.791 639.972C726.023 630.078 737.403 630.217 736.036 615.629L679.375 523.421L640.374 592.023C641.622 595.667 658.774 593.407 662.45 600.875C662.584 601.148 659.362 604.331 660.978 606.777C662.78 609.503 713.369 639.381 716.904 639.972C719.326 642.807 716.751 642.946 716.904 644.398C714.186 646.414 713.018 645.699 710.281 644.398C691.921 635.671 646.167 599.978 627.864 606.039C619.114 608.937 543.627 745.742 528.523 761.686L541.033 771.276C600.42 738.262 658.841 702.415 716.904 668.003C718.346 667.147 719.559 666.424 720.583 665.052L727.206 674.642L546.184 780.865C563.248 809.515 542.671 834.799 515.277 844.305V975.609C516.156 977.956 525.496 979.853 527.051 985.199C529.508 993.639 525.06 1000.5 521.164 1007.33C513.907 1007.53 507.807 1007.51 500.56 1007.33C496.367 999.431 494.283 994.236 494.673 985.199C497.558 984.425 502.61 977.07 506.447 975.609C501.821 954.727 512.514 854.821 506.447 842.829C505.961 841.87 489.95 837.071 486.579 834.715C470.712 823.623 465.096 797.075 475.541 780.865L295.254 676.855C297.296 661.777 288.049 680.111 276.122 681.281C260.69 682.796 258.205 674.072 248.895 669.478C236.968 646.053 248.564 635.97 262.141 618.579L260.669 420.885C247.573 414.341 232.949 407.457 229.763 391.379C228.781 386.426 231.473 373.132 231.234 372.199C229.602 365.804 131.238 315.117 117.176 306.547C112.256 303.548 103.497 298.563 102.458 293.269C100.024 298.704 90.0856 300.309 88.477 302.121C80.5753 300.37 73.8849 294.349 73.7598 285.893C76.2691 281.096 78.5002 277.246 81.1184 272.615C90.9731 269.496 94.67 271.812 101.723 278.516C101.628 280.255 104.305 287.62 106.874 288.843C123.51 294.317 229.215 363.018 236.385 361.134C237.19 360.923 244.409 351.297 248.159 349.332C265.146 340.433 279.529 345.838 295.254 353.758L481.428 245.321C463.589 225.401 466.705 196.768 488.05 181.144C491.268 178.79 505.663 174.707 506.447 173.03C512.759 159.536 501.643 68.9793 506.447 47.6269C503.652 44.7367 496.96 40.7459 496.145 36.5619C491.215 11.2792 532.397 10.9399 527.051 36.5619ZM501.296 254.911C495.958 264.112 488.947 272.225 482.899 280.729C481.91 282.12 485.353 283.753 484.371 285.155C481.553 289.181 475.996 289.64 474.069 292.532C451.624 326.227 441.99 356.229 425.502 389.903C415.904 409.506 399.219 429.103 387.237 447.441L486.579 505.717L506.447 494.652L507.919 260.074L501.296 254.911ZM523.372 254.911L515.277 258.599L516.749 494.652L535.146 505.717L637.431 445.966C626.142 427.424 608.987 410.779 599.166 391.379C585.777 364.93 568.969 314.927 549.127 292.532C544.531 287.343 539.877 289.497 538.825 288.106C537.381 286.196 541.854 281.117 541.768 280.729C541.428 279.18 522.97 261.108 523.372 254.911ZM467.446 268.189C450.647 283.935 301.593 356.655 300.405 366.298C300.273 367.375 304.959 378.48 304.821 386.953C304.784 389.23 300.319 396.725 300.405 397.28C301.119 401.868 371.683 437.998 380.615 443.753C389.152 423.091 400.144 398.442 412.257 379.576C425.961 358.229 465.418 314.713 471.126 289.581C472.148 285.074 464.668 276.825 474.069 276.303L467.446 268.189ZM554.278 268.189C549.567 268.867 549.664 286.32 550.599 289.581C557.442 313.463 594.754 355.388 607.996 376.625C621.208 397.812 631.544 421.368 642.582 443.753C650.611 435.929 719.911 401.637 721.319 397.28C722.111 394.828 718.371 389.264 718.376 388.428C718.415 379.344 720.055 372.719 720.583 364.085L554.278 268.189ZM723.527 402.444C717.387 402.92 656.216 445.331 644.789 450.392C650.667 458.069 654.045 467.588 659.507 475.472C662.091 479.203 665.711 476.163 668.337 479.898C670.731 483.308 680.705 509.104 683.79 508.667L737.508 423.836C742.379 417.489 727.896 402.104 723.527 402.444ZM296.726 403.919C289.157 404.64 284.002 417.985 285.688 425.311C286.67 429.578 328.773 494.762 332.783 499.078C333.678 500.04 335.808 503.148 337.199 502.028L336.463 493.914C337.446 493.629 343.776 504.393 345.293 504.241C348.396 503.93 372.545 456.414 376.935 450.392C366.761 445.505 301.571 403.457 296.726 403.919ZM279.065 415.722L269.499 419.41C273.77 420.692 282.478 421.823 279.065 415.722ZM744.131 415.722C741.742 416.232 741.829 419.14 744.131 420.147L750.753 419.41C751.182 417.511 744.502 415.642 744.131 415.722ZM273.179 424.573L270.971 614.153C273.22 616.58 277.214 618.653 280.537 617.842C287.828 616.061 331.24 527.405 338.67 515.306L285.688 431.212L273.179 424.573ZM748.546 424.573L736.036 432.688L683.054 516.782C689.605 528.462 735.732 614.529 741.187 616.366C742.438 616.788 750.05 616.624 750.753 615.629L748.546 424.573ZM638.166 452.605L537.353 512.356C542.46 518.216 537.545 533.236 539.561 536.698C543.302 543.125 618.884 578.112 629.336 588.335C634.074 574.443 674.583 531.178 675.695 521.208C675.853 519.797 664.228 499.036 662.45 496.127C660.571 493.052 656.148 494.526 655.091 491.701C654.005 488.796 658.631 485.218 658.035 481.374C657.147 475.651 643.301 460.713 641.846 453.342L638.166 452.605ZM383.558 454.08L346.029 519.732L385.766 578.745L398.275 585.384C407.606 576.599 479.457 541.84 482.164 536.698C483.151 534.823 481.503 523.452 481.428 519.732C481.42 519.335 484.735 513.683 484.371 512.356C482.832 506.73 394.483 462.292 383.558 454.08ZM342.35 524.896L285.688 617.104C286.102 629.991 295.278 632.834 301.141 642.922C310.921 633.383 357.426 614.47 362.218 605.301C363.188 603.447 360.961 596.793 362.954 594.236C363.865 593.068 378.717 590.793 381.35 587.597L342.35 524.896ZM485.107 541.124C480.161 541.213 411.993 587.951 399.747 591.286L397.539 602.351L494.673 757.26C499.601 762.422 500.01 761.086 506.447 758.736V633.333L497.617 621.53C499.674 619.513 505.354 619.732 506.447 617.104C507.638 614.245 507.63 558.002 506.447 555.14C500.86 555.35 486.383 541.102 485.107 541.124ZM535.146 541.124C533.939 541.257 520.399 554.939 515.277 555.14C514.277 557.757 514.481 608.11 515.277 611.203C517.612 620.271 530.947 615.928 516.749 627.431C520.203 644.862 512.232 751.241 516.749 758.736C517.768 760.426 521.938 758.278 523.372 760.949L627.129 594.974C615.43 589.737 540.441 540.546 535.146 541.124ZM392.388 601.613C384.986 614.268 374.182 607.84 364.426 611.94C359.435 614.037 304.309 645.644 302.613 648.824C300.941 651.96 301.79 663.867 303.349 667.265C308.257 677.967 462.76 757.158 483.635 771.276L493.202 763.162L392.388 601.613Z" fill="#171818"/>
<path d="M495.454 36.4724C496.27 40.6615 502.966 44.657 505.763 47.5507C500.956 68.9287 512.079 159.595 505.763 173.104C504.978 174.784 490.573 178.871 487.354 181.228C465.993 196.871 462.875 225.538 480.726 245.482L294.426 354.049C278.69 346.12 264.297 340.708 247.299 349.618C243.546 351.585 236.323 361.223 235.517 361.434C228.342 363.321 122.564 294.536 105.917 289.056C103.347 287.832 100.668 280.458 100.762 278.717C101.194 270.711 149.617 207.878 158.199 198.215C243.433 102.225 366.995 42.7457 495.454 36.4724Z" fill="url(#paint0_linear_252_45)"/>
<path d="M918.76 275.777C915.105 279.498 915.973 288.656 910.65 292.026C894.361 297.097 793.774 362.749 786.797 361.454C785.977 361.301 778.376 351.471 775.001 349.636C759.048 340.966 741.649 345.213 727.819 355.545L539.827 245.494C556.758 228.687 555.562 197.418 536.14 182.714C531.969 179.556 515.268 174.196 514.761 173.112C508.431 159.575 519.578 68.9498 514.761 47.5513C518.624 45.8201 525.688 40.6351 526.557 36.4724C687.406 43.9174 838.688 136.643 918.76 275.777Z" fill="url(#paint1_linear_252_45)"/>
<path d="M501.174 255.472L507.76 260.64L506.296 495.399L486.54 506.472L387.76 448.152C399.673 429.799 416.264 410.187 425.809 390.569C442.203 356.869 451.783 326.844 474.101 293.122C476.017 290.229 481.543 289.769 484.345 285.74C485.321 284.337 481.898 282.703 482.882 281.311C488.895 272.8 495.867 264.681 501.174 255.472Z" fill="url(#paint2_linear_252_45)"/>
<path d="M522.91 255.472C522.506 261.675 541.092 279.76 541.434 281.311C541.52 281.699 537.017 286.782 538.471 288.693C539.53 290.085 544.216 287.93 548.844 293.122C568.823 315.535 585.749 365.577 599.23 392.046C609.119 411.462 626.393 428.119 637.76 446.675L534.766 506.472L516.242 495.399L514.76 259.164L522.91 255.472Z" fill="url(#paint3_linear_252_45)"/>
<path d="M468.124 268.472L474.76 276.561C465.34 277.081 472.835 285.303 471.811 289.796C466.092 314.847 426.56 358.224 412.829 379.502C400.693 398.308 389.68 422.877 381.126 443.472C372.177 437.736 301.478 401.722 300.763 397.149C300.676 396.596 305.149 389.125 305.186 386.855C305.325 378.409 300.63 367.34 300.763 366.267C301.952 356.655 451.292 284.168 468.124 268.472Z" fill="#FAB310"/>
<path d="M553.965 268.472L720.911 364.061C720.38 372.667 718.734 379.271 718.694 388.325C718.69 389.159 722.444 394.705 721.649 397.149C720.235 401.492 650.669 435.674 642.609 443.472C631.528 421.159 621.152 397.68 607.89 376.561C594.596 355.392 557.141 313.602 550.272 289.796C549.333 286.546 549.236 269.149 553.965 268.472Z" fill="#F9B310"/>
<path d="M248.477 670.573C247.679 670.179 245.325 670.88 244.05 670.573C243.82 670.519 245.552 666.832 240.36 667.616L104.586 747.472C103.653 746.829 101.978 744.104 100.896 744.515C32.5382 627.538 18.8146 484.611 64.001 356.323C66.9054 348.077 83.5658 306.905 87.614 302.345C89.2271 300.529 99.1932 298.92 101.634 293.472C102.676 298.778 111.459 303.775 116.392 306.782C130.494 315.372 229.131 366.179 230.768 372.59C231.007 373.524 228.308 386.85 229.292 391.814C232.487 407.931 247.152 414.831 260.284 421.391L261.76 619.554C248.145 636.986 236.517 647.093 248.477 670.573Z" fill="url(#paint4_linear_252_45)"/>
<path d="M934.02 302.889C936.322 304.413 954.058 344.937 956.233 350.739C1005.29 481.544 989.877 628.025 919.212 747.527C919.028 747.506 918.011 750.533 916.99 750.471C913.231 750.245 912.271 741.099 911.067 740.165C892.469 725.748 803.645 676.401 780.751 666.55C777.984 665.359 776.869 664.465 774.088 666.55H772.607C784.725 644.855 772.019 637.335 760.76 620.172V422.883C764.788 413.535 785.763 413.813 791.858 390.492C793.167 385.481 790.19 375.281 792.598 370.616C796.031 363.964 905.508 311.164 918.471 298.472C921.098 300.644 933.348 302.443 934.02 302.889Z" fill="url(#paint5_linear_252_45)"/>
<path d="M52.9908 325.904C-3.48747 464.879 5.70241 630.938 85.4691 758.727C85.509 768.407 93.1104 768.88 95.8031 773.499C114.059 804.819 135.356 833.295 160.76 859.178L151.902 872.472C5.72456 725.33 -41.5004 515.881 38.228 321.472L52.9908 325.904Z" fill="#F59614"/>
<path d="M985.693 323.472C1063.68 514.877 1018.97 718.192 877.817 865.472C873.347 862.076 867.641 858.316 868.95 852.181C892.5 827.166 909.689 802.726 928.061 773.908C931.468 768.564 934.584 765.629 938.405 759.14C1016.9 625.824 1028.25 471.435 969.438 327.903L985.693 323.472Z" fill="#F59614"/>
<path d="M723.903 403.478C728.239 403.139 742.613 418.49 737.778 424.823L684.466 509.467C681.405 509.903 671.506 484.164 669.13 480.762C666.524 477.034 662.931 480.068 660.366 476.345C654.946 468.479 651.593 458.981 645.76 451.32C657.1 446.271 717.809 403.953 723.903 403.478Z" fill="#F9AE10"/>
<path d="M296.172 404.476C301.04 404.016 366.538 445.927 376.76 450.797C372.349 456.8 348.085 504.161 344.968 504.471C343.444 504.622 337.084 493.893 336.096 494.177L336.836 502.265C335.438 503.381 333.299 500.283 332.4 499.324C328.37 495.023 286.068 430.051 285.082 425.799C283.387 418.496 288.567 405.195 296.172 404.476Z" fill="#F9AE0F"/>
<path d="M279.01 416.472C282.31 422.962 273.89 421.758 269.76 420.395L279.01 416.472Z" fill="#B16E14"/>
<path d="M744.644 416.475C745.041 416.385 752.197 418.496 751.739 420.64L744.644 421.472C742.178 420.335 742.085 417.052 744.644 416.475Z" fill="#C28813"/>
<path d="M272.977 424.472L285.542 431.13L338.76 515.464C331.296 527.598 287.692 616.507 280.368 618.293C277.031 619.107 273.019 617.028 270.76 614.594L272.977 424.472Z" fill="#F79913"/>
<path d="M749.542 424.472L751.76 616.512C751.053 617.513 743.408 617.678 742.151 617.254C736.671 615.407 690.34 528.896 683.76 517.156L736.977 432.629L749.542 424.472Z" fill="#F79814"/>
<path d="M639.051 453.472L642.748 454.206C644.21 461.537 658.122 476.395 659.014 482.087C659.613 485.911 654.965 489.469 656.056 492.358C657.118 495.168 661.562 493.702 663.45 496.76C665.236 499.654 676.916 520.303 676.758 521.706C675.64 531.623 634.939 574.655 630.179 588.472C619.677 578.305 543.737 543.506 539.978 537.114C537.952 533.67 542.891 518.73 537.76 512.902L639.051 453.472Z" fill="#F7A211"/>
<path d="M383.188 454.472C394.084 462.665 482.197 507 483.732 512.613C484.095 513.938 480.789 519.576 480.796 519.972C480.871 523.683 482.515 535.029 481.53 536.899C478.831 542.029 407.172 576.707 397.866 585.472L385.39 578.849L345.76 519.972L383.188 454.472Z" fill="#F79D13"/>
<path d="M722.509 640.37C720.627 640.172 718.495 640.678 716.67 640.37C713.163 639.779 662.984 609.811 661.197 607.077C659.594 604.623 662.79 601.432 662.657 601.158C659.01 593.667 641.998 595.934 640.76 592.279L679.445 523.472L735.647 615.955C737.003 630.587 725.715 630.447 722.509 640.37Z" fill="#F68917"/>
<path d="M342.621 525.472L381.76 588.16C379.118 591.355 364.212 593.629 363.298 594.797C361.298 597.354 363.533 604.006 362.56 605.86C357.751 615.027 311.082 633.935 301.267 643.472C295.383 633.386 286.175 630.544 285.76 617.66L342.621 525.472Z" fill="#F48B17"/>
<path d="M484.489 541.472C485.767 541.45 500.271 555.718 505.868 555.508C507.053 558.374 507.061 614.696 505.868 617.559C504.772 620.19 499.083 619.971 497.021 621.991L505.868 633.81V759.39C499.419 761.743 499.009 763.082 494.072 757.912L396.76 602.785L398.971 591.704C411.24 588.365 479.533 541.561 484.489 541.472Z" fill="url(#paint6_linear_252_45)"/>
<path d="M535.39 541.477C540.708 540.899 616.012 590.127 627.76 595.369L523.567 761.472C522.128 758.8 517.939 760.95 516.917 759.258C512.381 751.757 520.385 645.296 516.917 627.851C531.174 616.339 517.783 620.686 515.439 611.61C514.639 608.515 514.434 558.123 515.439 555.504C520.582 555.303 534.179 541.61 535.39 541.477Z" fill="url(#paint7_linear_252_45)"/>
<path d="M392.684 601.472L493.76 764.294L484.169 772.472C463.239 758.244 308.334 678.428 303.413 667.642C301.851 664.218 300.999 652.216 302.675 649.055C304.375 645.851 359.645 613.994 364.649 611.881C374.43 607.749 385.262 614.228 392.684 601.472Z" fill="url(#paint8_linear_252_45)"/>
<path d="M716.469 644.773C717.346 653.186 718.872 660.037 716.469 668.531C658.613 703.166 600.4 739.245 541.225 772.472L528.76 762.821C543.81 746.774 619.027 609.082 627.747 606.166C645.984 600.066 691.575 635.989 709.87 644.773C712.597 646.082 713.76 646.802 716.469 644.773Z" fill="url(#paint9_linear_252_45)"/>
<path d="M723.035 640.52C710.737 678.106 757.648 695.266 773.258 667.132H774.735C773.738 671.602 778.358 673.944 781.382 676.002C798.046 687.345 910.487 745.157 913.586 752.141C914.191 753.507 912.974 757.477 913.586 758.794C829.454 892.123 684.93 978.666 526.577 986.472C525.015 981.116 515.642 979.215 514.76 976.863V845.282C542.254 835.757 562.907 810.42 545.78 781.71L727.467 675.263L720.82 665.653C719.792 667.028 718.574 667.753 717.127 668.61C719.548 660.153 718.01 653.332 717.127 644.955C716.973 643.5 719.558 643.361 717.127 640.52C718.973 640.827 721.131 640.322 723.035 640.52Z" fill="url(#paint10_linear_252_45)"/>
<path d="M918.686 748.503C929.176 749.671 932.04 747.537 937.76 758.785C933.966 765.238 930.873 768.157 927.489 773.472C914.814 771.324 916.679 767.113 912.817 758.785C912.209 757.476 913.418 753.532 912.817 752.175C909.739 745.237 798.051 687.801 781.5 676.533C778.496 674.488 773.907 672.162 774.897 667.72C777.653 665.64 778.757 666.532 781.5 667.72C804.183 677.548 892.189 726.777 910.616 741.159C911.809 742.09 912.76 751.214 916.485 751.441C917.496 751.502 918.504 748.483 918.686 748.503Z" fill="#18181A"/>
<path d="M243.66 670.523C244.626 674.518 238.349 677.65 235.618 679.347C220.356 688.831 111.935 744.995 110.615 752.147C110.511 752.709 113.148 762.021 113.539 763.177C108.423 771.363 104.763 771.569 95.9942 773.472C93.3274 768.873 85.7994 768.403 85.7599 758.765C85.7146 747.92 94.5292 746.848 101.842 744.058C102.914 743.649 104.573 746.36 105.497 747L240.005 667.581C245.148 666.802 243.432 670.468 243.66 670.523Z" fill="#161818"/>
<path d="M248.822 669.597C258.113 674.205 260.592 682.954 275.993 681.435C287.896 680.261 297.124 661.872 295.086 676.995L475.004 781.318C464.58 797.576 470.185 824.204 486.019 835.329C489.384 837.692 505.362 842.505 505.847 843.467C511.901 855.495 501.231 955.7 505.847 976.645C502.018 978.11 496.976 985.488 494.097 986.263C489.516 987.496 453.807 982.933 446.364 981.824C332.149 964.793 222.457 901.382 148.949 812.392C142.017 804.001 116.46 771.007 113.7 762.821C113.308 761.658 110.658 752.288 110.763 751.723C112.089 744.527 221.006 688.018 236.338 678.475C239.081 676.767 245.387 673.617 244.416 669.597C245.685 669.903 248.027 669.202 248.822 669.597Z" fill="url(#paint11_linear_252_45)"/>
<path d="M877.76 864.727C676.539 1074.54 356.094 1078.37 150.76 872.09L159.608 858.836C247.998 948.715 373.602 1004.4 500.251 1007.58C507.512 1007.76 513.624 1007.78 520.896 1007.58C652.043 1003.96 779.38 946.506 868.912 851.472C867.605 857.59 873.299 861.339 877.76 864.727Z" fill="#EB4E23"/>
</g>
<defs>
<linearGradient id="paint0_linear_252_45" x1="308.014" y1="46.6216" x2="300.261" y2="340.461" gradientUnits="userSpaceOnUse">
<stop stop-color="#FEE40C"/>
<stop offset="1" stop-color="#FABD0F"/>
</linearGradient>
<linearGradient id="paint1_linear_252_45" x1="711.177" y1="44.9574" x2="723.339" y2="341.622" gradientUnits="userSpaceOnUse">
<stop stop-color="#FEE50D"/>
<stop offset="1" stop-color="#FABD0F"/>
</linearGradient>
<linearGradient id="paint2_linear_252_45" x1="463.282" y1="296.255" x2="431.781" y2="475.059" gradientUnits="userSpaceOnUse">
<stop stop-color="#FDC30F"/>
<stop offset="1" stop-color="#FAAA11"/>
</linearGradient>
<linearGradient id="paint3_linear_252_45" x1="566.092" y1="299.217" x2="589.536" y2="477.826" gradientUnits="userSpaceOnUse">
<stop stop-color="#FDC50F"/>
<stop offset="1" stop-color="#F8AA11"/>
</linearGradient>
<linearGradient id="paint4_linear_252_45" x1="154.917" y1="317.345" x2="145.744" y2="723.918" gradientUnits="userSpaceOnUse">
<stop stop-color="#FBBD0F"/>
<stop offset="1" stop-color="#F06E1C"/>
</linearGradient>
<linearGradient id="paint5_linear_252_45" x1="868.686" y1="317.729" x2="876.139" y2="721.073" gradientUnits="userSpaceOnUse">
<stop stop-color="#FBBD0F"/>
<stop offset="1" stop-color="#EF6D1C"/>
</linearGradient>
<linearGradient id="paint6_linear_252_45" x1="457.551" y1="562.045" x2="448.256" y2="713.932" gradientUnits="userSpaceOnUse">
<stop stop-color="#F79B13"/>
<stop offset="1" stop-color="#F16E1C"/>
</linearGradient>
<linearGradient id="paint7_linear_252_45" x1="577.084" y1="564.964" x2="568.68" y2="719.766" gradientUnits="userSpaceOnUse">
<stop stop-color="#F79A13"/>
<stop offset="1" stop-color="#F16E1B"/>
</linearGradient>
<linearGradient id="paint8_linear_252_45" x1="391.98" y1="622.769" x2="404.201" y2="741.086" gradientUnits="userSpaceOnUse">
<stop stop-color="#F48718"/>
<stop offset="1" stop-color="#F0661D"/>
</linearGradient>
<linearGradient id="paint9_linear_252_45" x1="632.311" y1="622.563" x2="617.211" y2="743.36" gradientUnits="userSpaceOnUse">
<stop stop-color="#F48617"/>
<stop offset="1" stop-color="#EF651D"/>
</linearGradient>
<linearGradient id="paint10_linear_252_45" x1="717.443" y1="689.86" x2="711.656" y2="973.66" gradientUnits="userSpaceOnUse">
<stop stop-color="#F06E1C"/>
<stop offset="1" stop-color="#E72926"/>
</linearGradient>
<linearGradient id="paint11_linear_252_45" x1="305.469" y1="689.749" x2="312.917" y2="975.242" gradientUnits="userSpaceOnUse">
<stop stop-color="#F06F1C"/>
<stop offset="1" stop-color="#E62A26"/>
</linearGradient>
<clipPath id="clip0_252_45">
<rect width="1024" height="1024" fill="white"/>
</clipPath>
</defs>
</svg>
